%TF.GenerationSoftware,KiCad,Pcbnew,8.0.5*%
%TF.CreationDate,2025-02-14T14:12:51-08:00*%
%TF.ProjectId,RelayDriver,52656c61-7944-4726-9976-65722e6b6963,A*%
%TF.SameCoordinates,Original*%
%TF.FileFunction,Legend,Bot*%
%TF.FilePolarity,Positive*%
%FSLAX46Y46*%
G04 Gerber Fmt 4.6, Leading zero omitted, Abs format (unit mm)*
G04 Created by KiCad (PCBNEW 8.0.5) date 2025-02-14 14:12:51*
%MOMM*%
%LPD*%
G01*
G04 APERTURE LIST*
%ADD10C,0.375000*%
%ADD11C,0.500000*%
%ADD12C,0.200000*%
%ADD13C,0.250000*%
G04 APERTURE END LIST*
D10*
X123774500Y-70396147D02*
X123774500Y-69253290D01*
X123203071Y-69824718D02*
X124345928Y-69824718D01*
X123774500Y-68539004D02*
X123774500Y-67396147D01*
D11*
X149776016Y-96861903D02*
X151776016Y-96861903D01*
X149871254Y-96861903D02*
X149776016Y-97052379D01*
X149776016Y-97052379D02*
X149776016Y-97433332D01*
X149776016Y-97433332D02*
X149871254Y-97623808D01*
X149871254Y-97623808D02*
X149966492Y-97719046D01*
X149966492Y-97719046D02*
X150156969Y-97814284D01*
X150156969Y-97814284D02*
X150728397Y-97814284D01*
X150728397Y-97814284D02*
X150918873Y-97719046D01*
X150918873Y-97719046D02*
X151014112Y-97623808D01*
X151014112Y-97623808D02*
X151109350Y-97433332D01*
X151109350Y-97433332D02*
X151109350Y-97052379D01*
X151109350Y-97052379D02*
X151014112Y-96861903D01*
X149776016Y-99528570D02*
X151109350Y-99528570D01*
X149776016Y-98671427D02*
X150823635Y-98671427D01*
X150823635Y-98671427D02*
X151014112Y-98766665D01*
X151014112Y-98766665D02*
X151109350Y-98957141D01*
X151109350Y-98957141D02*
X151109350Y-99242856D01*
X151109350Y-99242856D02*
X151014112Y-99433332D01*
X151014112Y-99433332D02*
X150918873Y-99528570D01*
X151014112Y-101338094D02*
X151109350Y-101147618D01*
X151109350Y-101147618D02*
X151109350Y-100766665D01*
X151109350Y-100766665D02*
X151014112Y-100576189D01*
X151014112Y-100576189D02*
X150918873Y-100480951D01*
X150918873Y-100480951D02*
X150728397Y-100385713D01*
X150728397Y-100385713D02*
X150156969Y-100385713D01*
X150156969Y-100385713D02*
X149966492Y-100480951D01*
X149966492Y-100480951D02*
X149871254Y-100576189D01*
X149871254Y-100576189D02*
X149776016Y-100766665D01*
X149776016Y-100766665D02*
X149776016Y-101147618D01*
X149776016Y-101147618D02*
X149871254Y-101338094D01*
X151014112Y-103052380D02*
X151109350Y-102861904D01*
X151109350Y-102861904D02*
X151109350Y-102480951D01*
X151109350Y-102480951D02*
X151014112Y-102290475D01*
X151014112Y-102290475D02*
X150918873Y-102195237D01*
X150918873Y-102195237D02*
X150728397Y-102099999D01*
X150728397Y-102099999D02*
X150156969Y-102099999D01*
X150156969Y-102099999D02*
X149966492Y-102195237D01*
X149966492Y-102195237D02*
X149871254Y-102290475D01*
X149871254Y-102290475D02*
X149776016Y-102480951D01*
X149776016Y-102480951D02*
X149776016Y-102861904D01*
X149776016Y-102861904D02*
X149871254Y-103052380D01*
X151109350Y-103909523D02*
X149776016Y-103909523D01*
X149109350Y-103909523D02*
X149204588Y-103814285D01*
X149204588Y-103814285D02*
X149299826Y-103909523D01*
X149299826Y-103909523D02*
X149204588Y-104004761D01*
X149204588Y-104004761D02*
X149109350Y-103909523D01*
X149109350Y-103909523D02*
X149299826Y-103909523D01*
X151109350Y-105147618D02*
X151014112Y-104957142D01*
X151014112Y-104957142D02*
X150823635Y-104861904D01*
X150823635Y-104861904D02*
X149109350Y-104861904D01*
X151109350Y-106766666D02*
X150061731Y-106766666D01*
X150061731Y-106766666D02*
X149871254Y-106671428D01*
X149871254Y-106671428D02*
X149776016Y-106480952D01*
X149776016Y-106480952D02*
X149776016Y-106099999D01*
X149776016Y-106099999D02*
X149871254Y-105909523D01*
X151014112Y-106766666D02*
X151109350Y-106576190D01*
X151109350Y-106576190D02*
X151109350Y-106099999D01*
X151109350Y-106099999D02*
X151014112Y-105909523D01*
X151014112Y-105909523D02*
X150823635Y-105814285D01*
X150823635Y-105814285D02*
X150633159Y-105814285D01*
X150633159Y-105814285D02*
X150442683Y-105909523D01*
X150442683Y-105909523D02*
X150347445Y-106099999D01*
X150347445Y-106099999D02*
X150347445Y-106576190D01*
X150347445Y-106576190D02*
X150252207Y-106766666D01*
X151109350Y-107719047D02*
X149109350Y-107719047D01*
X149871254Y-107719047D02*
X149776016Y-107909523D01*
X149776016Y-107909523D02*
X149776016Y-108290476D01*
X149776016Y-108290476D02*
X149871254Y-108480952D01*
X149871254Y-108480952D02*
X149966492Y-108576190D01*
X149966492Y-108576190D02*
X150156969Y-108671428D01*
X150156969Y-108671428D02*
X150728397Y-108671428D01*
X150728397Y-108671428D02*
X150918873Y-108576190D01*
X150918873Y-108576190D02*
X151014112Y-108480952D01*
X151014112Y-108480952D02*
X151109350Y-108290476D01*
X151109350Y-108290476D02*
X151109350Y-107909523D01*
X151109350Y-107909523D02*
X151014112Y-107719047D01*
X151014112Y-109433333D02*
X151109350Y-109623809D01*
X151109350Y-109623809D02*
X151109350Y-110004761D01*
X151109350Y-110004761D02*
X151014112Y-110195238D01*
X151014112Y-110195238D02*
X150823635Y-110290476D01*
X150823635Y-110290476D02*
X150728397Y-110290476D01*
X150728397Y-110290476D02*
X150537921Y-110195238D01*
X150537921Y-110195238D02*
X150442683Y-110004761D01*
X150442683Y-110004761D02*
X150442683Y-109719047D01*
X150442683Y-109719047D02*
X150347445Y-109528571D01*
X150347445Y-109528571D02*
X150156969Y-109433333D01*
X150156969Y-109433333D02*
X150061731Y-109433333D01*
X150061731Y-109433333D02*
X149871254Y-109528571D01*
X149871254Y-109528571D02*
X149776016Y-109719047D01*
X149776016Y-109719047D02*
X149776016Y-110004761D01*
X149776016Y-110004761D02*
X149871254Y-110195238D01*
X150918873Y-111147619D02*
X151014112Y-111242857D01*
X151014112Y-111242857D02*
X151109350Y-111147619D01*
X151109350Y-111147619D02*
X151014112Y-111052381D01*
X151014112Y-111052381D02*
X150918873Y-111147619D01*
X150918873Y-111147619D02*
X151109350Y-111147619D01*
X151014112Y-112957143D02*
X151109350Y-112766667D01*
X151109350Y-112766667D02*
X151109350Y-112385714D01*
X151109350Y-112385714D02*
X151014112Y-112195238D01*
X151014112Y-112195238D02*
X150918873Y-112100000D01*
X150918873Y-112100000D02*
X150728397Y-112004762D01*
X150728397Y-112004762D02*
X150156969Y-112004762D01*
X150156969Y-112004762D02*
X149966492Y-112100000D01*
X149966492Y-112100000D02*
X149871254Y-112195238D01*
X149871254Y-112195238D02*
X149776016Y-112385714D01*
X149776016Y-112385714D02*
X149776016Y-112766667D01*
X149776016Y-112766667D02*
X149871254Y-112957143D01*
X151109350Y-114100000D02*
X151014112Y-113909524D01*
X151014112Y-113909524D02*
X150918873Y-113814286D01*
X150918873Y-113814286D02*
X150728397Y-113719048D01*
X150728397Y-113719048D02*
X150156969Y-113719048D01*
X150156969Y-113719048D02*
X149966492Y-113814286D01*
X149966492Y-113814286D02*
X149871254Y-113909524D01*
X149871254Y-113909524D02*
X149776016Y-114100000D01*
X149776016Y-114100000D02*
X149776016Y-114385715D01*
X149776016Y-114385715D02*
X149871254Y-114576191D01*
X149871254Y-114576191D02*
X149966492Y-114671429D01*
X149966492Y-114671429D02*
X150156969Y-114766667D01*
X150156969Y-114766667D02*
X150728397Y-114766667D01*
X150728397Y-114766667D02*
X150918873Y-114671429D01*
X150918873Y-114671429D02*
X151014112Y-114576191D01*
X151014112Y-114576191D02*
X151109350Y-114385715D01*
X151109350Y-114385715D02*
X151109350Y-114100000D01*
X151109350Y-115623810D02*
X149776016Y-115623810D01*
X149966492Y-115623810D02*
X149871254Y-115719048D01*
X149871254Y-115719048D02*
X149776016Y-115909524D01*
X149776016Y-115909524D02*
X149776016Y-116195239D01*
X149776016Y-116195239D02*
X149871254Y-116385715D01*
X149871254Y-116385715D02*
X150061731Y-116480953D01*
X150061731Y-116480953D02*
X151109350Y-116480953D01*
X150061731Y-116480953D02*
X149871254Y-116576191D01*
X149871254Y-116576191D02*
X149776016Y-116766667D01*
X149776016Y-116766667D02*
X149776016Y-117052381D01*
X149776016Y-117052381D02*
X149871254Y-117242858D01*
X149871254Y-117242858D02*
X150061731Y-117338096D01*
X150061731Y-117338096D02*
X151109350Y-117338096D01*
X154329238Y-102814285D02*
X152329238Y-102814285D01*
X152329238Y-102814285D02*
X152329238Y-103576190D01*
X152329238Y-103576190D02*
X152424476Y-103766666D01*
X152424476Y-103766666D02*
X152519714Y-103861904D01*
X152519714Y-103861904D02*
X152710190Y-103957142D01*
X152710190Y-103957142D02*
X152995904Y-103957142D01*
X152995904Y-103957142D02*
X153186380Y-103861904D01*
X153186380Y-103861904D02*
X153281619Y-103766666D01*
X153281619Y-103766666D02*
X153376857Y-103576190D01*
X153376857Y-103576190D02*
X153376857Y-102814285D01*
X154329238Y-105766666D02*
X154329238Y-104814285D01*
X154329238Y-104814285D02*
X152329238Y-104814285D01*
X154329238Y-107576190D02*
X153376857Y-106909523D01*
X154329238Y-106433333D02*
X152329238Y-106433333D01*
X152329238Y-106433333D02*
X152329238Y-107195238D01*
X152329238Y-107195238D02*
X152424476Y-107385714D01*
X152424476Y-107385714D02*
X152519714Y-107480952D01*
X152519714Y-107480952D02*
X152710190Y-107576190D01*
X152710190Y-107576190D02*
X152995904Y-107576190D01*
X152995904Y-107576190D02*
X153186380Y-107480952D01*
X153186380Y-107480952D02*
X153281619Y-107385714D01*
X153281619Y-107385714D02*
X153376857Y-107195238D01*
X153376857Y-107195238D02*
X153376857Y-106433333D01*
X154329238Y-108433333D02*
X152329238Y-108433333D01*
X152329238Y-108433333D02*
X152329238Y-108909523D01*
X152329238Y-108909523D02*
X152424476Y-109195238D01*
X152424476Y-109195238D02*
X152614952Y-109385714D01*
X152614952Y-109385714D02*
X152805428Y-109480952D01*
X152805428Y-109480952D02*
X153186380Y-109576190D01*
X153186380Y-109576190D02*
X153472095Y-109576190D01*
X153472095Y-109576190D02*
X153853047Y-109480952D01*
X153853047Y-109480952D02*
X154043523Y-109385714D01*
X154043523Y-109385714D02*
X154234000Y-109195238D01*
X154234000Y-109195238D02*
X154329238Y-108909523D01*
X154329238Y-108909523D02*
X154329238Y-108433333D01*
X154329238Y-111480952D02*
X154329238Y-110338095D01*
X154329238Y-110909523D02*
X152329238Y-110909523D01*
X152329238Y-110909523D02*
X152614952Y-110719047D01*
X152614952Y-110719047D02*
X152805428Y-110528571D01*
X152805428Y-110528571D02*
X152900666Y-110338095D01*
D12*
X145019600Y-78622054D02*
X145067219Y-78764911D01*
X145067219Y-78764911D02*
X145067219Y-79003006D01*
X145067219Y-79003006D02*
X145019600Y-79098244D01*
X145019600Y-79098244D02*
X144971980Y-79145863D01*
X144971980Y-79145863D02*
X144876742Y-79193482D01*
X144876742Y-79193482D02*
X144781504Y-79193482D01*
X144781504Y-79193482D02*
X144686266Y-79145863D01*
X144686266Y-79145863D02*
X144638647Y-79098244D01*
X144638647Y-79098244D02*
X144591028Y-79003006D01*
X144591028Y-79003006D02*
X144543409Y-78812530D01*
X144543409Y-78812530D02*
X144495790Y-78717292D01*
X144495790Y-78717292D02*
X144448171Y-78669673D01*
X144448171Y-78669673D02*
X144352933Y-78622054D01*
X144352933Y-78622054D02*
X144257695Y-78622054D01*
X144257695Y-78622054D02*
X144162457Y-78669673D01*
X144162457Y-78669673D02*
X144114838Y-78717292D01*
X144114838Y-78717292D02*
X144067219Y-78812530D01*
X144067219Y-78812530D02*
X144067219Y-79050625D01*
X144067219Y-79050625D02*
X144114838Y-79193482D01*
X145019600Y-79574435D02*
X145067219Y-79717292D01*
X145067219Y-79717292D02*
X145067219Y-79955387D01*
X145067219Y-79955387D02*
X145019600Y-80050625D01*
X145019600Y-80050625D02*
X144971980Y-80098244D01*
X144971980Y-80098244D02*
X144876742Y-80145863D01*
X144876742Y-80145863D02*
X144781504Y-80145863D01*
X144781504Y-80145863D02*
X144686266Y-80098244D01*
X144686266Y-80098244D02*
X144638647Y-80050625D01*
X144638647Y-80050625D02*
X144591028Y-79955387D01*
X144591028Y-79955387D02*
X144543409Y-79764911D01*
X144543409Y-79764911D02*
X144495790Y-79669673D01*
X144495790Y-79669673D02*
X144448171Y-79622054D01*
X144448171Y-79622054D02*
X144352933Y-79574435D01*
X144352933Y-79574435D02*
X144257695Y-79574435D01*
X144257695Y-79574435D02*
X144162457Y-79622054D01*
X144162457Y-79622054D02*
X144114838Y-79669673D01*
X144114838Y-79669673D02*
X144067219Y-79764911D01*
X144067219Y-79764911D02*
X144067219Y-80003006D01*
X144067219Y-80003006D02*
X144114838Y-80145863D01*
X144162457Y-80526816D02*
X144114838Y-80574435D01*
X144114838Y-80574435D02*
X144067219Y-80669673D01*
X144067219Y-80669673D02*
X144067219Y-80907768D01*
X144067219Y-80907768D02*
X144114838Y-81003006D01*
X144114838Y-81003006D02*
X144162457Y-81050625D01*
X144162457Y-81050625D02*
X144257695Y-81098244D01*
X144257695Y-81098244D02*
X144352933Y-81098244D01*
X144352933Y-81098244D02*
X144495790Y-81050625D01*
X144495790Y-81050625D02*
X145067219Y-80479197D01*
X145067219Y-80479197D02*
X145067219Y-81098244D01*
X143789600Y-78531578D02*
X143789600Y-81188721D01*
X143019600Y-78622054D02*
X143067219Y-78764911D01*
X143067219Y-78764911D02*
X143067219Y-79003006D01*
X143067219Y-79003006D02*
X143019600Y-79098244D01*
X143019600Y-79098244D02*
X142971980Y-79145863D01*
X142971980Y-79145863D02*
X142876742Y-79193482D01*
X142876742Y-79193482D02*
X142781504Y-79193482D01*
X142781504Y-79193482D02*
X142686266Y-79145863D01*
X142686266Y-79145863D02*
X142638647Y-79098244D01*
X142638647Y-79098244D02*
X142591028Y-79003006D01*
X142591028Y-79003006D02*
X142543409Y-78812530D01*
X142543409Y-78812530D02*
X142495790Y-78717292D01*
X142495790Y-78717292D02*
X142448171Y-78669673D01*
X142448171Y-78669673D02*
X142352933Y-78622054D01*
X142352933Y-78622054D02*
X142257695Y-78622054D01*
X142257695Y-78622054D02*
X142162457Y-78669673D01*
X142162457Y-78669673D02*
X142114838Y-78717292D01*
X142114838Y-78717292D02*
X142067219Y-78812530D01*
X142067219Y-78812530D02*
X142067219Y-79050625D01*
X142067219Y-79050625D02*
X142114838Y-79193482D01*
X143019600Y-79574435D02*
X143067219Y-79717292D01*
X143067219Y-79717292D02*
X143067219Y-79955387D01*
X143067219Y-79955387D02*
X143019600Y-80050625D01*
X143019600Y-80050625D02*
X142971980Y-80098244D01*
X142971980Y-80098244D02*
X142876742Y-80145863D01*
X142876742Y-80145863D02*
X142781504Y-80145863D01*
X142781504Y-80145863D02*
X142686266Y-80098244D01*
X142686266Y-80098244D02*
X142638647Y-80050625D01*
X142638647Y-80050625D02*
X142591028Y-79955387D01*
X142591028Y-79955387D02*
X142543409Y-79764911D01*
X142543409Y-79764911D02*
X142495790Y-79669673D01*
X142495790Y-79669673D02*
X142448171Y-79622054D01*
X142448171Y-79622054D02*
X142352933Y-79574435D01*
X142352933Y-79574435D02*
X142257695Y-79574435D01*
X142257695Y-79574435D02*
X142162457Y-79622054D01*
X142162457Y-79622054D02*
X142114838Y-79669673D01*
X142114838Y-79669673D02*
X142067219Y-79764911D01*
X142067219Y-79764911D02*
X142067219Y-80003006D01*
X142067219Y-80003006D02*
X142114838Y-80145863D01*
X143067219Y-81098244D02*
X143067219Y-80526816D01*
X143067219Y-80812530D02*
X142067219Y-80812530D01*
X142067219Y-80812530D02*
X142210076Y-80717292D01*
X142210076Y-80717292D02*
X142305314Y-80622054D01*
X142305314Y-80622054D02*
X142352933Y-80526816D01*
X141789600Y-78531578D02*
X141789600Y-81188721D01*
D13*
X125261904Y-74344731D02*
X125738094Y-74344731D01*
X125738094Y-74344731D02*
X125785713Y-74820921D01*
X125785713Y-74820921D02*
X125738094Y-74773302D01*
X125738094Y-74773302D02*
X125642856Y-74725683D01*
X125642856Y-74725683D02*
X125404761Y-74725683D01*
X125404761Y-74725683D02*
X125309523Y-74773302D01*
X125309523Y-74773302D02*
X125261904Y-74820921D01*
X125261904Y-74820921D02*
X125214285Y-74916159D01*
X125214285Y-74916159D02*
X125214285Y-75154254D01*
X125214285Y-75154254D02*
X125261904Y-75249492D01*
X125261904Y-75249492D02*
X125309523Y-75297112D01*
X125309523Y-75297112D02*
X125404761Y-75344731D01*
X125404761Y-75344731D02*
X125642856Y-75344731D01*
X125642856Y-75344731D02*
X125738094Y-75297112D01*
X125738094Y-75297112D02*
X125785713Y-75249492D01*
X124785713Y-74963778D02*
X124023809Y-74963778D01*
X123595237Y-74439969D02*
X123547618Y-74392350D01*
X123547618Y-74392350D02*
X123452380Y-74344731D01*
X123452380Y-74344731D02*
X123214285Y-74344731D01*
X123214285Y-74344731D02*
X123119047Y-74392350D01*
X123119047Y-74392350D02*
X123071428Y-74439969D01*
X123071428Y-74439969D02*
X123023809Y-74535207D01*
X123023809Y-74535207D02*
X123023809Y-74630445D01*
X123023809Y-74630445D02*
X123071428Y-74773302D01*
X123071428Y-74773302D02*
X123642856Y-75344731D01*
X123642856Y-75344731D02*
X123023809Y-75344731D01*
X122166666Y-74678064D02*
X122166666Y-75344731D01*
X122404761Y-74297112D02*
X122642856Y-75011397D01*
X122642856Y-75011397D02*
X122023809Y-75011397D01*
X121785713Y-74344731D02*
X121452380Y-75344731D01*
X121452380Y-75344731D02*
X121119047Y-74344731D01*
X125595238Y-75954675D02*
X125785714Y-75954675D01*
X125785714Y-75954675D02*
X125880952Y-76002294D01*
X125880952Y-76002294D02*
X125928571Y-76049913D01*
X125928571Y-76049913D02*
X126023809Y-76192770D01*
X126023809Y-76192770D02*
X126071428Y-76383246D01*
X126071428Y-76383246D02*
X126071428Y-76764198D01*
X126071428Y-76764198D02*
X126023809Y-76859436D01*
X126023809Y-76859436D02*
X125976190Y-76907056D01*
X125976190Y-76907056D02*
X125880952Y-76954675D01*
X125880952Y-76954675D02*
X125690476Y-76954675D01*
X125690476Y-76954675D02*
X125595238Y-76907056D01*
X125595238Y-76907056D02*
X125547619Y-76859436D01*
X125547619Y-76859436D02*
X125500000Y-76764198D01*
X125500000Y-76764198D02*
X125500000Y-76526103D01*
X125500000Y-76526103D02*
X125547619Y-76430865D01*
X125547619Y-76430865D02*
X125595238Y-76383246D01*
X125595238Y-76383246D02*
X125690476Y-76335627D01*
X125690476Y-76335627D02*
X125880952Y-76335627D01*
X125880952Y-76335627D02*
X125976190Y-76383246D01*
X125976190Y-76383246D02*
X126023809Y-76430865D01*
X126023809Y-76430865D02*
X126071428Y-76526103D01*
X125119047Y-76668960D02*
X124642857Y-76668960D01*
X125214285Y-76954675D02*
X124880952Y-75954675D01*
X124880952Y-75954675D02*
X124547619Y-76954675D01*
X123452380Y-76954675D02*
X123452380Y-75954675D01*
X123452380Y-75954675D02*
X123119047Y-76668960D01*
X123119047Y-76668960D02*
X122785714Y-75954675D01*
X122785714Y-75954675D02*
X122785714Y-76954675D01*
X122357142Y-76668960D02*
X121880952Y-76668960D01*
X122452380Y-76954675D02*
X122119047Y-75954675D01*
X122119047Y-75954675D02*
X121785714Y-76954675D01*
X121547618Y-75954675D02*
X120880952Y-76954675D01*
X120880952Y-75954675D02*
X121547618Y-76954675D01*
X127309523Y-77659857D02*
X127261904Y-77612238D01*
X127261904Y-77612238D02*
X127166666Y-77564619D01*
X127166666Y-77564619D02*
X126928571Y-77564619D01*
X126928571Y-77564619D02*
X126833333Y-77612238D01*
X126833333Y-77612238D02*
X126785714Y-77659857D01*
X126785714Y-77659857D02*
X126738095Y-77755095D01*
X126738095Y-77755095D02*
X126738095Y-77850333D01*
X126738095Y-77850333D02*
X126785714Y-77993190D01*
X126785714Y-77993190D02*
X127357142Y-78564619D01*
X127357142Y-78564619D02*
X126738095Y-78564619D01*
X125833333Y-77564619D02*
X126309523Y-77564619D01*
X126309523Y-77564619D02*
X126357142Y-78040809D01*
X126357142Y-78040809D02*
X126309523Y-77993190D01*
X126309523Y-77993190D02*
X126214285Y-77945571D01*
X126214285Y-77945571D02*
X125976190Y-77945571D01*
X125976190Y-77945571D02*
X125880952Y-77993190D01*
X125880952Y-77993190D02*
X125833333Y-78040809D01*
X125833333Y-78040809D02*
X125785714Y-78136047D01*
X125785714Y-78136047D02*
X125785714Y-78374142D01*
X125785714Y-78374142D02*
X125833333Y-78469380D01*
X125833333Y-78469380D02*
X125880952Y-78517000D01*
X125880952Y-78517000D02*
X125976190Y-78564619D01*
X125976190Y-78564619D02*
X126214285Y-78564619D01*
X126214285Y-78564619D02*
X126309523Y-78517000D01*
X126309523Y-78517000D02*
X126357142Y-78469380D01*
X125166666Y-77564619D02*
X125071428Y-77564619D01*
X125071428Y-77564619D02*
X124976190Y-77612238D01*
X124976190Y-77612238D02*
X124928571Y-77659857D01*
X124928571Y-77659857D02*
X124880952Y-77755095D01*
X124880952Y-77755095D02*
X124833333Y-77945571D01*
X124833333Y-77945571D02*
X124833333Y-78183666D01*
X124833333Y-78183666D02*
X124880952Y-78374142D01*
X124880952Y-78374142D02*
X124928571Y-78469380D01*
X124928571Y-78469380D02*
X124976190Y-78517000D01*
X124976190Y-78517000D02*
X125071428Y-78564619D01*
X125071428Y-78564619D02*
X125166666Y-78564619D01*
X125166666Y-78564619D02*
X125261904Y-78517000D01*
X125261904Y-78517000D02*
X125309523Y-78469380D01*
X125309523Y-78469380D02*
X125357142Y-78374142D01*
X125357142Y-78374142D02*
X125404761Y-78183666D01*
X125404761Y-78183666D02*
X125404761Y-77945571D01*
X125404761Y-77945571D02*
X125357142Y-77755095D01*
X125357142Y-77755095D02*
X125309523Y-77659857D01*
X125309523Y-77659857D02*
X125261904Y-77612238D01*
X125261904Y-77612238D02*
X125166666Y-77564619D01*
X124404761Y-78564619D02*
X124404761Y-77897952D01*
X124404761Y-77993190D02*
X124357142Y-77945571D01*
X124357142Y-77945571D02*
X124261904Y-77897952D01*
X124261904Y-77897952D02*
X124119047Y-77897952D01*
X124119047Y-77897952D02*
X124023809Y-77945571D01*
X124023809Y-77945571D02*
X123976190Y-78040809D01*
X123976190Y-78040809D02*
X123976190Y-78564619D01*
X123976190Y-78040809D02*
X123928571Y-77945571D01*
X123928571Y-77945571D02*
X123833333Y-77897952D01*
X123833333Y-77897952D02*
X123690476Y-77897952D01*
X123690476Y-77897952D02*
X123595237Y-77945571D01*
X123595237Y-77945571D02*
X123547618Y-78040809D01*
X123547618Y-78040809D02*
X123547618Y-78564619D01*
X123119047Y-78278904D02*
X122642857Y-78278904D01*
X123214285Y-78564619D02*
X122880952Y-77564619D01*
X122880952Y-77564619D02*
X122547619Y-78564619D01*
X121500000Y-77517000D02*
X122357142Y-78802714D01*
X120595238Y-78469380D02*
X120642857Y-78517000D01*
X120642857Y-78517000D02*
X120785714Y-78564619D01*
X120785714Y-78564619D02*
X120880952Y-78564619D01*
X120880952Y-78564619D02*
X121023809Y-78517000D01*
X121023809Y-78517000D02*
X121119047Y-78421761D01*
X121119047Y-78421761D02*
X121166666Y-78326523D01*
X121166666Y-78326523D02*
X121214285Y-78136047D01*
X121214285Y-78136047D02*
X121214285Y-77993190D01*
X121214285Y-77993190D02*
X121166666Y-77802714D01*
X121166666Y-77802714D02*
X121119047Y-77707476D01*
X121119047Y-77707476D02*
X121023809Y-77612238D01*
X121023809Y-77612238D02*
X120880952Y-77564619D01*
X120880952Y-77564619D02*
X120785714Y-77564619D01*
X120785714Y-77564619D02*
X120642857Y-77612238D01*
X120642857Y-77612238D02*
X120595238Y-77659857D01*
X120166666Y-78564619D02*
X120166666Y-77564619D01*
X119738095Y-78564619D02*
X119738095Y-78040809D01*
X119738095Y-78040809D02*
X119785714Y-77945571D01*
X119785714Y-77945571D02*
X119880952Y-77897952D01*
X119880952Y-77897952D02*
X120023809Y-77897952D01*
X120023809Y-77897952D02*
X120119047Y-77945571D01*
X120119047Y-77945571D02*
X120166666Y-77993190D01*
D11*
X131769826Y-89909522D02*
X131674588Y-90004760D01*
X131674588Y-90004760D02*
X131579350Y-90195236D01*
X131579350Y-90195236D02*
X131579350Y-90671427D01*
X131579350Y-90671427D02*
X131674588Y-90861903D01*
X131674588Y-90861903D02*
X131769826Y-90957141D01*
X131769826Y-90957141D02*
X131960302Y-91052379D01*
X131960302Y-91052379D02*
X132150778Y-91052379D01*
X132150778Y-91052379D02*
X132436492Y-90957141D01*
X132436492Y-90957141D02*
X133579350Y-89814284D01*
X133579350Y-89814284D02*
X133579350Y-91052379D01*
X132246016Y-92766665D02*
X133579350Y-92766665D01*
X131484112Y-92290474D02*
X132912683Y-91814284D01*
X132912683Y-91814284D02*
X132912683Y-93052379D01*
X133388873Y-96480951D02*
X133484112Y-96385713D01*
X133484112Y-96385713D02*
X133579350Y-96099999D01*
X133579350Y-96099999D02*
X133579350Y-95909523D01*
X133579350Y-95909523D02*
X133484112Y-95623808D01*
X133484112Y-95623808D02*
X133293635Y-95433332D01*
X133293635Y-95433332D02*
X133103159Y-95338094D01*
X133103159Y-95338094D02*
X132722207Y-95242856D01*
X132722207Y-95242856D02*
X132436492Y-95242856D01*
X132436492Y-95242856D02*
X132055540Y-95338094D01*
X132055540Y-95338094D02*
X131865064Y-95433332D01*
X131865064Y-95433332D02*
X131674588Y-95623808D01*
X131674588Y-95623808D02*
X131579350Y-95909523D01*
X131579350Y-95909523D02*
X131579350Y-96099999D01*
X131579350Y-96099999D02*
X131674588Y-96385713D01*
X131674588Y-96385713D02*
X131769826Y-96480951D01*
X133579350Y-97338094D02*
X131579350Y-97338094D01*
X133579350Y-98195237D02*
X132531731Y-98195237D01*
X132531731Y-98195237D02*
X132341254Y-98099999D01*
X132341254Y-98099999D02*
X132246016Y-97909523D01*
X132246016Y-97909523D02*
X132246016Y-97623808D01*
X132246016Y-97623808D02*
X132341254Y-97433332D01*
X132341254Y-97433332D02*
X132436492Y-97338094D01*
X133579350Y-100004761D02*
X132531731Y-100004761D01*
X132531731Y-100004761D02*
X132341254Y-99909523D01*
X132341254Y-99909523D02*
X132246016Y-99719047D01*
X132246016Y-99719047D02*
X132246016Y-99338094D01*
X132246016Y-99338094D02*
X132341254Y-99147618D01*
X133484112Y-100004761D02*
X133579350Y-99814285D01*
X133579350Y-99814285D02*
X133579350Y-99338094D01*
X133579350Y-99338094D02*
X133484112Y-99147618D01*
X133484112Y-99147618D02*
X133293635Y-99052380D01*
X133293635Y-99052380D02*
X133103159Y-99052380D01*
X133103159Y-99052380D02*
X132912683Y-99147618D01*
X132912683Y-99147618D02*
X132817445Y-99338094D01*
X132817445Y-99338094D02*
X132817445Y-99814285D01*
X132817445Y-99814285D02*
X132722207Y-100004761D01*
X132246016Y-100957142D02*
X133579350Y-100957142D01*
X132436492Y-100957142D02*
X132341254Y-101052380D01*
X132341254Y-101052380D02*
X132246016Y-101242856D01*
X132246016Y-101242856D02*
X132246016Y-101528571D01*
X132246016Y-101528571D02*
X132341254Y-101719047D01*
X132341254Y-101719047D02*
X132531731Y-101814285D01*
X132531731Y-101814285D02*
X133579350Y-101814285D01*
X132246016Y-102766666D02*
X133579350Y-102766666D01*
X132436492Y-102766666D02*
X132341254Y-102861904D01*
X132341254Y-102861904D02*
X132246016Y-103052380D01*
X132246016Y-103052380D02*
X132246016Y-103338095D01*
X132246016Y-103338095D02*
X132341254Y-103528571D01*
X132341254Y-103528571D02*
X132531731Y-103623809D01*
X132531731Y-103623809D02*
X133579350Y-103623809D01*
X133484112Y-105338095D02*
X133579350Y-105147619D01*
X133579350Y-105147619D02*
X133579350Y-104766666D01*
X133579350Y-104766666D02*
X133484112Y-104576190D01*
X133484112Y-104576190D02*
X133293635Y-104480952D01*
X133293635Y-104480952D02*
X132531731Y-104480952D01*
X132531731Y-104480952D02*
X132341254Y-104576190D01*
X132341254Y-104576190D02*
X132246016Y-104766666D01*
X132246016Y-104766666D02*
X132246016Y-105147619D01*
X132246016Y-105147619D02*
X132341254Y-105338095D01*
X132341254Y-105338095D02*
X132531731Y-105433333D01*
X132531731Y-105433333D02*
X132722207Y-105433333D01*
X132722207Y-105433333D02*
X132912683Y-104480952D01*
X133579350Y-106576190D02*
X133484112Y-106385714D01*
X133484112Y-106385714D02*
X133293635Y-106290476D01*
X133293635Y-106290476D02*
X131579350Y-106290476D01*
X133579350Y-110004762D02*
X132626969Y-109338095D01*
X133579350Y-108861905D02*
X131579350Y-108861905D01*
X131579350Y-108861905D02*
X131579350Y-109623810D01*
X131579350Y-109623810D02*
X131674588Y-109814286D01*
X131674588Y-109814286D02*
X131769826Y-109909524D01*
X131769826Y-109909524D02*
X131960302Y-110004762D01*
X131960302Y-110004762D02*
X132246016Y-110004762D01*
X132246016Y-110004762D02*
X132436492Y-109909524D01*
X132436492Y-109909524D02*
X132531731Y-109814286D01*
X132531731Y-109814286D02*
X132626969Y-109623810D01*
X132626969Y-109623810D02*
X132626969Y-108861905D01*
X133484112Y-111623810D02*
X133579350Y-111433334D01*
X133579350Y-111433334D02*
X133579350Y-111052381D01*
X133579350Y-111052381D02*
X133484112Y-110861905D01*
X133484112Y-110861905D02*
X133293635Y-110766667D01*
X133293635Y-110766667D02*
X132531731Y-110766667D01*
X132531731Y-110766667D02*
X132341254Y-110861905D01*
X132341254Y-110861905D02*
X132246016Y-111052381D01*
X132246016Y-111052381D02*
X132246016Y-111433334D01*
X132246016Y-111433334D02*
X132341254Y-111623810D01*
X132341254Y-111623810D02*
X132531731Y-111719048D01*
X132531731Y-111719048D02*
X132722207Y-111719048D01*
X132722207Y-111719048D02*
X132912683Y-110766667D01*
X133579350Y-112861905D02*
X133484112Y-112671429D01*
X133484112Y-112671429D02*
X133293635Y-112576191D01*
X133293635Y-112576191D02*
X131579350Y-112576191D01*
X133579350Y-114480953D02*
X132531731Y-114480953D01*
X132531731Y-114480953D02*
X132341254Y-114385715D01*
X132341254Y-114385715D02*
X132246016Y-114195239D01*
X132246016Y-114195239D02*
X132246016Y-113814286D01*
X132246016Y-113814286D02*
X132341254Y-113623810D01*
X133484112Y-114480953D02*
X133579350Y-114290477D01*
X133579350Y-114290477D02*
X133579350Y-113814286D01*
X133579350Y-113814286D02*
X133484112Y-113623810D01*
X133484112Y-113623810D02*
X133293635Y-113528572D01*
X133293635Y-113528572D02*
X133103159Y-113528572D01*
X133103159Y-113528572D02*
X132912683Y-113623810D01*
X132912683Y-113623810D02*
X132817445Y-113814286D01*
X132817445Y-113814286D02*
X132817445Y-114290477D01*
X132817445Y-114290477D02*
X132722207Y-114480953D01*
X132246016Y-115242858D02*
X133579350Y-115719048D01*
X132246016Y-116195239D02*
X133579350Y-115719048D01*
X133579350Y-115719048D02*
X134055540Y-115528572D01*
X134055540Y-115528572D02*
X134150778Y-115433334D01*
X134150778Y-115433334D02*
X134246016Y-115242858D01*
X133579350Y-118480954D02*
X131579350Y-118480954D01*
X131579350Y-118480954D02*
X131579350Y-118957144D01*
X131579350Y-118957144D02*
X131674588Y-119242859D01*
X131674588Y-119242859D02*
X131865064Y-119433335D01*
X131865064Y-119433335D02*
X132055540Y-119528573D01*
X132055540Y-119528573D02*
X132436492Y-119623811D01*
X132436492Y-119623811D02*
X132722207Y-119623811D01*
X132722207Y-119623811D02*
X133103159Y-119528573D01*
X133103159Y-119528573D02*
X133293635Y-119433335D01*
X133293635Y-119433335D02*
X133484112Y-119242859D01*
X133484112Y-119242859D02*
X133579350Y-118957144D01*
X133579350Y-118957144D02*
X133579350Y-118480954D01*
X133579350Y-120480954D02*
X132246016Y-120480954D01*
X132626969Y-120480954D02*
X132436492Y-120576192D01*
X132436492Y-120576192D02*
X132341254Y-120671430D01*
X132341254Y-120671430D02*
X132246016Y-120861906D01*
X132246016Y-120861906D02*
X132246016Y-121052383D01*
X133579350Y-121719049D02*
X132246016Y-121719049D01*
X131579350Y-121719049D02*
X131674588Y-121623811D01*
X131674588Y-121623811D02*
X131769826Y-121719049D01*
X131769826Y-121719049D02*
X131674588Y-121814287D01*
X131674588Y-121814287D02*
X131579350Y-121719049D01*
X131579350Y-121719049D02*
X131769826Y-121719049D01*
X132246016Y-122480954D02*
X133579350Y-122957144D01*
X133579350Y-122957144D02*
X132246016Y-123433335D01*
X133484112Y-124957145D02*
X133579350Y-124766669D01*
X133579350Y-124766669D02*
X133579350Y-124385716D01*
X133579350Y-124385716D02*
X133484112Y-124195240D01*
X133484112Y-124195240D02*
X133293635Y-124100002D01*
X133293635Y-124100002D02*
X132531731Y-124100002D01*
X132531731Y-124100002D02*
X132341254Y-124195240D01*
X132341254Y-124195240D02*
X132246016Y-124385716D01*
X132246016Y-124385716D02*
X132246016Y-124766669D01*
X132246016Y-124766669D02*
X132341254Y-124957145D01*
X132341254Y-124957145D02*
X132531731Y-125052383D01*
X132531731Y-125052383D02*
X132722207Y-125052383D01*
X132722207Y-125052383D02*
X132912683Y-124100002D01*
X133579350Y-125909526D02*
X132246016Y-125909526D01*
X132626969Y-125909526D02*
X132436492Y-126004764D01*
X132436492Y-126004764D02*
X132341254Y-126100002D01*
X132341254Y-126100002D02*
X132246016Y-126290478D01*
X132246016Y-126290478D02*
X132246016Y-126480955D01*
X136799238Y-94480951D02*
X135846857Y-93814284D01*
X136799238Y-93338094D02*
X134799238Y-93338094D01*
X134799238Y-93338094D02*
X134799238Y-94099999D01*
X134799238Y-94099999D02*
X134894476Y-94290475D01*
X134894476Y-94290475D02*
X134989714Y-94385713D01*
X134989714Y-94385713D02*
X135180190Y-94480951D01*
X135180190Y-94480951D02*
X135465904Y-94480951D01*
X135465904Y-94480951D02*
X135656380Y-94385713D01*
X135656380Y-94385713D02*
X135751619Y-94290475D01*
X135751619Y-94290475D02*
X135846857Y-94099999D01*
X135846857Y-94099999D02*
X135846857Y-93338094D01*
X136799238Y-95623808D02*
X136704000Y-95433332D01*
X136704000Y-95433332D02*
X136608761Y-95338094D01*
X136608761Y-95338094D02*
X136418285Y-95242856D01*
X136418285Y-95242856D02*
X135846857Y-95242856D01*
X135846857Y-95242856D02*
X135656380Y-95338094D01*
X135656380Y-95338094D02*
X135561142Y-95433332D01*
X135561142Y-95433332D02*
X135465904Y-95623808D01*
X135465904Y-95623808D02*
X135465904Y-95909523D01*
X135465904Y-95909523D02*
X135561142Y-96099999D01*
X135561142Y-96099999D02*
X135656380Y-96195237D01*
X135656380Y-96195237D02*
X135846857Y-96290475D01*
X135846857Y-96290475D02*
X136418285Y-96290475D01*
X136418285Y-96290475D02*
X136608761Y-96195237D01*
X136608761Y-96195237D02*
X136704000Y-96099999D01*
X136704000Y-96099999D02*
X136799238Y-95909523D01*
X136799238Y-95909523D02*
X136799238Y-95623808D01*
X136799238Y-97147618D02*
X134799238Y-97147618D01*
X135561142Y-97147618D02*
X135465904Y-97338094D01*
X135465904Y-97338094D02*
X135465904Y-97719047D01*
X135465904Y-97719047D02*
X135561142Y-97909523D01*
X135561142Y-97909523D02*
X135656380Y-98004761D01*
X135656380Y-98004761D02*
X135846857Y-98099999D01*
X135846857Y-98099999D02*
X136418285Y-98099999D01*
X136418285Y-98099999D02*
X136608761Y-98004761D01*
X136608761Y-98004761D02*
X136704000Y-97909523D01*
X136704000Y-97909523D02*
X136799238Y-97719047D01*
X136799238Y-97719047D02*
X136799238Y-97338094D01*
X136799238Y-97338094D02*
X136704000Y-97147618D01*
X136704000Y-99719047D02*
X136799238Y-99528571D01*
X136799238Y-99528571D02*
X136799238Y-99147618D01*
X136799238Y-99147618D02*
X136704000Y-98957142D01*
X136704000Y-98957142D02*
X136513523Y-98861904D01*
X136513523Y-98861904D02*
X135751619Y-98861904D01*
X135751619Y-98861904D02*
X135561142Y-98957142D01*
X135561142Y-98957142D02*
X135465904Y-99147618D01*
X135465904Y-99147618D02*
X135465904Y-99528571D01*
X135465904Y-99528571D02*
X135561142Y-99719047D01*
X135561142Y-99719047D02*
X135751619Y-99814285D01*
X135751619Y-99814285D02*
X135942095Y-99814285D01*
X135942095Y-99814285D02*
X136132571Y-98861904D01*
X136799238Y-100671428D02*
X135465904Y-100671428D01*
X135846857Y-100671428D02*
X135656380Y-100766666D01*
X135656380Y-100766666D02*
X135561142Y-100861904D01*
X135561142Y-100861904D02*
X135465904Y-101052380D01*
X135465904Y-101052380D02*
X135465904Y-101242857D01*
X135465904Y-101623809D02*
X135465904Y-102385713D01*
X134799238Y-101909523D02*
X136513523Y-101909523D01*
X136513523Y-101909523D02*
X136704000Y-102004761D01*
X136704000Y-102004761D02*
X136799238Y-102195237D01*
X136799238Y-102195237D02*
X136799238Y-102385713D01*
X136799238Y-105719047D02*
X135846857Y-105052380D01*
X136799238Y-104576190D02*
X134799238Y-104576190D01*
X134799238Y-104576190D02*
X134799238Y-105338095D01*
X134799238Y-105338095D02*
X134894476Y-105528571D01*
X134894476Y-105528571D02*
X134989714Y-105623809D01*
X134989714Y-105623809D02*
X135180190Y-105719047D01*
X135180190Y-105719047D02*
X135465904Y-105719047D01*
X135465904Y-105719047D02*
X135656380Y-105623809D01*
X135656380Y-105623809D02*
X135751619Y-105528571D01*
X135751619Y-105528571D02*
X135846857Y-105338095D01*
X135846857Y-105338095D02*
X135846857Y-104576190D01*
X136608761Y-106576190D02*
X136704000Y-106671428D01*
X136704000Y-106671428D02*
X136799238Y-106576190D01*
X136799238Y-106576190D02*
X136704000Y-106480952D01*
X136704000Y-106480952D02*
X136608761Y-106576190D01*
X136608761Y-106576190D02*
X136799238Y-106576190D01*
X136799238Y-109052381D02*
X134799238Y-109052381D01*
X134799238Y-109052381D02*
X134799238Y-109814286D01*
X134799238Y-109814286D02*
X134894476Y-110004762D01*
X134894476Y-110004762D02*
X134989714Y-110100000D01*
X134989714Y-110100000D02*
X135180190Y-110195238D01*
X135180190Y-110195238D02*
X135465904Y-110195238D01*
X135465904Y-110195238D02*
X135656380Y-110100000D01*
X135656380Y-110100000D02*
X135751619Y-110004762D01*
X135751619Y-110004762D02*
X135846857Y-109814286D01*
X135846857Y-109814286D02*
X135846857Y-109052381D01*
X135465904Y-111909524D02*
X136799238Y-111909524D01*
X135465904Y-111052381D02*
X136513523Y-111052381D01*
X136513523Y-111052381D02*
X136704000Y-111147619D01*
X136704000Y-111147619D02*
X136799238Y-111338095D01*
X136799238Y-111338095D02*
X136799238Y-111623810D01*
X136799238Y-111623810D02*
X136704000Y-111814286D01*
X136704000Y-111814286D02*
X136608761Y-111909524D01*
X136704000Y-113719048D02*
X136799238Y-113528572D01*
X136799238Y-113528572D02*
X136799238Y-113147619D01*
X136799238Y-113147619D02*
X136704000Y-112957143D01*
X136704000Y-112957143D02*
X136608761Y-112861905D01*
X136608761Y-112861905D02*
X136418285Y-112766667D01*
X136418285Y-112766667D02*
X135846857Y-112766667D01*
X135846857Y-112766667D02*
X135656380Y-112861905D01*
X135656380Y-112861905D02*
X135561142Y-112957143D01*
X135561142Y-112957143D02*
X135465904Y-113147619D01*
X135465904Y-113147619D02*
X135465904Y-113528572D01*
X135465904Y-113528572D02*
X135561142Y-113719048D01*
X136704000Y-115433334D02*
X136799238Y-115242858D01*
X136799238Y-115242858D02*
X136799238Y-114861905D01*
X136799238Y-114861905D02*
X136704000Y-114671429D01*
X136704000Y-114671429D02*
X136608761Y-114576191D01*
X136608761Y-114576191D02*
X136418285Y-114480953D01*
X136418285Y-114480953D02*
X135846857Y-114480953D01*
X135846857Y-114480953D02*
X135656380Y-114576191D01*
X135656380Y-114576191D02*
X135561142Y-114671429D01*
X135561142Y-114671429D02*
X135465904Y-114861905D01*
X135465904Y-114861905D02*
X135465904Y-115242858D01*
X135465904Y-115242858D02*
X135561142Y-115433334D01*
X136799238Y-116290477D02*
X135465904Y-116290477D01*
X134799238Y-116290477D02*
X134894476Y-116195239D01*
X134894476Y-116195239D02*
X134989714Y-116290477D01*
X134989714Y-116290477D02*
X134894476Y-116385715D01*
X134894476Y-116385715D02*
X134799238Y-116290477D01*
X134799238Y-116290477D02*
X134989714Y-116290477D01*
X135465904Y-117242858D02*
X136799238Y-117242858D01*
X135656380Y-117242858D02*
X135561142Y-117338096D01*
X135561142Y-117338096D02*
X135465904Y-117528572D01*
X135465904Y-117528572D02*
X135465904Y-117814287D01*
X135465904Y-117814287D02*
X135561142Y-118004763D01*
X135561142Y-118004763D02*
X135751619Y-118100001D01*
X135751619Y-118100001D02*
X136799238Y-118100001D01*
X136704000Y-119814287D02*
X136799238Y-119623811D01*
X136799238Y-119623811D02*
X136799238Y-119242858D01*
X136799238Y-119242858D02*
X136704000Y-119052382D01*
X136704000Y-119052382D02*
X136513523Y-118957144D01*
X136513523Y-118957144D02*
X135751619Y-118957144D01*
X135751619Y-118957144D02*
X135561142Y-119052382D01*
X135561142Y-119052382D02*
X135465904Y-119242858D01*
X135465904Y-119242858D02*
X135465904Y-119623811D01*
X135465904Y-119623811D02*
X135561142Y-119814287D01*
X135561142Y-119814287D02*
X135751619Y-119909525D01*
X135751619Y-119909525D02*
X135942095Y-119909525D01*
X135942095Y-119909525D02*
X136132571Y-118957144D01*
X136799238Y-121052382D02*
X136704000Y-120861906D01*
X136704000Y-120861906D02*
X136513523Y-120766668D01*
X136513523Y-120766668D02*
X134799238Y-120766668D01*
X136799238Y-122100001D02*
X136704000Y-121909525D01*
X136704000Y-121909525D02*
X136513523Y-121814287D01*
X136513523Y-121814287D02*
X134799238Y-121814287D01*
X136799238Y-122861906D02*
X135465904Y-122861906D01*
X134799238Y-122861906D02*
X134894476Y-122766668D01*
X134894476Y-122766668D02*
X134989714Y-122861906D01*
X134989714Y-122861906D02*
X134894476Y-122957144D01*
X134894476Y-122957144D02*
X134799238Y-122861906D01*
X134799238Y-122861906D02*
X134989714Y-122861906D01*
X140019126Y-95099998D02*
X139066745Y-94433331D01*
X140019126Y-93957141D02*
X138019126Y-93957141D01*
X138019126Y-93957141D02*
X138019126Y-94719046D01*
X138019126Y-94719046D02*
X138114364Y-94909522D01*
X138114364Y-94909522D02*
X138209602Y-95004760D01*
X138209602Y-95004760D02*
X138400078Y-95099998D01*
X138400078Y-95099998D02*
X138685792Y-95099998D01*
X138685792Y-95099998D02*
X138876268Y-95004760D01*
X138876268Y-95004760D02*
X138971507Y-94909522D01*
X138971507Y-94909522D02*
X139066745Y-94719046D01*
X139066745Y-94719046D02*
X139066745Y-93957141D01*
X139923888Y-96719046D02*
X140019126Y-96528570D01*
X140019126Y-96528570D02*
X140019126Y-96147617D01*
X140019126Y-96147617D02*
X139923888Y-95957141D01*
X139923888Y-95957141D02*
X139733411Y-95861903D01*
X139733411Y-95861903D02*
X138971507Y-95861903D01*
X138971507Y-95861903D02*
X138781030Y-95957141D01*
X138781030Y-95957141D02*
X138685792Y-96147617D01*
X138685792Y-96147617D02*
X138685792Y-96528570D01*
X138685792Y-96528570D02*
X138781030Y-96719046D01*
X138781030Y-96719046D02*
X138971507Y-96814284D01*
X138971507Y-96814284D02*
X139161983Y-96814284D01*
X139161983Y-96814284D02*
X139352459Y-95861903D01*
X138685792Y-97480951D02*
X140019126Y-97957141D01*
X140019126Y-97957141D02*
X138685792Y-98433332D01*
X139447697Y-100623809D02*
X139447697Y-101576190D01*
X140019126Y-100433333D02*
X138019126Y-101099999D01*
X138019126Y-101099999D02*
X140019126Y-101766666D01*
X139257221Y-103957143D02*
X139257221Y-105480953D01*
X138209602Y-107861905D02*
X138114364Y-107957143D01*
X138114364Y-107957143D02*
X138019126Y-108147619D01*
X138019126Y-108147619D02*
X138019126Y-108623810D01*
X138019126Y-108623810D02*
X138114364Y-108814286D01*
X138114364Y-108814286D02*
X138209602Y-108909524D01*
X138209602Y-108909524D02*
X138400078Y-109004762D01*
X138400078Y-109004762D02*
X138590554Y-109004762D01*
X138590554Y-109004762D02*
X138876268Y-108909524D01*
X138876268Y-108909524D02*
X140019126Y-107766667D01*
X140019126Y-107766667D02*
X140019126Y-109004762D01*
X138019126Y-110242857D02*
X138019126Y-110433334D01*
X138019126Y-110433334D02*
X138114364Y-110623810D01*
X138114364Y-110623810D02*
X138209602Y-110719048D01*
X138209602Y-110719048D02*
X138400078Y-110814286D01*
X138400078Y-110814286D02*
X138781030Y-110909524D01*
X138781030Y-110909524D02*
X139257221Y-110909524D01*
X139257221Y-110909524D02*
X139638173Y-110814286D01*
X139638173Y-110814286D02*
X139828649Y-110719048D01*
X139828649Y-110719048D02*
X139923888Y-110623810D01*
X139923888Y-110623810D02*
X140019126Y-110433334D01*
X140019126Y-110433334D02*
X140019126Y-110242857D01*
X140019126Y-110242857D02*
X139923888Y-110052381D01*
X139923888Y-110052381D02*
X139828649Y-109957143D01*
X139828649Y-109957143D02*
X139638173Y-109861905D01*
X139638173Y-109861905D02*
X139257221Y-109766667D01*
X139257221Y-109766667D02*
X138781030Y-109766667D01*
X138781030Y-109766667D02*
X138400078Y-109861905D01*
X138400078Y-109861905D02*
X138209602Y-109957143D01*
X138209602Y-109957143D02*
X138114364Y-110052381D01*
X138114364Y-110052381D02*
X138019126Y-110242857D01*
X138209602Y-111671429D02*
X138114364Y-111766667D01*
X138114364Y-111766667D02*
X138019126Y-111957143D01*
X138019126Y-111957143D02*
X138019126Y-112433334D01*
X138019126Y-112433334D02*
X138114364Y-112623810D01*
X138114364Y-112623810D02*
X138209602Y-112719048D01*
X138209602Y-112719048D02*
X138400078Y-112814286D01*
X138400078Y-112814286D02*
X138590554Y-112814286D01*
X138590554Y-112814286D02*
X138876268Y-112719048D01*
X138876268Y-112719048D02*
X140019126Y-111576191D01*
X140019126Y-111576191D02*
X140019126Y-112814286D01*
X138019126Y-114623810D02*
X138019126Y-113671429D01*
X138019126Y-113671429D02*
X138971507Y-113576191D01*
X138971507Y-113576191D02*
X138876268Y-113671429D01*
X138876268Y-113671429D02*
X138781030Y-113861905D01*
X138781030Y-113861905D02*
X138781030Y-114338096D01*
X138781030Y-114338096D02*
X138876268Y-114528572D01*
X138876268Y-114528572D02*
X138971507Y-114623810D01*
X138971507Y-114623810D02*
X139161983Y-114719048D01*
X139161983Y-114719048D02*
X139638173Y-114719048D01*
X139638173Y-114719048D02*
X139828649Y-114623810D01*
X139828649Y-114623810D02*
X139923888Y-114528572D01*
X139923888Y-114528572D02*
X140019126Y-114338096D01*
X140019126Y-114338096D02*
X140019126Y-113861905D01*
X140019126Y-113861905D02*
X139923888Y-113671429D01*
X139923888Y-113671429D02*
X139828649Y-113576191D01*
X138019126Y-115957143D02*
X138019126Y-116147620D01*
X138019126Y-116147620D02*
X138114364Y-116338096D01*
X138114364Y-116338096D02*
X138209602Y-116433334D01*
X138209602Y-116433334D02*
X138400078Y-116528572D01*
X138400078Y-116528572D02*
X138781030Y-116623810D01*
X138781030Y-116623810D02*
X139257221Y-116623810D01*
X139257221Y-116623810D02*
X139638173Y-116528572D01*
X139638173Y-116528572D02*
X139828649Y-116433334D01*
X139828649Y-116433334D02*
X139923888Y-116338096D01*
X139923888Y-116338096D02*
X140019126Y-116147620D01*
X140019126Y-116147620D02*
X140019126Y-115957143D01*
X140019126Y-115957143D02*
X139923888Y-115766667D01*
X139923888Y-115766667D02*
X139828649Y-115671429D01*
X139828649Y-115671429D02*
X139638173Y-115576191D01*
X139638173Y-115576191D02*
X139257221Y-115480953D01*
X139257221Y-115480953D02*
X138781030Y-115480953D01*
X138781030Y-115480953D02*
X138400078Y-115576191D01*
X138400078Y-115576191D02*
X138209602Y-115671429D01*
X138209602Y-115671429D02*
X138114364Y-115766667D01*
X138114364Y-115766667D02*
X138019126Y-115957143D01*
X138209602Y-117385715D02*
X138114364Y-117480953D01*
X138114364Y-117480953D02*
X138019126Y-117671429D01*
X138019126Y-117671429D02*
X138019126Y-118147620D01*
X138019126Y-118147620D02*
X138114364Y-118338096D01*
X138114364Y-118338096D02*
X138209602Y-118433334D01*
X138209602Y-118433334D02*
X138400078Y-118528572D01*
X138400078Y-118528572D02*
X138590554Y-118528572D01*
X138590554Y-118528572D02*
X138876268Y-118433334D01*
X138876268Y-118433334D02*
X140019126Y-117290477D01*
X140019126Y-117290477D02*
X140019126Y-118528572D01*
X140019126Y-120433334D02*
X140019126Y-119290477D01*
X140019126Y-119861905D02*
X138019126Y-119861905D01*
X138019126Y-119861905D02*
X138304840Y-119671429D01*
X138304840Y-119671429D02*
X138495316Y-119480953D01*
X138495316Y-119480953D02*
X138590554Y-119290477D01*
X138019126Y-121671429D02*
X138019126Y-121861906D01*
X138019126Y-121861906D02*
X138114364Y-122052382D01*
X138114364Y-122052382D02*
X138209602Y-122147620D01*
X138209602Y-122147620D02*
X138400078Y-122242858D01*
X138400078Y-122242858D02*
X138781030Y-122338096D01*
X138781030Y-122338096D02*
X139257221Y-122338096D01*
X139257221Y-122338096D02*
X139638173Y-122242858D01*
X139638173Y-122242858D02*
X139828649Y-122147620D01*
X139828649Y-122147620D02*
X139923888Y-122052382D01*
X139923888Y-122052382D02*
X140019126Y-121861906D01*
X140019126Y-121861906D02*
X140019126Y-121671429D01*
X140019126Y-121671429D02*
X139923888Y-121480953D01*
X139923888Y-121480953D02*
X139828649Y-121385715D01*
X139828649Y-121385715D02*
X139638173Y-121290477D01*
X139638173Y-121290477D02*
X139257221Y-121195239D01*
X139257221Y-121195239D02*
X138781030Y-121195239D01*
X138781030Y-121195239D02*
X138400078Y-121290477D01*
X138400078Y-121290477D02*
X138209602Y-121385715D01*
X138209602Y-121385715D02*
X138114364Y-121480953D01*
X138114364Y-121480953D02*
X138019126Y-121671429D01*
D12*
X147019600Y-78622054D02*
X147067219Y-78764911D01*
X147067219Y-78764911D02*
X147067219Y-79003006D01*
X147067219Y-79003006D02*
X147019600Y-79098244D01*
X147019600Y-79098244D02*
X146971980Y-79145863D01*
X146971980Y-79145863D02*
X146876742Y-79193482D01*
X146876742Y-79193482D02*
X146781504Y-79193482D01*
X146781504Y-79193482D02*
X146686266Y-79145863D01*
X146686266Y-79145863D02*
X146638647Y-79098244D01*
X146638647Y-79098244D02*
X146591028Y-79003006D01*
X146591028Y-79003006D02*
X146543409Y-78812530D01*
X146543409Y-78812530D02*
X146495790Y-78717292D01*
X146495790Y-78717292D02*
X146448171Y-78669673D01*
X146448171Y-78669673D02*
X146352933Y-78622054D01*
X146352933Y-78622054D02*
X146257695Y-78622054D01*
X146257695Y-78622054D02*
X146162457Y-78669673D01*
X146162457Y-78669673D02*
X146114838Y-78717292D01*
X146114838Y-78717292D02*
X146067219Y-78812530D01*
X146067219Y-78812530D02*
X146067219Y-79050625D01*
X146067219Y-79050625D02*
X146114838Y-79193482D01*
X147019600Y-79574435D02*
X147067219Y-79717292D01*
X147067219Y-79717292D02*
X147067219Y-79955387D01*
X147067219Y-79955387D02*
X147019600Y-80050625D01*
X147019600Y-80050625D02*
X146971980Y-80098244D01*
X146971980Y-80098244D02*
X146876742Y-80145863D01*
X146876742Y-80145863D02*
X146781504Y-80145863D01*
X146781504Y-80145863D02*
X146686266Y-80098244D01*
X146686266Y-80098244D02*
X146638647Y-80050625D01*
X146638647Y-80050625D02*
X146591028Y-79955387D01*
X146591028Y-79955387D02*
X146543409Y-79764911D01*
X146543409Y-79764911D02*
X146495790Y-79669673D01*
X146495790Y-79669673D02*
X146448171Y-79622054D01*
X146448171Y-79622054D02*
X146352933Y-79574435D01*
X146352933Y-79574435D02*
X146257695Y-79574435D01*
X146257695Y-79574435D02*
X146162457Y-79622054D01*
X146162457Y-79622054D02*
X146114838Y-79669673D01*
X146114838Y-79669673D02*
X146067219Y-79764911D01*
X146067219Y-79764911D02*
X146067219Y-80003006D01*
X146067219Y-80003006D02*
X146114838Y-80145863D01*
X146067219Y-80764911D02*
X146067219Y-80860149D01*
X146067219Y-80860149D02*
X146114838Y-80955387D01*
X146114838Y-80955387D02*
X146162457Y-81003006D01*
X146162457Y-81003006D02*
X146257695Y-81050625D01*
X146257695Y-81050625D02*
X146448171Y-81098244D01*
X146448171Y-81098244D02*
X146686266Y-81098244D01*
X146686266Y-81098244D02*
X146876742Y-81050625D01*
X146876742Y-81050625D02*
X146971980Y-81003006D01*
X146971980Y-81003006D02*
X147019600Y-80955387D01*
X147019600Y-80955387D02*
X147067219Y-80860149D01*
X147067219Y-80860149D02*
X147067219Y-80764911D01*
X147067219Y-80764911D02*
X147019600Y-80669673D01*
X147019600Y-80669673D02*
X146971980Y-80622054D01*
X146971980Y-80622054D02*
X146876742Y-80574435D01*
X146876742Y-80574435D02*
X146686266Y-80526816D01*
X146686266Y-80526816D02*
X146448171Y-80526816D01*
X146448171Y-80526816D02*
X146257695Y-80574435D01*
X146257695Y-80574435D02*
X146162457Y-80622054D01*
X146162457Y-80622054D02*
X146114838Y-80669673D01*
X146114838Y-80669673D02*
X146067219Y-80764911D01*
X145789600Y-78531578D02*
X145789600Y-81188721D01*
X139067219Y-78669673D02*
X138067219Y-78669673D01*
X138067219Y-78669673D02*
X138781504Y-79003006D01*
X138781504Y-79003006D02*
X138067219Y-79336339D01*
X138067219Y-79336339D02*
X139067219Y-79336339D01*
X139067219Y-79812530D02*
X138067219Y-79812530D01*
X139019600Y-80241101D02*
X139067219Y-80383958D01*
X139067219Y-80383958D02*
X139067219Y-80622053D01*
X139067219Y-80622053D02*
X139019600Y-80717291D01*
X139019600Y-80717291D02*
X138971980Y-80764910D01*
X138971980Y-80764910D02*
X138876742Y-80812529D01*
X138876742Y-80812529D02*
X138781504Y-80812529D01*
X138781504Y-80812529D02*
X138686266Y-80764910D01*
X138686266Y-80764910D02*
X138638647Y-80717291D01*
X138638647Y-80717291D02*
X138591028Y-80622053D01*
X138591028Y-80622053D02*
X138543409Y-80431577D01*
X138543409Y-80431577D02*
X138495790Y-80336339D01*
X138495790Y-80336339D02*
X138448171Y-80288720D01*
X138448171Y-80288720D02*
X138352933Y-80241101D01*
X138352933Y-80241101D02*
X138257695Y-80241101D01*
X138257695Y-80241101D02*
X138162457Y-80288720D01*
X138162457Y-80288720D02*
X138114838Y-80336339D01*
X138114838Y-80336339D02*
X138067219Y-80431577D01*
X138067219Y-80431577D02*
X138067219Y-80669672D01*
X138067219Y-80669672D02*
X138114838Y-80812529D01*
X138067219Y-81431577D02*
X138067219Y-81622053D01*
X138067219Y-81622053D02*
X138114838Y-81717291D01*
X138114838Y-81717291D02*
X138210076Y-81812529D01*
X138210076Y-81812529D02*
X138400552Y-81860148D01*
X138400552Y-81860148D02*
X138733885Y-81860148D01*
X138733885Y-81860148D02*
X138924361Y-81812529D01*
X138924361Y-81812529D02*
X139019600Y-81717291D01*
X139019600Y-81717291D02*
X139067219Y-81622053D01*
X139067219Y-81622053D02*
X139067219Y-81431577D01*
X139067219Y-81431577D02*
X139019600Y-81336339D01*
X139019600Y-81336339D02*
X138924361Y-81241101D01*
X138924361Y-81241101D02*
X138733885Y-81193482D01*
X138733885Y-81193482D02*
X138400552Y-81193482D01*
X138400552Y-81193482D02*
X138210076Y-81241101D01*
X138210076Y-81241101D02*
X138114838Y-81336339D01*
X138114838Y-81336339D02*
X138067219Y-81431577D01*
X143514838Y-63393482D02*
X143467219Y-63298244D01*
X143467219Y-63298244D02*
X143467219Y-63155387D01*
X143467219Y-63155387D02*
X143514838Y-63012530D01*
X143514838Y-63012530D02*
X143610076Y-62917292D01*
X143610076Y-62917292D02*
X143705314Y-62869673D01*
X143705314Y-62869673D02*
X143895790Y-62822054D01*
X143895790Y-62822054D02*
X144038647Y-62822054D01*
X144038647Y-62822054D02*
X144229123Y-62869673D01*
X144229123Y-62869673D02*
X144324361Y-62917292D01*
X144324361Y-62917292D02*
X144419600Y-63012530D01*
X144419600Y-63012530D02*
X144467219Y-63155387D01*
X144467219Y-63155387D02*
X144467219Y-63250625D01*
X144467219Y-63250625D02*
X144419600Y-63393482D01*
X144419600Y-63393482D02*
X144371980Y-63441101D01*
X144371980Y-63441101D02*
X144038647Y-63441101D01*
X144038647Y-63441101D02*
X144038647Y-63250625D01*
X144467219Y-63869673D02*
X143467219Y-63869673D01*
X143467219Y-63869673D02*
X144467219Y-64441101D01*
X144467219Y-64441101D02*
X143467219Y-64441101D01*
X144467219Y-64917292D02*
X143467219Y-64917292D01*
X143467219Y-64917292D02*
X143467219Y-65155387D01*
X143467219Y-65155387D02*
X143514838Y-65298244D01*
X143514838Y-65298244D02*
X143610076Y-65393482D01*
X143610076Y-65393482D02*
X143705314Y-65441101D01*
X143705314Y-65441101D02*
X143895790Y-65488720D01*
X143895790Y-65488720D02*
X144038647Y-65488720D01*
X144038647Y-65488720D02*
X144229123Y-65441101D01*
X144229123Y-65441101D02*
X144324361Y-65393482D01*
X144324361Y-65393482D02*
X144419600Y-65298244D01*
X144419600Y-65298244D02*
X144467219Y-65155387D01*
X144467219Y-65155387D02*
X144467219Y-64917292D01*
X138567219Y-62874435D02*
X138567219Y-63493482D01*
X138567219Y-63493482D02*
X138948171Y-63160149D01*
X138948171Y-63160149D02*
X138948171Y-63303006D01*
X138948171Y-63303006D02*
X138995790Y-63398244D01*
X138995790Y-63398244D02*
X139043409Y-63445863D01*
X139043409Y-63445863D02*
X139138647Y-63493482D01*
X139138647Y-63493482D02*
X139376742Y-63493482D01*
X139376742Y-63493482D02*
X139471980Y-63445863D01*
X139471980Y-63445863D02*
X139519600Y-63398244D01*
X139519600Y-63398244D02*
X139567219Y-63303006D01*
X139567219Y-63303006D02*
X139567219Y-63017292D01*
X139567219Y-63017292D02*
X139519600Y-62922054D01*
X139519600Y-62922054D02*
X139471980Y-62874435D01*
X138567219Y-63779197D02*
X139567219Y-64112530D01*
X139567219Y-64112530D02*
X138567219Y-64445863D01*
X138567219Y-64683959D02*
X138567219Y-65303006D01*
X138567219Y-65303006D02*
X138948171Y-64969673D01*
X138948171Y-64969673D02*
X138948171Y-65112530D01*
X138948171Y-65112530D02*
X138995790Y-65207768D01*
X138995790Y-65207768D02*
X139043409Y-65255387D01*
X139043409Y-65255387D02*
X139138647Y-65303006D01*
X139138647Y-65303006D02*
X139376742Y-65303006D01*
X139376742Y-65303006D02*
X139471980Y-65255387D01*
X139471980Y-65255387D02*
X139519600Y-65207768D01*
X139519600Y-65207768D02*
X139567219Y-65112530D01*
X139567219Y-65112530D02*
X139567219Y-64826816D01*
X139567219Y-64826816D02*
X139519600Y-64731578D01*
X139519600Y-64731578D02*
X139471980Y-64683959D01*
X137019600Y-78622054D02*
X137067219Y-78764911D01*
X137067219Y-78764911D02*
X137067219Y-79003006D01*
X137067219Y-79003006D02*
X137019600Y-79098244D01*
X137019600Y-79098244D02*
X136971980Y-79145863D01*
X136971980Y-79145863D02*
X136876742Y-79193482D01*
X136876742Y-79193482D02*
X136781504Y-79193482D01*
X136781504Y-79193482D02*
X136686266Y-79145863D01*
X136686266Y-79145863D02*
X136638647Y-79098244D01*
X136638647Y-79098244D02*
X136591028Y-79003006D01*
X136591028Y-79003006D02*
X136543409Y-78812530D01*
X136543409Y-78812530D02*
X136495790Y-78717292D01*
X136495790Y-78717292D02*
X136448171Y-78669673D01*
X136448171Y-78669673D02*
X136352933Y-78622054D01*
X136352933Y-78622054D02*
X136257695Y-78622054D01*
X136257695Y-78622054D02*
X136162457Y-78669673D01*
X136162457Y-78669673D02*
X136114838Y-78717292D01*
X136114838Y-78717292D02*
X136067219Y-78812530D01*
X136067219Y-78812530D02*
X136067219Y-79050625D01*
X136067219Y-79050625D02*
X136114838Y-79193482D01*
X136971980Y-80193482D02*
X137019600Y-80145863D01*
X137019600Y-80145863D02*
X137067219Y-80003006D01*
X137067219Y-80003006D02*
X137067219Y-79907768D01*
X137067219Y-79907768D02*
X137019600Y-79764911D01*
X137019600Y-79764911D02*
X136924361Y-79669673D01*
X136924361Y-79669673D02*
X136829123Y-79622054D01*
X136829123Y-79622054D02*
X136638647Y-79574435D01*
X136638647Y-79574435D02*
X136495790Y-79574435D01*
X136495790Y-79574435D02*
X136305314Y-79622054D01*
X136305314Y-79622054D02*
X136210076Y-79669673D01*
X136210076Y-79669673D02*
X136114838Y-79764911D01*
X136114838Y-79764911D02*
X136067219Y-79907768D01*
X136067219Y-79907768D02*
X136067219Y-80003006D01*
X136067219Y-80003006D02*
X136114838Y-80145863D01*
X136114838Y-80145863D02*
X136162457Y-80193482D01*
X137067219Y-81098244D02*
X137067219Y-80622054D01*
X137067219Y-80622054D02*
X136067219Y-80622054D01*
X137067219Y-81431578D02*
X136067219Y-81431578D01*
X137067219Y-82003006D02*
X136495790Y-81574435D01*
X136067219Y-82003006D02*
X136638647Y-81431578D01*
X140867219Y-62926816D02*
X141867219Y-63260149D01*
X141867219Y-63260149D02*
X140867219Y-63593482D01*
X141977695Y-63879197D02*
X141177695Y-63879197D01*
X141177695Y-63879197D02*
X141177695Y-64183959D01*
X141177695Y-64183959D02*
X141215790Y-64260149D01*
X141215790Y-64260149D02*
X141253885Y-64298244D01*
X141253885Y-64298244D02*
X141330076Y-64336340D01*
X141330076Y-64336340D02*
X141444361Y-64336340D01*
X141444361Y-64336340D02*
X141520552Y-64298244D01*
X141520552Y-64298244D02*
X141558647Y-64260149D01*
X141558647Y-64260149D02*
X141596742Y-64183959D01*
X141596742Y-64183959D02*
X141596742Y-63879197D01*
X141977695Y-64679197D02*
X141177695Y-64679197D01*
X141177695Y-64679197D02*
X141177695Y-64983959D01*
X141177695Y-64983959D02*
X141215790Y-65060149D01*
X141215790Y-65060149D02*
X141253885Y-65098244D01*
X141253885Y-65098244D02*
X141330076Y-65136340D01*
X141330076Y-65136340D02*
X141444361Y-65136340D01*
X141444361Y-65136340D02*
X141520552Y-65098244D01*
X141520552Y-65098244D02*
X141558647Y-65060149D01*
X141558647Y-65060149D02*
X141596742Y-64983959D01*
X141596742Y-64983959D02*
X141596742Y-64679197D01*
X141067219Y-78669673D02*
X140067219Y-78669673D01*
X140067219Y-78669673D02*
X140781504Y-79003006D01*
X140781504Y-79003006D02*
X140067219Y-79336339D01*
X140067219Y-79336339D02*
X141067219Y-79336339D01*
X140067219Y-80003006D02*
X140067219Y-80193482D01*
X140067219Y-80193482D02*
X140114838Y-80288720D01*
X140114838Y-80288720D02*
X140210076Y-80383958D01*
X140210076Y-80383958D02*
X140400552Y-80431577D01*
X140400552Y-80431577D02*
X140733885Y-80431577D01*
X140733885Y-80431577D02*
X140924361Y-80383958D01*
X140924361Y-80383958D02*
X141019600Y-80288720D01*
X141019600Y-80288720D02*
X141067219Y-80193482D01*
X141067219Y-80193482D02*
X141067219Y-80003006D01*
X141067219Y-80003006D02*
X141019600Y-79907768D01*
X141019600Y-79907768D02*
X140924361Y-79812530D01*
X140924361Y-79812530D02*
X140733885Y-79764911D01*
X140733885Y-79764911D02*
X140400552Y-79764911D01*
X140400552Y-79764911D02*
X140210076Y-79812530D01*
X140210076Y-79812530D02*
X140114838Y-79907768D01*
X140114838Y-79907768D02*
X140067219Y-80003006D01*
X141019600Y-80812530D02*
X141067219Y-80955387D01*
X141067219Y-80955387D02*
X141067219Y-81193482D01*
X141067219Y-81193482D02*
X141019600Y-81288720D01*
X141019600Y-81288720D02*
X140971980Y-81336339D01*
X140971980Y-81336339D02*
X140876742Y-81383958D01*
X140876742Y-81383958D02*
X140781504Y-81383958D01*
X140781504Y-81383958D02*
X140686266Y-81336339D01*
X140686266Y-81336339D02*
X140638647Y-81288720D01*
X140638647Y-81288720D02*
X140591028Y-81193482D01*
X140591028Y-81193482D02*
X140543409Y-81003006D01*
X140543409Y-81003006D02*
X140495790Y-80907768D01*
X140495790Y-80907768D02*
X140448171Y-80860149D01*
X140448171Y-80860149D02*
X140352933Y-80812530D01*
X140352933Y-80812530D02*
X140257695Y-80812530D01*
X140257695Y-80812530D02*
X140162457Y-80860149D01*
X140162457Y-80860149D02*
X140114838Y-80907768D01*
X140114838Y-80907768D02*
X140067219Y-81003006D01*
X140067219Y-81003006D02*
X140067219Y-81241101D01*
X140067219Y-81241101D02*
X140114838Y-81383958D01*
X141067219Y-81812530D02*
X140067219Y-81812530D01*
M02*
