%TF.GenerationSoftware,KiCad,Pcbnew,8.0.5*%
%TF.CreationDate,2025-02-14T14:12:51-08:00*%
%TF.ProjectId,RelayDriver,52656c61-7944-4726-9976-65722e6b6963,A*%
%TF.SameCoordinates,Original*%
%TF.FileFunction,Soldermask,Top*%
%TF.FilePolarity,Negative*%
%FSLAX46Y46*%
G04 Gerber Fmt 4.6, Leading zero omitted, Abs format (unit mm)*
G04 Created by KiCad (PCBNEW 8.0.5) date 2025-02-14 14:12:51*
%MOMM*%
%LPD*%
G01*
G04 APERTURE LIST*
G04 Aperture macros list*
%AMRoundRect*
0 Rectangle with rounded corners*
0 $1 Rounding radius*
0 $2 $3 $4 $5 $6 $7 $8 $9 X,Y pos of 4 corners*
0 Add a 4 corners polygon primitive as box body*
4,1,4,$2,$3,$4,$5,$6,$7,$8,$9,$2,$3,0*
0 Add four circle primitives for the rounded corners*
1,1,$1+$1,$2,$3*
1,1,$1+$1,$4,$5*
1,1,$1+$1,$6,$7*
1,1,$1+$1,$8,$9*
0 Add four rect primitives between the rounded corners*
20,1,$1+$1,$2,$3,$4,$5,0*
20,1,$1+$1,$4,$5,$6,$7,0*
20,1,$1+$1,$6,$7,$8,$9,0*
20,1,$1+$1,$8,$9,$2,$3,0*%
G04 Aperture macros list end*
%ADD10RoundRect,0.135000X-0.185000X0.135000X-0.185000X-0.135000X0.185000X-0.135000X0.185000X0.135000X0*%
%ADD11RoundRect,0.140000X0.140000X0.170000X-0.140000X0.170000X-0.140000X-0.170000X0.140000X-0.170000X0*%
%ADD12RoundRect,0.140000X-0.140000X-0.170000X0.140000X-0.170000X0.140000X0.170000X-0.140000X0.170000X0*%
%ADD13RoundRect,0.225000X0.375000X-0.225000X0.375000X0.225000X-0.375000X0.225000X-0.375000X-0.225000X0*%
%ADD14RoundRect,0.140000X0.170000X-0.140000X0.170000X0.140000X-0.170000X0.140000X-0.170000X-0.140000X0*%
%ADD15RoundRect,0.147500X0.172500X-0.147500X0.172500X0.147500X-0.172500X0.147500X-0.172500X-0.147500X0*%
%ADD16R,1.000000X1.000000*%
%ADD17RoundRect,0.135000X-0.135000X-0.185000X0.135000X-0.185000X0.135000X0.185000X-0.135000X0.185000X0*%
%ADD18R,1.500000X1.500000*%
%ADD19C,1.500000*%
%ADD20RoundRect,0.150000X0.150000X0.200000X-0.150000X0.200000X-0.150000X-0.200000X0.150000X-0.200000X0*%
%ADD21R,0.977900X0.508000*%
%ADD22RoundRect,0.102000X0.714000X0.714000X-0.714000X0.714000X-0.714000X-0.714000X0.714000X-0.714000X0*%
%ADD23C,1.632000*%
%ADD24C,3.520000*%
%ADD25RoundRect,0.250000X-0.925000X0.412500X-0.925000X-0.412500X0.925000X-0.412500X0.925000X0.412500X0*%
%ADD26R,0.900000X1.100000*%
%ADD27RoundRect,0.062500X-0.375000X-0.062500X0.375000X-0.062500X0.375000X0.062500X-0.375000X0.062500X0*%
%ADD28RoundRect,0.062500X-0.062500X-0.375000X0.062500X-0.375000X0.062500X0.375000X-0.062500X0.375000X0*%
%ADD29R,3.100000X3.100000*%
%ADD30RoundRect,0.147500X0.147500X0.172500X-0.147500X0.172500X-0.147500X-0.172500X0.147500X-0.172500X0*%
%ADD31R,1.409700X0.355600*%
%ADD32R,2.768600X6.400800*%
%ADD33RoundRect,0.135000X0.135000X0.185000X-0.135000X0.185000X-0.135000X-0.185000X0.135000X-0.185000X0*%
%ADD34RoundRect,0.150000X-0.150000X-0.200000X0.150000X-0.200000X0.150000X0.200000X-0.150000X0.200000X0*%
%ADD35RoundRect,0.250000X0.925000X-0.412500X0.925000X0.412500X-0.925000X0.412500X-0.925000X-0.412500X0*%
%ADD36C,1.600000*%
%ADD37C,2.304000*%
%ADD38O,4.117974X1.754000*%
%ADD39O,1.754000X2.954000*%
G04 APERTURE END LIST*
D10*
%TO.C,R6*%
X131900000Y-62500000D03*
X131900000Y-63520000D03*
%TD*%
D11*
%TO.C,C1*%
X132480000Y-82050000D03*
X131520000Y-82050000D03*
%TD*%
D12*
%TO.C,C10*%
X161770000Y-79550000D03*
X162730000Y-79550000D03*
%TD*%
D13*
%TO.C,D16*%
X134500000Y-117350000D03*
X134500000Y-114050000D03*
%TD*%
D14*
%TO.C,C14*%
X143520000Y-69050000D03*
X143520000Y-68090000D03*
%TD*%
D15*
%TO.C,D30*%
X146300000Y-63385000D03*
X146300000Y-62415000D03*
%TD*%
D13*
%TO.C,D26*%
X149750000Y-107350000D03*
X149750000Y-104050000D03*
%TD*%
D10*
%TO.C,R5*%
X132900000Y-62500000D03*
X132900000Y-63520000D03*
%TD*%
D16*
%TO.C,TP5*%
X140500000Y-77550000D03*
%TD*%
D17*
%TO.C,R12*%
X136250000Y-82200000D03*
X137270000Y-82200000D03*
%TD*%
%TO.C,R16*%
X151490000Y-80050000D03*
X152510000Y-80050000D03*
%TD*%
D10*
%TO.C,R25*%
X144300000Y-62400000D03*
X144300000Y-63420000D03*
%TD*%
D16*
%TO.C,TP8*%
X144500000Y-77550000D03*
%TD*%
D17*
%TO.C,R15*%
X151460000Y-79050000D03*
X152480000Y-79050000D03*
%TD*%
D18*
%TO.C,J4*%
X143250000Y-126550000D03*
D19*
X143250000Y-124050000D03*
X143250000Y-121550000D03*
X143250000Y-119050000D03*
X143250000Y-116550000D03*
X143250000Y-114050000D03*
X143250000Y-111550000D03*
X143250000Y-109050000D03*
X143250000Y-106550000D03*
X143250000Y-104050000D03*
X143250000Y-101550000D03*
X143250000Y-99050000D03*
X143250000Y-96550000D03*
X143250000Y-94050000D03*
X143250000Y-91550000D03*
X143250000Y-89050000D03*
%TD*%
D15*
%TO.C,D1*%
X134900000Y-63485000D03*
X134900000Y-62515000D03*
%TD*%
D17*
%TO.C,R2*%
X121240000Y-80050000D03*
X122260000Y-80050000D03*
%TD*%
D10*
%TO.C,R13*%
X137700000Y-62400000D03*
X137700000Y-63420000D03*
%TD*%
D20*
%TO.C,D11*%
X156343250Y-78040000D03*
X157743250Y-78040000D03*
%TD*%
D17*
%TO.C,R23*%
X138740000Y-69050000D03*
X139760000Y-69050000D03*
%TD*%
D15*
%TO.C,D12*%
X142500000Y-63385000D03*
X142500000Y-62415000D03*
%TD*%
D13*
%TO.C,D24*%
X149750000Y-117350000D03*
X149750000Y-114050000D03*
%TD*%
D11*
%TO.C,C5*%
X159823250Y-77790000D03*
X158863250Y-77790000D03*
%TD*%
D10*
%TO.C,R7*%
X141500000Y-62400000D03*
X141500000Y-63420000D03*
%TD*%
D21*
%TO.C,U3*%
X126634750Y-74687499D03*
X126634750Y-75637500D03*
X126634750Y-76587501D03*
X129365250Y-76587501D03*
X129365250Y-74687499D03*
%TD*%
D16*
%TO.C,TP6*%
X138500000Y-77550000D03*
%TD*%
D13*
%TO.C,D22*%
X149750000Y-127350000D03*
X149750000Y-124050000D03*
%TD*%
D14*
%TO.C,C13*%
X142500000Y-69030000D03*
X142500000Y-68070000D03*
%TD*%
D13*
%TO.C,D29*%
X149750000Y-92350000D03*
X149750000Y-89050000D03*
%TD*%
D18*
%TO.C,J3*%
X128250000Y-126550000D03*
D19*
X128250000Y-124050000D03*
X128250000Y-121550000D03*
X128250000Y-119050000D03*
X128250000Y-116550000D03*
X128250000Y-114050000D03*
X128250000Y-111550000D03*
X128250000Y-109050000D03*
X128250000Y-106550000D03*
X128250000Y-104050000D03*
X128250000Y-101550000D03*
X128250000Y-99050000D03*
X128250000Y-96550000D03*
X128250000Y-94050000D03*
X128250000Y-91550000D03*
X128250000Y-89050000D03*
%TD*%
D22*
%TO.C,J2*%
X155670000Y-75410000D03*
D23*
X158170000Y-75410000D03*
X158170000Y-73410000D03*
X155670000Y-73410000D03*
D24*
X162940000Y-70700000D03*
X150900000Y-70700000D03*
%TD*%
D25*
%TO.C,C2*%
X120600000Y-74462500D03*
X120600000Y-77537500D03*
%TD*%
D13*
%TO.C,D21*%
X134500000Y-92350000D03*
X134500000Y-89050000D03*
%TD*%
D17*
%TO.C,R9*%
X136250000Y-79200000D03*
X137270000Y-79200000D03*
%TD*%
D13*
%TO.C,D14*%
X134500000Y-127350000D03*
X134500000Y-124050000D03*
%TD*%
D25*
%TO.C,C8*%
X124100000Y-74462500D03*
X124100000Y-77537500D03*
%TD*%
D17*
%TO.C,R11*%
X136250000Y-81200000D03*
X137270000Y-81200000D03*
%TD*%
D26*
%TO.C,Y1*%
X147600000Y-75650000D03*
X147600000Y-73950000D03*
X146300000Y-73950000D03*
X146300000Y-75650000D03*
%TD*%
D27*
%TO.C,U5*%
X139062500Y-71050000D03*
X139062500Y-71550000D03*
X139062500Y-72050000D03*
X139062500Y-72550000D03*
X139062500Y-73050000D03*
X139062500Y-73550000D03*
X139062500Y-74050000D03*
X139062500Y-74550000D03*
D28*
X139750000Y-75237500D03*
X140250000Y-75237500D03*
X140750000Y-75237500D03*
X141250000Y-75237500D03*
X141750000Y-75237500D03*
X142250000Y-75237500D03*
X142750000Y-75237500D03*
X143250000Y-75237500D03*
D27*
X143937500Y-74550000D03*
X143937500Y-74050000D03*
X143937500Y-73550000D03*
X143937500Y-73050000D03*
X143937500Y-72550000D03*
X143937500Y-72050000D03*
X143937500Y-71550000D03*
X143937500Y-71050000D03*
D28*
X143250000Y-70362500D03*
X142750000Y-70362500D03*
X142250000Y-70362500D03*
X141750000Y-70362500D03*
X141250000Y-70362500D03*
X140750000Y-70362500D03*
X140250000Y-70362500D03*
X139750000Y-70362500D03*
D29*
X141500000Y-72800000D03*
%TD*%
D17*
%TO.C,R18*%
X151490000Y-82050000D03*
X152510000Y-82050000D03*
%TD*%
D30*
%TO.C,L1*%
X161885000Y-77800000D03*
X160915000Y-77800000D03*
%TD*%
D17*
%TO.C,R17*%
X151490000Y-81050000D03*
X152510000Y-81050000D03*
%TD*%
D13*
%TO.C,D4*%
X119500000Y-117350000D03*
X119500000Y-114050000D03*
%TD*%
D16*
%TO.C,TP9*%
X146500000Y-77550000D03*
%TD*%
D13*
%TO.C,D6*%
X119500000Y-107350000D03*
X119500000Y-104050000D03*
%TD*%
%TO.C,D25*%
X149750000Y-112350000D03*
X149750000Y-109050000D03*
%TD*%
D31*
%TO.C,U1*%
X123797250Y-79474937D03*
X123797250Y-80124949D03*
X123797250Y-80774960D03*
X123797250Y-81424972D03*
X123797250Y-82074983D03*
X123797250Y-82724994D03*
X123797250Y-83375006D03*
X123797250Y-84025017D03*
X123797250Y-84675028D03*
X123797250Y-85325040D03*
X123797250Y-85975051D03*
X123797250Y-86625063D03*
X129702750Y-86625063D03*
X129702750Y-85975051D03*
X129702750Y-85325040D03*
X129702750Y-84675028D03*
X129702750Y-84025017D03*
X129702750Y-83375006D03*
X129702750Y-82724994D03*
X129702750Y-82074983D03*
X129702750Y-81424972D03*
X129702750Y-80774960D03*
X129702750Y-80124949D03*
X129702750Y-79474937D03*
D32*
X126750000Y-83050000D03*
%TD*%
D13*
%TO.C,D5*%
X119500000Y-112350000D03*
X119500000Y-109050000D03*
%TD*%
D15*
%TO.C,D13*%
X138700000Y-63385000D03*
X138700000Y-62415000D03*
%TD*%
D16*
%TO.C,TP1*%
X139000000Y-66300000D03*
%TD*%
%TO.C,TP3*%
X141500000Y-66300000D03*
%TD*%
D17*
%TO.C,R1*%
X121240000Y-79050000D03*
X122260000Y-79050000D03*
%TD*%
%TO.C,R10*%
X136250000Y-80200000D03*
X137270000Y-80200000D03*
%TD*%
D13*
%TO.C,D28*%
X149750000Y-97350000D03*
X149750000Y-94050000D03*
%TD*%
D11*
%TO.C,C12*%
X137730000Y-74550000D03*
X136770000Y-74550000D03*
%TD*%
D13*
%TO.C,D2*%
X119500000Y-127350000D03*
X119500000Y-124050000D03*
%TD*%
D17*
%TO.C,R4*%
X121240000Y-82050000D03*
X122260000Y-82050000D03*
%TD*%
D33*
%TO.C,R22*%
X146270000Y-72550000D03*
X145250000Y-72550000D03*
%TD*%
D10*
%TO.C,R24*%
X145300000Y-62400000D03*
X145300000Y-63420000D03*
%TD*%
D11*
%TO.C,C15*%
X147480000Y-82200000D03*
X146520000Y-82200000D03*
%TD*%
D17*
%TO.C,R3*%
X121240000Y-81050000D03*
X122260000Y-81050000D03*
%TD*%
D18*
%TO.C,J5*%
X158500000Y-126550000D03*
D19*
X158500000Y-124050000D03*
X158500000Y-121550000D03*
X158500000Y-119050000D03*
X158500000Y-116550000D03*
X158500000Y-114050000D03*
X158500000Y-111550000D03*
X158500000Y-109050000D03*
X158500000Y-106550000D03*
X158500000Y-104050000D03*
X158500000Y-101550000D03*
X158500000Y-99050000D03*
X158500000Y-96550000D03*
X158500000Y-94050000D03*
X158500000Y-91550000D03*
X158500000Y-89050000D03*
%TD*%
D13*
%TO.C,D9*%
X119500000Y-92350000D03*
X119500000Y-89050000D03*
%TD*%
D34*
%TO.C,D10*%
X154993250Y-78040000D03*
X153593250Y-78040000D03*
%TD*%
D31*
%TO.C,U2*%
X138797250Y-79624937D03*
X138797250Y-80274949D03*
X138797250Y-80924960D03*
X138797250Y-81574972D03*
X138797250Y-82224983D03*
X138797250Y-82874994D03*
X138797250Y-83525006D03*
X138797250Y-84175017D03*
X138797250Y-84825028D03*
X138797250Y-85475040D03*
X138797250Y-86125051D03*
X138797250Y-86775063D03*
X144702750Y-86775063D03*
X144702750Y-86125051D03*
X144702750Y-85475040D03*
X144702750Y-84825028D03*
X144702750Y-84175017D03*
X144702750Y-83525006D03*
X144702750Y-82874994D03*
X144702750Y-82224983D03*
X144702750Y-81574972D03*
X144702750Y-80924960D03*
X144702750Y-80274949D03*
X144702750Y-79624937D03*
D32*
X141750000Y-83200000D03*
%TD*%
D13*
%TO.C,D17*%
X134500000Y-112350000D03*
X134500000Y-109050000D03*
%TD*%
%TO.C,D20*%
X134500000Y-97350000D03*
X134500000Y-94050000D03*
%TD*%
D33*
%TO.C,R21*%
X137770000Y-72550000D03*
X136750000Y-72550000D03*
%TD*%
D16*
%TO.C,TP7*%
X142500000Y-77550000D03*
%TD*%
D14*
%TO.C,C3*%
X118400000Y-74980000D03*
X118400000Y-74020000D03*
%TD*%
D12*
%TO.C,C16*%
X146520000Y-79700000D03*
X147480000Y-79700000D03*
%TD*%
D16*
%TO.C,TP4*%
X136500000Y-77550000D03*
%TD*%
D35*
%TO.C,C6*%
X148800000Y-67537500D03*
X148800000Y-64462500D03*
%TD*%
D10*
%TO.C,R14*%
X136700000Y-62400000D03*
X136700000Y-63420000D03*
%TD*%
D13*
%TO.C,D8*%
X119500000Y-97350000D03*
X119500000Y-94050000D03*
%TD*%
D33*
%TO.C,R19*%
X137760000Y-70800000D03*
X136740000Y-70800000D03*
%TD*%
D31*
%TO.C,U4*%
X154047250Y-79474937D03*
X154047250Y-80124949D03*
X154047250Y-80774960D03*
X154047250Y-81424972D03*
X154047250Y-82074983D03*
X154047250Y-82724994D03*
X154047250Y-83375006D03*
X154047250Y-84025017D03*
X154047250Y-84675028D03*
X154047250Y-85325040D03*
X154047250Y-85975051D03*
X154047250Y-86625063D03*
X159952750Y-86625063D03*
X159952750Y-85975051D03*
X159952750Y-85325040D03*
X159952750Y-84675028D03*
X159952750Y-84025017D03*
X159952750Y-83375006D03*
X159952750Y-82724994D03*
X159952750Y-82074983D03*
X159952750Y-81424972D03*
X159952750Y-80774960D03*
X159952750Y-80124949D03*
X159952750Y-79474937D03*
D32*
X157000000Y-83050000D03*
%TD*%
D13*
%TO.C,D19*%
X134500000Y-102350000D03*
X134500000Y-99050000D03*
%TD*%
D10*
%TO.C,R8*%
X140500000Y-62400000D03*
X140500000Y-63420000D03*
%TD*%
D25*
%TO.C,C11*%
X132000000Y-74100000D03*
X132000000Y-77175000D03*
%TD*%
D13*
%TO.C,D23*%
X149750000Y-122350000D03*
X149750000Y-119050000D03*
%TD*%
%TO.C,D18*%
X134500000Y-107350000D03*
X134500000Y-104050000D03*
%TD*%
D16*
%TO.C,TP2*%
X144000000Y-66300000D03*
%TD*%
D13*
%TO.C,D27*%
X149750000Y-102350000D03*
X149750000Y-99050000D03*
%TD*%
D11*
%TO.C,C9*%
X162730000Y-82050000D03*
X161770000Y-82050000D03*
%TD*%
D13*
%TO.C,D3*%
X119500000Y-122350000D03*
X119500000Y-119050000D03*
%TD*%
D10*
%TO.C,R26*%
X133900000Y-62500000D03*
X133900000Y-63520000D03*
%TD*%
D12*
%TO.C,C4*%
X131520000Y-79550000D03*
X132480000Y-79550000D03*
%TD*%
D33*
%TO.C,R20*%
X137760000Y-73550000D03*
X136740000Y-73550000D03*
%TD*%
D36*
%TO.C,J1*%
X123800000Y-62850000D03*
D37*
X123800000Y-72100000D03*
D38*
X123800000Y-66100000D03*
D39*
X128550000Y-65600000D03*
X119050000Y-65600000D03*
X128550000Y-70300000D03*
X119050000Y-70300000D03*
%TD*%
D13*
%TO.C,D7*%
X119500000Y-102350000D03*
X119500000Y-99050000D03*
%TD*%
D14*
%TO.C,C7*%
X146500000Y-67180000D03*
X146500000Y-66220000D03*
%TD*%
D13*
%TO.C,D15*%
X134500000Y-122350000D03*
X134500000Y-119050000D03*
%TD*%
M02*
