%TF.GenerationSoftware,KiCad,Pcbnew,8.0.5*%
%TF.CreationDate,2025-02-14T14:12:51-08:00*%
%TF.ProjectId,RelayDriver,52656c61-7944-4726-9976-65722e6b6963,A*%
%TF.SameCoordinates,Original*%
%TF.FileFunction,Legend,Top*%
%TF.FilePolarity,Positive*%
%FSLAX46Y46*%
G04 Gerber Fmt 4.6, Leading zero omitted, Abs format (unit mm)*
G04 Created by KiCad (PCBNEW 8.0.5) date 2025-02-14 14:12:51*
%MOMM*%
%LPD*%
G01*
G04 APERTURE LIST*
%ADD10C,0.100000*%
%ADD11C,0.375000*%
%ADD12C,0.250000*%
%ADD13C,0.150000*%
%ADD14C,0.254000*%
%ADD15C,0.120000*%
%ADD16C,0.200000*%
%ADD17C,0.152400*%
%ADD18C,0.127000*%
%ADD19C,0.000000*%
G04 APERTURE END LIST*
D10*
X116200000Y-82400000D02*
G75*
G02*
X116186962Y-88199746I50000J-2900000D01*
G01*
X166600000Y-88200000D02*
G75*
G02*
X166600000Y-82200000I0J3000000D01*
G01*
D11*
G36*
X121719900Y-85676809D02*
G01*
X121287804Y-85676809D01*
X121503852Y-85028665D01*
X121719900Y-85676809D01*
G37*
G36*
X122578768Y-86843987D02*
G01*
X120428937Y-86843987D01*
X120428937Y-86412287D01*
X120651159Y-86412287D01*
X120656344Y-86485261D01*
X120689062Y-86550698D01*
X120744331Y-86598631D01*
X120813735Y-86621765D01*
X120886709Y-86616580D01*
X120952146Y-86583862D01*
X121000079Y-86528593D01*
X121015064Y-86495031D01*
X121162805Y-86051809D01*
X121844900Y-86051809D01*
X121992641Y-86495031D01*
X122007626Y-86528593D01*
X122055559Y-86583861D01*
X122120996Y-86616580D01*
X122193970Y-86621765D01*
X122263374Y-86598631D01*
X122318643Y-86550697D01*
X122351361Y-86485261D01*
X122356546Y-86412286D01*
X122348397Y-86376445D01*
X121681730Y-84376445D01*
X121666745Y-84342883D01*
X121657968Y-84332763D01*
X121651976Y-84320778D01*
X121634215Y-84305374D01*
X121618812Y-84287614D01*
X121606826Y-84281621D01*
X121596707Y-84272845D01*
X121574407Y-84265411D01*
X121553375Y-84254896D01*
X121540009Y-84253946D01*
X121527303Y-84249711D01*
X121503852Y-84251377D01*
X121480401Y-84249711D01*
X121467694Y-84253946D01*
X121454329Y-84254896D01*
X121433296Y-84265411D01*
X121410997Y-84272845D01*
X121400877Y-84281621D01*
X121388892Y-84287614D01*
X121373488Y-84305374D01*
X121355728Y-84320778D01*
X121349735Y-84332763D01*
X121340959Y-84342883D01*
X121325974Y-84376445D01*
X120659308Y-86376445D01*
X120651159Y-86412287D01*
X120428937Y-86412287D01*
X120428937Y-84027489D01*
X122578768Y-84027489D01*
X122578768Y-86843987D01*
G37*
D12*
X132566667Y-60764619D02*
X132900000Y-61764619D01*
X132900000Y-61764619D02*
X133233333Y-60764619D01*
X133519048Y-61875095D02*
X133519048Y-61075095D01*
X133519048Y-61075095D02*
X133709524Y-61075095D01*
X133709524Y-61075095D02*
X133823810Y-61113190D01*
X133823810Y-61113190D02*
X133900000Y-61189380D01*
X133900000Y-61189380D02*
X133938095Y-61265571D01*
X133938095Y-61265571D02*
X133976191Y-61417952D01*
X133976191Y-61417952D02*
X133976191Y-61532238D01*
X133976191Y-61532238D02*
X133938095Y-61684619D01*
X133938095Y-61684619D02*
X133900000Y-61760809D01*
X133900000Y-61760809D02*
X133823810Y-61837000D01*
X133823810Y-61837000D02*
X133709524Y-61875095D01*
X133709524Y-61875095D02*
X133519048Y-61875095D01*
X134776191Y-61798904D02*
X134738095Y-61837000D01*
X134738095Y-61837000D02*
X134623810Y-61875095D01*
X134623810Y-61875095D02*
X134547619Y-61875095D01*
X134547619Y-61875095D02*
X134433333Y-61837000D01*
X134433333Y-61837000D02*
X134357143Y-61760809D01*
X134357143Y-61760809D02*
X134319048Y-61684619D01*
X134319048Y-61684619D02*
X134280952Y-61532238D01*
X134280952Y-61532238D02*
X134280952Y-61417952D01*
X134280952Y-61417952D02*
X134319048Y-61265571D01*
X134319048Y-61265571D02*
X134357143Y-61189380D01*
X134357143Y-61189380D02*
X134433333Y-61113190D01*
X134433333Y-61113190D02*
X134547619Y-61075095D01*
X134547619Y-61075095D02*
X134623810Y-61075095D01*
X134623810Y-61075095D02*
X134738095Y-61113190D01*
X134738095Y-61113190D02*
X134776191Y-61151285D01*
D11*
G36*
X152871877Y-86845460D02*
G01*
X150817940Y-86845460D01*
X150817940Y-85292880D01*
X151040162Y-85292880D01*
X151040162Y-85578595D01*
X151040790Y-85584977D01*
X151040384Y-85587710D01*
X151042408Y-85601402D01*
X151043765Y-85615174D01*
X151044821Y-85617725D01*
X151045760Y-85624070D01*
X151140998Y-86005022D01*
X151141963Y-86007723D01*
X151142059Y-86009071D01*
X151147879Y-86024281D01*
X151153365Y-86039635D01*
X151154170Y-86040721D01*
X151155195Y-86043400D01*
X151250433Y-86233876D01*
X151260345Y-86249622D01*
X151262238Y-86254192D01*
X151266461Y-86259338D01*
X151270014Y-86264982D01*
X151273756Y-86268227D01*
X151285555Y-86282605D01*
X151476031Y-86473082D01*
X151504444Y-86496399D01*
X151510667Y-86498976D01*
X151515759Y-86503393D01*
X151549321Y-86518378D01*
X151835037Y-86613616D01*
X151853174Y-86617739D01*
X151857750Y-86619635D01*
X151864383Y-86620288D01*
X151870878Y-86621765D01*
X151875813Y-86621414D01*
X151894329Y-86623238D01*
X152084805Y-86623238D01*
X152103320Y-86621414D01*
X152108256Y-86621765D01*
X152114750Y-86620288D01*
X152121384Y-86619635D01*
X152125958Y-86617740D01*
X152144098Y-86613616D01*
X152429812Y-86518378D01*
X152463374Y-86503393D01*
X152468464Y-86498978D01*
X152474689Y-86496400D01*
X152503102Y-86473082D01*
X152598341Y-86377843D01*
X152621658Y-86349429D01*
X152649655Y-86281840D01*
X152649654Y-86208680D01*
X152621657Y-86141090D01*
X152569926Y-86089360D01*
X152502336Y-86061363D01*
X152429176Y-86061364D01*
X152361587Y-86089361D01*
X152333174Y-86112679D01*
X152269234Y-86176619D01*
X152054378Y-86248238D01*
X151924756Y-86248238D01*
X151709898Y-86176619D01*
X151572235Y-86038955D01*
X151499810Y-85894105D01*
X151415162Y-85555511D01*
X151415162Y-85315963D01*
X151499810Y-84977369D01*
X151572234Y-84832521D01*
X151709898Y-84694856D01*
X151924756Y-84623238D01*
X152054378Y-84623238D01*
X152269233Y-84694856D01*
X152333175Y-84758797D01*
X152361588Y-84782114D01*
X152429177Y-84810111D01*
X152502337Y-84810111D01*
X152569927Y-84782114D01*
X152621657Y-84730384D01*
X152649654Y-84662794D01*
X152649654Y-84589634D01*
X152621657Y-84522045D01*
X152598340Y-84493632D01*
X152503102Y-84398393D01*
X152474689Y-84375076D01*
X152468464Y-84372497D01*
X152463374Y-84368083D01*
X152429812Y-84353098D01*
X152144098Y-84257860D01*
X152125958Y-84253735D01*
X152121384Y-84251841D01*
X152114750Y-84251187D01*
X152108256Y-84249711D01*
X152103320Y-84250061D01*
X152084805Y-84248238D01*
X151894329Y-84248238D01*
X151875813Y-84250061D01*
X151870878Y-84249711D01*
X151864383Y-84251187D01*
X151857750Y-84251841D01*
X151853174Y-84253736D01*
X151835037Y-84257860D01*
X151549321Y-84353098D01*
X151515759Y-84368083D01*
X151510668Y-84372498D01*
X151504445Y-84375076D01*
X151476032Y-84398393D01*
X151285555Y-84588869D01*
X151273753Y-84603249D01*
X151270014Y-84606493D01*
X151266464Y-84612132D01*
X151262238Y-84617282D01*
X151260343Y-84621854D01*
X151250433Y-84637599D01*
X151155195Y-84828075D01*
X151154170Y-84830753D01*
X151153365Y-84831840D01*
X151147879Y-84847193D01*
X151142059Y-84862404D01*
X151141963Y-84863751D01*
X151140998Y-84866453D01*
X151045760Y-85247405D01*
X151044821Y-85253749D01*
X151043765Y-85256301D01*
X151042408Y-85270072D01*
X151040384Y-85283765D01*
X151040790Y-85286497D01*
X151040162Y-85292880D01*
X150817940Y-85292880D01*
X150817940Y-84026016D01*
X152871877Y-84026016D01*
X152871877Y-86845460D01*
G37*
X165874428Y-80014285D02*
X164374428Y-80014285D01*
X164374428Y-80014285D02*
X164374428Y-79442856D01*
X164374428Y-79442856D02*
X164445857Y-79299999D01*
X164445857Y-79299999D02*
X164517285Y-79228570D01*
X164517285Y-79228570D02*
X164660142Y-79157142D01*
X164660142Y-79157142D02*
X164874428Y-79157142D01*
X164874428Y-79157142D02*
X165017285Y-79228570D01*
X165017285Y-79228570D02*
X165088714Y-79299999D01*
X165088714Y-79299999D02*
X165160142Y-79442856D01*
X165160142Y-79442856D02*
X165160142Y-80014285D01*
X165874428Y-77799999D02*
X165874428Y-78514285D01*
X165874428Y-78514285D02*
X164374428Y-78514285D01*
X165874428Y-76442856D02*
X165160142Y-76942856D01*
X165874428Y-77299999D02*
X164374428Y-77299999D01*
X164374428Y-77299999D02*
X164374428Y-76728570D01*
X164374428Y-76728570D02*
X164445857Y-76585713D01*
X164445857Y-76585713D02*
X164517285Y-76514284D01*
X164517285Y-76514284D02*
X164660142Y-76442856D01*
X164660142Y-76442856D02*
X164874428Y-76442856D01*
X164874428Y-76442856D02*
X165017285Y-76514284D01*
X165017285Y-76514284D02*
X165088714Y-76585713D01*
X165088714Y-76585713D02*
X165160142Y-76728570D01*
X165160142Y-76728570D02*
X165160142Y-77299999D01*
X165874428Y-75799999D02*
X164374428Y-75799999D01*
X164374428Y-75799999D02*
X164374428Y-75442856D01*
X164374428Y-75442856D02*
X164445857Y-75228570D01*
X164445857Y-75228570D02*
X164588714Y-75085713D01*
X164588714Y-75085713D02*
X164731571Y-75014284D01*
X164731571Y-75014284D02*
X165017285Y-74942856D01*
X165017285Y-74942856D02*
X165231571Y-74942856D01*
X165231571Y-74942856D02*
X165517285Y-75014284D01*
X165517285Y-75014284D02*
X165660142Y-75085713D01*
X165660142Y-75085713D02*
X165803000Y-75228570D01*
X165803000Y-75228570D02*
X165874428Y-75442856D01*
X165874428Y-75442856D02*
X165874428Y-75799999D01*
X165874428Y-73514284D02*
X165874428Y-74371427D01*
X165874428Y-73942856D02*
X164374428Y-73942856D01*
X164374428Y-73942856D02*
X164588714Y-74085713D01*
X164588714Y-74085713D02*
X164731571Y-74228570D01*
X164731571Y-74228570D02*
X164803000Y-74371427D01*
D12*
G36*
X166085073Y-90297094D02*
G01*
X166107819Y-90325525D01*
X166139619Y-90405023D01*
X166139619Y-90594975D01*
X166107819Y-90674472D01*
X166085074Y-90702903D01*
X166038292Y-90732142D01*
X165919516Y-90732142D01*
X165872732Y-90702902D01*
X165849989Y-90674473D01*
X165818190Y-90594973D01*
X165818190Y-90405025D01*
X165849989Y-90325527D01*
X165872736Y-90297093D01*
X165919515Y-90267857D01*
X166038293Y-90267857D01*
X166085073Y-90297094D01*
G37*
G36*
X165513643Y-90297093D02*
G01*
X165536390Y-90325526D01*
X165568190Y-90405023D01*
X165568190Y-90594975D01*
X165536389Y-90674474D01*
X165513645Y-90702904D01*
X165478904Y-90724616D01*
X165444161Y-90702902D01*
X165421418Y-90674473D01*
X165389619Y-90594973D01*
X165389619Y-90405025D01*
X165421418Y-90325527D01*
X165444165Y-90297093D01*
X165478904Y-90275381D01*
X165513643Y-90297093D01*
G37*
G36*
X166514619Y-92473787D02*
G01*
X163645172Y-92473787D01*
X163645172Y-91725613D01*
X163770172Y-91725613D01*
X163770172Y-91774385D01*
X163788836Y-91819445D01*
X163823324Y-91853933D01*
X163868384Y-91872597D01*
X163892770Y-91874999D01*
X164148722Y-91874999D01*
X164148722Y-92226189D01*
X164151124Y-92250575D01*
X164169788Y-92295635D01*
X164204276Y-92330123D01*
X164249336Y-92348787D01*
X164298108Y-92348787D01*
X164343168Y-92330123D01*
X164377656Y-92295635D01*
X164396320Y-92250575D01*
X164398722Y-92226189D01*
X164398722Y-91874999D01*
X164654675Y-91874999D01*
X164679061Y-91872597D01*
X164724121Y-91853933D01*
X164758609Y-91819445D01*
X164777273Y-91774385D01*
X164777273Y-91725613D01*
X164758609Y-91680553D01*
X164724121Y-91646065D01*
X164679061Y-91627401D01*
X164654675Y-91624999D01*
X164398722Y-91624999D01*
X164398722Y-91273809D01*
X164396320Y-91249423D01*
X164377656Y-91204363D01*
X164343168Y-91169875D01*
X164298108Y-91151211D01*
X164249336Y-91151211D01*
X164204276Y-91169875D01*
X164169788Y-91204363D01*
X164151124Y-91249423D01*
X164148722Y-91273809D01*
X164148722Y-91624999D01*
X163892770Y-91624999D01*
X163868384Y-91627401D01*
X163823324Y-91646065D01*
X163788836Y-91680553D01*
X163770172Y-91725613D01*
X163645172Y-91725613D01*
X163645172Y-90380952D01*
X165139619Y-90380952D01*
X165139619Y-90619047D01*
X165141748Y-90640666D01*
X165141733Y-90641937D01*
X165141945Y-90642671D01*
X165142021Y-90643433D01*
X165142507Y-90644608D01*
X165148559Y-90665471D01*
X165196179Y-90784519D01*
X165200414Y-90792682D01*
X165201272Y-90795640D01*
X165204626Y-90800797D01*
X165207465Y-90806269D01*
X165209619Y-90808476D01*
X165214630Y-90816182D01*
X165262249Y-90875705D01*
X165272352Y-90886064D01*
X165274201Y-90888656D01*
X165276939Y-90890767D01*
X165279358Y-90893247D01*
X165282149Y-90894783D01*
X165293607Y-90903618D01*
X165388845Y-90963141D01*
X165410797Y-90974029D01*
X165421077Y-90975750D01*
X165430709Y-90979740D01*
X165455095Y-90982142D01*
X165502714Y-90982142D01*
X165527100Y-90979740D01*
X165536731Y-90975750D01*
X165547012Y-90974029D01*
X165568964Y-90963142D01*
X165664202Y-90903618D01*
X165675659Y-90894784D01*
X165678451Y-90893247D01*
X165680869Y-90890767D01*
X165683608Y-90888656D01*
X165685456Y-90886064D01*
X165693190Y-90878134D01*
X165700923Y-90886064D01*
X165702772Y-90888656D01*
X165705510Y-90890767D01*
X165707929Y-90893247D01*
X165710720Y-90894783D01*
X165722178Y-90903618D01*
X165817416Y-90963141D01*
X165839368Y-90974029D01*
X165849648Y-90975750D01*
X165859280Y-90979740D01*
X165883666Y-90982142D01*
X166074142Y-90982142D01*
X166098528Y-90979740D01*
X166108159Y-90975750D01*
X166118440Y-90974029D01*
X166140392Y-90963142D01*
X166235630Y-90903618D01*
X166247086Y-90894785D01*
X166249878Y-90893248D01*
X166252297Y-90890767D01*
X166255036Y-90888656D01*
X166256884Y-90886064D01*
X166266987Y-90875706D01*
X166314608Y-90816183D01*
X166319622Y-90808471D01*
X166321773Y-90806268D01*
X166324608Y-90800803D01*
X166327966Y-90795641D01*
X166328823Y-90792682D01*
X166333060Y-90784519D01*
X166380679Y-90665470D01*
X166386729Y-90644610D01*
X166387217Y-90643433D01*
X166387292Y-90642669D01*
X166387505Y-90641936D01*
X166387489Y-90640666D01*
X166389619Y-90619047D01*
X166389619Y-90380952D01*
X166387489Y-90359332D01*
X166387505Y-90358063D01*
X166387292Y-90357329D01*
X166387217Y-90356566D01*
X166386729Y-90355388D01*
X166380679Y-90334529D01*
X166333060Y-90215480D01*
X166328822Y-90207314D01*
X166327966Y-90204359D01*
X166324610Y-90199198D01*
X166321773Y-90193731D01*
X166319621Y-90191526D01*
X166314608Y-90183816D01*
X166266988Y-90124292D01*
X166256887Y-90113936D01*
X166255036Y-90111341D01*
X166252291Y-90109225D01*
X166249878Y-90106751D01*
X166247091Y-90105216D01*
X166235629Y-90096380D01*
X166140391Y-90036857D01*
X166118439Y-90025969D01*
X166108157Y-90024247D01*
X166098528Y-90020259D01*
X166074142Y-90017857D01*
X165883666Y-90017857D01*
X165859280Y-90020259D01*
X165849650Y-90024247D01*
X165839369Y-90025969D01*
X165817417Y-90036857D01*
X165722179Y-90096380D01*
X165710718Y-90105214D01*
X165707929Y-90106751D01*
X165705513Y-90109227D01*
X165702772Y-90111341D01*
X165700922Y-90113934D01*
X165693189Y-90121862D01*
X165685459Y-90113936D01*
X165683608Y-90111341D01*
X165680863Y-90109225D01*
X165678451Y-90106752D01*
X165675665Y-90105218D01*
X165664201Y-90096380D01*
X165568963Y-90036857D01*
X165547011Y-90025969D01*
X165536729Y-90024247D01*
X165527100Y-90020259D01*
X165502714Y-90017857D01*
X165455095Y-90017857D01*
X165430709Y-90020259D01*
X165421079Y-90024247D01*
X165410798Y-90025969D01*
X165388846Y-90036857D01*
X165293608Y-90096380D01*
X165282147Y-90105214D01*
X165279358Y-90106751D01*
X165276942Y-90109227D01*
X165274201Y-90111341D01*
X165272351Y-90113934D01*
X165262248Y-90124293D01*
X165214629Y-90183817D01*
X165209616Y-90191524D01*
X165207465Y-90193730D01*
X165204628Y-90199197D01*
X165201271Y-90204360D01*
X165200413Y-90207319D01*
X165196179Y-90215480D01*
X165148559Y-90334528D01*
X165142507Y-90355390D01*
X165142021Y-90356566D01*
X165141945Y-90357327D01*
X165141733Y-90358062D01*
X165141748Y-90359332D01*
X165139619Y-90380952D01*
X163645172Y-90380952D01*
X163645172Y-88773809D01*
X164148722Y-88773809D01*
X164148722Y-89726189D01*
X164151124Y-89750575D01*
X164169788Y-89795635D01*
X164204276Y-89830123D01*
X164249336Y-89848787D01*
X164298108Y-89848787D01*
X164343168Y-89830123D01*
X164377656Y-89795635D01*
X164396320Y-89750575D01*
X164398722Y-89726189D01*
X164398722Y-88773809D01*
X164396320Y-88749423D01*
X164377656Y-88704363D01*
X164343168Y-88669875D01*
X164298108Y-88651211D01*
X164249336Y-88651211D01*
X164204276Y-88669875D01*
X164169788Y-88704363D01*
X164151124Y-88749423D01*
X164148722Y-88773809D01*
X163645172Y-88773809D01*
X163645172Y-88526211D01*
X166514619Y-88526211D01*
X166514619Y-92473787D01*
G37*
D11*
G36*
X136973995Y-85847237D02*
G01*
X137016421Y-85889662D01*
X137078257Y-86013334D01*
X137078257Y-86210522D01*
X137016420Y-86334194D01*
X136964212Y-86386403D01*
X136840542Y-86448238D01*
X136310400Y-86448238D01*
X136310400Y-85775619D01*
X136759140Y-85775619D01*
X136973995Y-85847237D01*
G37*
G36*
X136868973Y-84885072D02*
G01*
X136921183Y-84937281D01*
X136983019Y-85060953D01*
X136983019Y-85162903D01*
X136921183Y-85286574D01*
X136868974Y-85338783D01*
X136745304Y-85400619D01*
X136310400Y-85400619D01*
X136310400Y-84823238D01*
X136745304Y-84823238D01*
X136868973Y-84885072D01*
G37*
G36*
X137675479Y-87045460D02*
G01*
X135713178Y-87045460D01*
X135713178Y-84635738D01*
X135935400Y-84635738D01*
X135935400Y-86635738D01*
X135939003Y-86672317D01*
X135966999Y-86739907D01*
X136018731Y-86791639D01*
X136086321Y-86819635D01*
X136122900Y-86823238D01*
X136884805Y-86823238D01*
X136921384Y-86819635D01*
X136927608Y-86817056D01*
X136934329Y-86816579D01*
X136968658Y-86803443D01*
X137159134Y-86708205D01*
X137174878Y-86698294D01*
X137179451Y-86696400D01*
X137184599Y-86692174D01*
X137190240Y-86688624D01*
X137193484Y-86684882D01*
X137207864Y-86673082D01*
X137303103Y-86577843D01*
X137314905Y-86563460D01*
X137318643Y-86560219D01*
X137322192Y-86554580D01*
X137326420Y-86549429D01*
X137328314Y-86544855D01*
X137338224Y-86529114D01*
X137433462Y-86338637D01*
X137446598Y-86304309D01*
X137447075Y-86297588D01*
X137449654Y-86291364D01*
X137453257Y-86254785D01*
X137453257Y-85969071D01*
X137449654Y-85932492D01*
X137447075Y-85926267D01*
X137446598Y-85919547D01*
X137433462Y-85885219D01*
X137338224Y-85694742D01*
X137328312Y-85678997D01*
X137326419Y-85674426D01*
X137322193Y-85669276D01*
X137318643Y-85663637D01*
X137314903Y-85660393D01*
X137303102Y-85646013D01*
X137207864Y-85550774D01*
X137196576Y-85541511D01*
X137207864Y-85530224D01*
X137219665Y-85515843D01*
X137223405Y-85512600D01*
X137226955Y-85506960D01*
X137231181Y-85501811D01*
X137233074Y-85497239D01*
X137242986Y-85481495D01*
X137338224Y-85291018D01*
X137351360Y-85256690D01*
X137351837Y-85249969D01*
X137354416Y-85243745D01*
X137358019Y-85207166D01*
X137358019Y-85016690D01*
X137354416Y-84980111D01*
X137351837Y-84973886D01*
X137351360Y-84967166D01*
X137338224Y-84932838D01*
X137242986Y-84742361D01*
X137233074Y-84726616D01*
X137231181Y-84722045D01*
X137226955Y-84716895D01*
X137223405Y-84711256D01*
X137219665Y-84708012D01*
X137207864Y-84693632D01*
X137112626Y-84598393D01*
X137098245Y-84586591D01*
X137095002Y-84582852D01*
X137089362Y-84579302D01*
X137084213Y-84575076D01*
X137079640Y-84573181D01*
X137063896Y-84563271D01*
X136873420Y-84468033D01*
X136839091Y-84454897D01*
X136832370Y-84454419D01*
X136826146Y-84451841D01*
X136789567Y-84448238D01*
X136122900Y-84448238D01*
X136086321Y-84451841D01*
X136018731Y-84479837D01*
X135966999Y-84531569D01*
X135939003Y-84599159D01*
X135935400Y-84635738D01*
X135713178Y-84635738D01*
X135713178Y-84226016D01*
X137675479Y-84226016D01*
X137675479Y-87045460D01*
G37*
D12*
G36*
X166508119Y-117473787D02*
G01*
X163638672Y-117473787D01*
X163638672Y-116725613D01*
X163763672Y-116725613D01*
X163763672Y-116774385D01*
X163782336Y-116819445D01*
X163816824Y-116853933D01*
X163861884Y-116872597D01*
X163886270Y-116874999D01*
X164142222Y-116874999D01*
X164142222Y-117226189D01*
X164144624Y-117250575D01*
X164163288Y-117295635D01*
X164197776Y-117330123D01*
X164242836Y-117348787D01*
X164291608Y-117348787D01*
X164336668Y-117330123D01*
X164371156Y-117295635D01*
X164389820Y-117250575D01*
X164392222Y-117226189D01*
X164392222Y-116874999D01*
X164648175Y-116874999D01*
X164672561Y-116872597D01*
X164717621Y-116853933D01*
X164752109Y-116819445D01*
X164770773Y-116774385D01*
X164770773Y-116725613D01*
X164752109Y-116680553D01*
X164717621Y-116646065D01*
X164672561Y-116627401D01*
X164648175Y-116624999D01*
X164392222Y-116624999D01*
X164392222Y-116273809D01*
X164389820Y-116249423D01*
X164371156Y-116204363D01*
X164336668Y-116169875D01*
X164291608Y-116151211D01*
X164242836Y-116151211D01*
X164197776Y-116169875D01*
X164163288Y-116204363D01*
X164144624Y-116249423D01*
X164142222Y-116273809D01*
X164142222Y-116624999D01*
X163886270Y-116624999D01*
X163861884Y-116627401D01*
X163816824Y-116646065D01*
X163782336Y-116680553D01*
X163763672Y-116725613D01*
X163638672Y-116725613D01*
X163638672Y-115142857D01*
X165133119Y-115142857D01*
X165133119Y-115916666D01*
X165135521Y-115941052D01*
X165154185Y-115986112D01*
X165188673Y-116020600D01*
X165233733Y-116039264D01*
X165282505Y-116039264D01*
X165327565Y-116020600D01*
X165362053Y-115986112D01*
X165380717Y-115941052D01*
X165383119Y-115916666D01*
X165383119Y-115464824D01*
X165546817Y-115643869D01*
X165565045Y-115660246D01*
X165567616Y-115661448D01*
X165569625Y-115663457D01*
X165589626Y-115671741D01*
X165609225Y-115680907D01*
X165612060Y-115681033D01*
X165614685Y-115682121D01*
X165636334Y-115682121D01*
X165657949Y-115683089D01*
X165660618Y-115682121D01*
X165663457Y-115682121D01*
X165683453Y-115673838D01*
X165703799Y-115666459D01*
X165705894Y-115664543D01*
X165708517Y-115663457D01*
X165723820Y-115648153D01*
X165739794Y-115633549D01*
X165740996Y-115630977D01*
X165743005Y-115628969D01*
X165751289Y-115608967D01*
X165760455Y-115589369D01*
X165760581Y-115586533D01*
X165761669Y-115583909D01*
X165764071Y-115559523D01*
X165764071Y-115405025D01*
X165795870Y-115325527D01*
X165818617Y-115297093D01*
X165865396Y-115267857D01*
X166031793Y-115267857D01*
X166078573Y-115297094D01*
X166101319Y-115325525D01*
X166133119Y-115405023D01*
X166133119Y-115714022D01*
X166101319Y-115793520D01*
X166065272Y-115838578D01*
X166051914Y-115859121D01*
X166038339Y-115905966D01*
X166043724Y-115954441D01*
X166067251Y-115997164D01*
X166105335Y-116027632D01*
X166152180Y-116041207D01*
X166200655Y-116035822D01*
X166243378Y-116012295D01*
X166260488Y-115994754D01*
X166308108Y-115935230D01*
X166313119Y-115927522D01*
X166315273Y-115925316D01*
X166318112Y-115919844D01*
X166321466Y-115914687D01*
X166322322Y-115911731D01*
X166326560Y-115903566D01*
X166374179Y-115784519D01*
X166380230Y-115763656D01*
X166380717Y-115762481D01*
X166380792Y-115761719D01*
X166381005Y-115760985D01*
X166380989Y-115759714D01*
X166383119Y-115738095D01*
X166383119Y-115380952D01*
X166380989Y-115359332D01*
X166381005Y-115358063D01*
X166380792Y-115357329D01*
X166380717Y-115356566D01*
X166380229Y-115355388D01*
X166374179Y-115334529D01*
X166326560Y-115215480D01*
X166322322Y-115207314D01*
X166321466Y-115204359D01*
X166318110Y-115199198D01*
X166315273Y-115193731D01*
X166313121Y-115191526D01*
X166308108Y-115183816D01*
X166260488Y-115124292D01*
X166250387Y-115113936D01*
X166248536Y-115111341D01*
X166245791Y-115109225D01*
X166243378Y-115106751D01*
X166240591Y-115105216D01*
X166229129Y-115096380D01*
X166133891Y-115036857D01*
X166111939Y-115025969D01*
X166101657Y-115024247D01*
X166092028Y-115020259D01*
X166067642Y-115017857D01*
X165829547Y-115017857D01*
X165805161Y-115020259D01*
X165795531Y-115024247D01*
X165785250Y-115025969D01*
X165763298Y-115036857D01*
X165668060Y-115096380D01*
X165656599Y-115105214D01*
X165653810Y-115106751D01*
X165651394Y-115109227D01*
X165648653Y-115111341D01*
X165646803Y-115113934D01*
X165636700Y-115124293D01*
X165589081Y-115183817D01*
X165584068Y-115191524D01*
X165581917Y-115193730D01*
X165579080Y-115199197D01*
X165575723Y-115204360D01*
X165574865Y-115207319D01*
X165570631Y-115215480D01*
X165547273Y-115273871D01*
X165350373Y-115058511D01*
X165332145Y-115042134D01*
X165329573Y-115040931D01*
X165327565Y-115038923D01*
X165307573Y-115030642D01*
X165287965Y-115021472D01*
X165285126Y-115021344D01*
X165282505Y-115020259D01*
X165260866Y-115020259D01*
X165239241Y-115019291D01*
X165236572Y-115020259D01*
X165233733Y-115020259D01*
X165213736Y-115028541D01*
X165193391Y-115035921D01*
X165191295Y-115037836D01*
X165188673Y-115038923D01*
X165173369Y-115054226D01*
X165157396Y-115068831D01*
X165156193Y-115071402D01*
X165154185Y-115073411D01*
X165145904Y-115093402D01*
X165136734Y-115113011D01*
X165136606Y-115115849D01*
X165135521Y-115118471D01*
X165133119Y-115142857D01*
X163638672Y-115142857D01*
X163638672Y-113773809D01*
X164142222Y-113773809D01*
X164142222Y-114726189D01*
X164144624Y-114750575D01*
X164163288Y-114795635D01*
X164197776Y-114830123D01*
X164242836Y-114848787D01*
X164291608Y-114848787D01*
X164336668Y-114830123D01*
X164371156Y-114795635D01*
X164389820Y-114750575D01*
X164392222Y-114726189D01*
X164392222Y-113773809D01*
X164389820Y-113749423D01*
X164371156Y-113704363D01*
X164336668Y-113669875D01*
X164291608Y-113651211D01*
X164242836Y-113651211D01*
X164197776Y-113669875D01*
X164163288Y-113704363D01*
X164144624Y-113749423D01*
X164142222Y-113773809D01*
X163638672Y-113773809D01*
X163638672Y-113526211D01*
X166508119Y-113526211D01*
X166508119Y-117473787D01*
G37*
G36*
X166085073Y-100347094D02*
G01*
X166107819Y-100375525D01*
X166139619Y-100455023D01*
X166139619Y-100644975D01*
X166107819Y-100724472D01*
X166085074Y-100752903D01*
X166038292Y-100782142D01*
X165871897Y-100782142D01*
X165825113Y-100752902D01*
X165802370Y-100724473D01*
X165770571Y-100644973D01*
X165770571Y-100455025D01*
X165802370Y-100375527D01*
X165825117Y-100347093D01*
X165871896Y-100317857D01*
X166038293Y-100317857D01*
X166085073Y-100347094D01*
G37*
G36*
X166514619Y-102523787D02*
G01*
X163645172Y-102523787D01*
X163645172Y-101775613D01*
X163770172Y-101775613D01*
X163770172Y-101824385D01*
X163788836Y-101869445D01*
X163823324Y-101903933D01*
X163868384Y-101922597D01*
X163892770Y-101924999D01*
X164148722Y-101924999D01*
X164148722Y-102276189D01*
X164151124Y-102300575D01*
X164169788Y-102345635D01*
X164204276Y-102380123D01*
X164249336Y-102398787D01*
X164298108Y-102398787D01*
X164343168Y-102380123D01*
X164377656Y-102345635D01*
X164396320Y-102300575D01*
X164398722Y-102276189D01*
X164398722Y-101924999D01*
X164654675Y-101924999D01*
X164679061Y-101922597D01*
X164724121Y-101903933D01*
X164758609Y-101869445D01*
X164777273Y-101824385D01*
X164777273Y-101775613D01*
X164758609Y-101730553D01*
X164724121Y-101696065D01*
X164679061Y-101677401D01*
X164654675Y-101674999D01*
X164398722Y-101674999D01*
X164398722Y-101323809D01*
X164396320Y-101299423D01*
X164377656Y-101254363D01*
X164343168Y-101219875D01*
X164298108Y-101201211D01*
X164249336Y-101201211D01*
X164204276Y-101219875D01*
X164169788Y-101254363D01*
X164151124Y-101299423D01*
X164148722Y-101323809D01*
X164148722Y-101674999D01*
X163892770Y-101674999D01*
X163868384Y-101677401D01*
X163823324Y-101696065D01*
X163788836Y-101730553D01*
X163770172Y-101775613D01*
X163645172Y-101775613D01*
X163645172Y-100311904D01*
X165139619Y-100311904D01*
X165139619Y-100549999D01*
X165141748Y-100571618D01*
X165141733Y-100572889D01*
X165141945Y-100573623D01*
X165142021Y-100574385D01*
X165142507Y-100575560D01*
X165148559Y-100596423D01*
X165196179Y-100715471D01*
X165200413Y-100723631D01*
X165201271Y-100726591D01*
X165204628Y-100731753D01*
X165207465Y-100737221D01*
X165209616Y-100739426D01*
X165214629Y-100747134D01*
X165262248Y-100806658D01*
X165262542Y-100806959D01*
X165262638Y-100807142D01*
X165270994Y-100815625D01*
X165279358Y-100824200D01*
X165279539Y-100824299D01*
X165279834Y-100824599D01*
X165422691Y-100943646D01*
X165442785Y-100957291D01*
X165442870Y-100957362D01*
X165442921Y-100957383D01*
X165442963Y-100957412D01*
X165443056Y-100957441D01*
X165465429Y-100966928D01*
X165655905Y-101026452D01*
X165665850Y-101028516D01*
X165668804Y-101029740D01*
X165674396Y-101030290D01*
X165679898Y-101031433D01*
X165683081Y-101031146D01*
X165693190Y-101032142D01*
X166074142Y-101032142D01*
X166098528Y-101029740D01*
X166108159Y-101025750D01*
X166118440Y-101024029D01*
X166140392Y-101013142D01*
X166235630Y-100953618D01*
X166247086Y-100944785D01*
X166249878Y-100943248D01*
X166252297Y-100940767D01*
X166255036Y-100938656D01*
X166256884Y-100936064D01*
X166266987Y-100925706D01*
X166314608Y-100866183D01*
X166319622Y-100858471D01*
X166321773Y-100856268D01*
X166324608Y-100850803D01*
X166327966Y-100845641D01*
X166328823Y-100842682D01*
X166333060Y-100834519D01*
X166380679Y-100715470D01*
X166386729Y-100694610D01*
X166387217Y-100693433D01*
X166387292Y-100692669D01*
X166387505Y-100691936D01*
X166387489Y-100690666D01*
X166389619Y-100669047D01*
X166389619Y-100430952D01*
X166387489Y-100409332D01*
X166387505Y-100408063D01*
X166387292Y-100407329D01*
X166387217Y-100406566D01*
X166386729Y-100405388D01*
X166380679Y-100384529D01*
X166333060Y-100265480D01*
X166328822Y-100257314D01*
X166327966Y-100254359D01*
X166324610Y-100249198D01*
X166321773Y-100243731D01*
X166319621Y-100241526D01*
X166314608Y-100233816D01*
X166266988Y-100174292D01*
X166256887Y-100163936D01*
X166255036Y-100161341D01*
X166252291Y-100159225D01*
X166249878Y-100156751D01*
X166247091Y-100155216D01*
X166235629Y-100146380D01*
X166140391Y-100086857D01*
X166118439Y-100075969D01*
X166108157Y-100074247D01*
X166098528Y-100070259D01*
X166074142Y-100067857D01*
X165836047Y-100067857D01*
X165811661Y-100070259D01*
X165802031Y-100074247D01*
X165791750Y-100075969D01*
X165769798Y-100086857D01*
X165674560Y-100146380D01*
X165663099Y-100155214D01*
X165660310Y-100156751D01*
X165657894Y-100159227D01*
X165655153Y-100161341D01*
X165653303Y-100163934D01*
X165643200Y-100174293D01*
X165595581Y-100233817D01*
X165590568Y-100241524D01*
X165588417Y-100243730D01*
X165585580Y-100249197D01*
X165582223Y-100254360D01*
X165581365Y-100257319D01*
X165577131Y-100265480D01*
X165529511Y-100384528D01*
X165523459Y-100405390D01*
X165522973Y-100406566D01*
X165522897Y-100407327D01*
X165522685Y-100408062D01*
X165522700Y-100409332D01*
X165520571Y-100430952D01*
X165520571Y-100669047D01*
X165522700Y-100690666D01*
X165522685Y-100691937D01*
X165522897Y-100692671D01*
X165522973Y-100693433D01*
X165523459Y-100694608D01*
X165526360Y-100704610D01*
X165449579Y-100640625D01*
X165421418Y-100605423D01*
X165389619Y-100525925D01*
X165389619Y-100311904D01*
X165387217Y-100287518D01*
X165368553Y-100242458D01*
X165334065Y-100207970D01*
X165289005Y-100189306D01*
X165240233Y-100189306D01*
X165195173Y-100207970D01*
X165160685Y-100242458D01*
X165142021Y-100287518D01*
X165139619Y-100311904D01*
X163645172Y-100311904D01*
X163645172Y-98823809D01*
X164148722Y-98823809D01*
X164148722Y-99776189D01*
X164151124Y-99800575D01*
X164169788Y-99845635D01*
X164204276Y-99880123D01*
X164249336Y-99898787D01*
X164298108Y-99898787D01*
X164343168Y-99880123D01*
X164377656Y-99845635D01*
X164396320Y-99800575D01*
X164398722Y-99776189D01*
X164398722Y-98823809D01*
X164396320Y-98799423D01*
X164377656Y-98754363D01*
X164343168Y-98719875D01*
X164298108Y-98701211D01*
X164249336Y-98701211D01*
X164204276Y-98719875D01*
X164169788Y-98754363D01*
X164151124Y-98799423D01*
X164148722Y-98823809D01*
X163645172Y-98823809D01*
X163645172Y-98576211D01*
X166514619Y-98576211D01*
X166514619Y-102523787D01*
G37*
G36*
X166512217Y-112473787D02*
G01*
X163645172Y-112473787D01*
X163645172Y-111725613D01*
X163770172Y-111725613D01*
X163770172Y-111774385D01*
X163788836Y-111819445D01*
X163823324Y-111853933D01*
X163868384Y-111872597D01*
X163892770Y-111874999D01*
X164148722Y-111874999D01*
X164148722Y-112226189D01*
X164151124Y-112250575D01*
X164169788Y-112295635D01*
X164204276Y-112330123D01*
X164249336Y-112348787D01*
X164298108Y-112348787D01*
X164343168Y-112330123D01*
X164377656Y-112295635D01*
X164396320Y-112250575D01*
X164398722Y-112226189D01*
X164398722Y-111874999D01*
X164654675Y-111874999D01*
X164679061Y-111872597D01*
X164724121Y-111853933D01*
X164758609Y-111819445D01*
X164777273Y-111774385D01*
X164777273Y-111725613D01*
X164758609Y-111680553D01*
X164724121Y-111646065D01*
X164679061Y-111627401D01*
X164654675Y-111624999D01*
X164398722Y-111624999D01*
X164398722Y-111273809D01*
X164396320Y-111249423D01*
X164377656Y-111204363D01*
X164343168Y-111169875D01*
X164298108Y-111151211D01*
X164249336Y-111151211D01*
X164204276Y-111169875D01*
X164169788Y-111204363D01*
X164151124Y-111249423D01*
X164148722Y-111273809D01*
X164148722Y-111624999D01*
X163892770Y-111624999D01*
X163868384Y-111627401D01*
X163823324Y-111646065D01*
X163788836Y-111680553D01*
X163770172Y-111725613D01*
X163645172Y-111725613D01*
X163645172Y-110583652D01*
X165094351Y-110583652D01*
X165112921Y-110628752D01*
X165147337Y-110663311D01*
X165168923Y-110674908D01*
X165883208Y-110972527D01*
X165906642Y-110979689D01*
X165906776Y-110979689D01*
X165906899Y-110979740D01*
X165931028Y-110979740D01*
X165955414Y-110979791D01*
X165955538Y-110979740D01*
X165955671Y-110979740D01*
X165978031Y-110970478D01*
X166000514Y-110961221D01*
X166000608Y-110961126D01*
X166000731Y-110961076D01*
X166017914Y-110943892D01*
X166035073Y-110926805D01*
X166035123Y-110926683D01*
X166035219Y-110926588D01*
X166044508Y-110904160D01*
X166053832Y-110881785D01*
X166053832Y-110881650D01*
X166053883Y-110881528D01*
X166056285Y-110857142D01*
X166056285Y-110386904D01*
X166264619Y-110386904D01*
X166289005Y-110384502D01*
X166334065Y-110365838D01*
X166368553Y-110331350D01*
X166387217Y-110286290D01*
X166387217Y-110237518D01*
X166368553Y-110192458D01*
X166334065Y-110157970D01*
X166289005Y-110139306D01*
X166264619Y-110136904D01*
X166056285Y-110136904D01*
X166056285Y-110083333D01*
X166053883Y-110058947D01*
X166035219Y-110013887D01*
X166000731Y-109979399D01*
X165955671Y-109960735D01*
X165906899Y-109960735D01*
X165861839Y-109979399D01*
X165827351Y-110013887D01*
X165808687Y-110058947D01*
X165806285Y-110083333D01*
X165806285Y-110136904D01*
X165597952Y-110136904D01*
X165573566Y-110139306D01*
X165528506Y-110157970D01*
X165494018Y-110192458D01*
X165475354Y-110237518D01*
X165475354Y-110286290D01*
X165494018Y-110331350D01*
X165528506Y-110365838D01*
X165573566Y-110384502D01*
X165597952Y-110386904D01*
X165806285Y-110386904D01*
X165806285Y-110669641D01*
X165265077Y-110444138D01*
X165241643Y-110436976D01*
X165192871Y-110436874D01*
X165147771Y-110455444D01*
X165113212Y-110489860D01*
X165094453Y-110534880D01*
X165094351Y-110583652D01*
X163645172Y-110583652D01*
X163645172Y-108773809D01*
X164148722Y-108773809D01*
X164148722Y-109726189D01*
X164151124Y-109750575D01*
X164169788Y-109795635D01*
X164204276Y-109830123D01*
X164249336Y-109848787D01*
X164298108Y-109848787D01*
X164343168Y-109830123D01*
X164377656Y-109795635D01*
X164396320Y-109750575D01*
X164398722Y-109726189D01*
X164398722Y-108773809D01*
X164396320Y-108749423D01*
X164377656Y-108704363D01*
X164343168Y-108669875D01*
X164298108Y-108651211D01*
X164249336Y-108651211D01*
X164204276Y-108669875D01*
X164169788Y-108704363D01*
X164151124Y-108749423D01*
X164148722Y-108773809D01*
X163645172Y-108773809D01*
X163645172Y-108526211D01*
X166512217Y-108526211D01*
X166512217Y-112473787D01*
G37*
X140238095Y-60764619D02*
X140238095Y-61574142D01*
X140238095Y-61574142D02*
X140285714Y-61669380D01*
X140285714Y-61669380D02*
X140333333Y-61717000D01*
X140333333Y-61717000D02*
X140428571Y-61764619D01*
X140428571Y-61764619D02*
X140619047Y-61764619D01*
X140619047Y-61764619D02*
X140714285Y-61717000D01*
X140714285Y-61717000D02*
X140761904Y-61669380D01*
X140761904Y-61669380D02*
X140809523Y-61574142D01*
X140809523Y-61574142D02*
X140809523Y-60764619D01*
X141238095Y-61717000D02*
X141380952Y-61764619D01*
X141380952Y-61764619D02*
X141619047Y-61764619D01*
X141619047Y-61764619D02*
X141714285Y-61717000D01*
X141714285Y-61717000D02*
X141761904Y-61669380D01*
X141761904Y-61669380D02*
X141809523Y-61574142D01*
X141809523Y-61574142D02*
X141809523Y-61478904D01*
X141809523Y-61478904D02*
X141761904Y-61383666D01*
X141761904Y-61383666D02*
X141714285Y-61336047D01*
X141714285Y-61336047D02*
X141619047Y-61288428D01*
X141619047Y-61288428D02*
X141428571Y-61240809D01*
X141428571Y-61240809D02*
X141333333Y-61193190D01*
X141333333Y-61193190D02*
X141285714Y-61145571D01*
X141285714Y-61145571D02*
X141238095Y-61050333D01*
X141238095Y-61050333D02*
X141238095Y-60955095D01*
X141238095Y-60955095D02*
X141285714Y-60859857D01*
X141285714Y-60859857D02*
X141333333Y-60812238D01*
X141333333Y-60812238D02*
X141428571Y-60764619D01*
X141428571Y-60764619D02*
X141666666Y-60764619D01*
X141666666Y-60764619D02*
X141809523Y-60812238D01*
X142571428Y-61240809D02*
X142714285Y-61288428D01*
X142714285Y-61288428D02*
X142761904Y-61336047D01*
X142761904Y-61336047D02*
X142809523Y-61431285D01*
X142809523Y-61431285D02*
X142809523Y-61574142D01*
X142809523Y-61574142D02*
X142761904Y-61669380D01*
X142761904Y-61669380D02*
X142714285Y-61717000D01*
X142714285Y-61717000D02*
X142619047Y-61764619D01*
X142619047Y-61764619D02*
X142238095Y-61764619D01*
X142238095Y-61764619D02*
X142238095Y-60764619D01*
X142238095Y-60764619D02*
X142571428Y-60764619D01*
X142571428Y-60764619D02*
X142666666Y-60812238D01*
X142666666Y-60812238D02*
X142714285Y-60859857D01*
X142714285Y-60859857D02*
X142761904Y-60955095D01*
X142761904Y-60955095D02*
X142761904Y-61050333D01*
X142761904Y-61050333D02*
X142714285Y-61145571D01*
X142714285Y-61145571D02*
X142666666Y-61193190D01*
X142666666Y-61193190D02*
X142571428Y-61240809D01*
X142571428Y-61240809D02*
X142238095Y-61240809D01*
G36*
X166508119Y-127473787D02*
G01*
X163638672Y-127473787D01*
X163638672Y-126725613D01*
X163763672Y-126725613D01*
X163763672Y-126774385D01*
X163782336Y-126819445D01*
X163816824Y-126853933D01*
X163861884Y-126872597D01*
X163886270Y-126874999D01*
X164142222Y-126874999D01*
X164142222Y-127226189D01*
X164144624Y-127250575D01*
X164163288Y-127295635D01*
X164197776Y-127330123D01*
X164242836Y-127348787D01*
X164291608Y-127348787D01*
X164336668Y-127330123D01*
X164371156Y-127295635D01*
X164389820Y-127250575D01*
X164392222Y-127226189D01*
X164392222Y-126874999D01*
X164648175Y-126874999D01*
X164672561Y-126872597D01*
X164717621Y-126853933D01*
X164752109Y-126819445D01*
X164770773Y-126774385D01*
X164770773Y-126725613D01*
X164752109Y-126680553D01*
X164717621Y-126646065D01*
X164672561Y-126627401D01*
X164648175Y-126624999D01*
X164392222Y-126624999D01*
X164392222Y-126273809D01*
X164389820Y-126249423D01*
X164371156Y-126204363D01*
X164336668Y-126169875D01*
X164291608Y-126151211D01*
X164242836Y-126151211D01*
X164197776Y-126169875D01*
X164163288Y-126204363D01*
X164144624Y-126249423D01*
X164142222Y-126273809D01*
X164142222Y-126624999D01*
X163886270Y-126624999D01*
X163861884Y-126627401D01*
X163816824Y-126646065D01*
X163782336Y-126680553D01*
X163763672Y-126725613D01*
X163638672Y-126725613D01*
X163638672Y-125486812D01*
X165133816Y-125486812D01*
X165135521Y-125505565D01*
X165135521Y-125524385D01*
X165137713Y-125529677D01*
X165138232Y-125535385D01*
X165146981Y-125552053D01*
X165154185Y-125569445D01*
X165158237Y-125573497D01*
X165160900Y-125578570D01*
X165178096Y-125596026D01*
X165311252Y-125706991D01*
X165387032Y-125801715D01*
X165427774Y-125903566D01*
X165439061Y-125925316D01*
X165473125Y-125960222D01*
X165517954Y-125979434D01*
X165566723Y-125980028D01*
X165612007Y-125961915D01*
X165646912Y-125927851D01*
X165666125Y-125883021D01*
X165666719Y-125834252D01*
X165659893Y-125810718D01*
X165612274Y-125691671D01*
X165608037Y-125683508D01*
X165607181Y-125680551D01*
X165603825Y-125675391D01*
X165600987Y-125669921D01*
X165598833Y-125667714D01*
X165593823Y-125660009D01*
X165565815Y-125624999D01*
X166133119Y-125624999D01*
X166133119Y-125857142D01*
X166135521Y-125881528D01*
X166154185Y-125926588D01*
X166188673Y-125961076D01*
X166233733Y-125979740D01*
X166282505Y-125979740D01*
X166327565Y-125961076D01*
X166362053Y-125926588D01*
X166380717Y-125881528D01*
X166383119Y-125857142D01*
X166383119Y-125142857D01*
X166380717Y-125118471D01*
X166362053Y-125073411D01*
X166327565Y-125038923D01*
X166282505Y-125020259D01*
X166233733Y-125020259D01*
X166188673Y-125038923D01*
X166154185Y-125073411D01*
X166135521Y-125118471D01*
X166133119Y-125142857D01*
X166133119Y-125374999D01*
X165258119Y-125374999D01*
X165233733Y-125377401D01*
X165228440Y-125379593D01*
X165222733Y-125380112D01*
X165206064Y-125388861D01*
X165188673Y-125396065D01*
X165184620Y-125400117D01*
X165179548Y-125402780D01*
X165167496Y-125417241D01*
X165154185Y-125430553D01*
X165151992Y-125435845D01*
X165148325Y-125440247D01*
X165142723Y-125458223D01*
X165135521Y-125475613D01*
X165135521Y-125481339D01*
X165133816Y-125486812D01*
X163638672Y-125486812D01*
X163638672Y-123773809D01*
X164142222Y-123773809D01*
X164142222Y-124726189D01*
X164144624Y-124750575D01*
X164163288Y-124795635D01*
X164197776Y-124830123D01*
X164242836Y-124848787D01*
X164291608Y-124848787D01*
X164336668Y-124830123D01*
X164371156Y-124795635D01*
X164389820Y-124750575D01*
X164392222Y-124726189D01*
X164392222Y-123773809D01*
X164389820Y-123749423D01*
X164371156Y-123704363D01*
X164336668Y-123669875D01*
X164291608Y-123651211D01*
X164242836Y-123651211D01*
X164197776Y-123669875D01*
X164163288Y-123704363D01*
X164144624Y-123749423D01*
X164142222Y-123773809D01*
X163638672Y-123773809D01*
X163638672Y-123526211D01*
X166508119Y-123526211D01*
X166508119Y-127473787D01*
G37*
G36*
X166508119Y-122473787D02*
G01*
X163638672Y-122473787D01*
X163638672Y-121725613D01*
X163763672Y-121725613D01*
X163763672Y-121774385D01*
X163782336Y-121819445D01*
X163816824Y-121853933D01*
X163861884Y-121872597D01*
X163886270Y-121874999D01*
X164142222Y-121874999D01*
X164142222Y-122226189D01*
X164144624Y-122250575D01*
X164163288Y-122295635D01*
X164197776Y-122330123D01*
X164242836Y-122348787D01*
X164291608Y-122348787D01*
X164336668Y-122330123D01*
X164371156Y-122295635D01*
X164389820Y-122250575D01*
X164392222Y-122226189D01*
X164392222Y-121874999D01*
X164648175Y-121874999D01*
X164672561Y-121872597D01*
X164717621Y-121853933D01*
X164752109Y-121819445D01*
X164770773Y-121774385D01*
X164770773Y-121725613D01*
X164752109Y-121680553D01*
X164717621Y-121646065D01*
X164672561Y-121627401D01*
X164648175Y-121624999D01*
X164392222Y-121624999D01*
X164392222Y-121273809D01*
X164389820Y-121249423D01*
X164371156Y-121204363D01*
X164336668Y-121169875D01*
X164291608Y-121151211D01*
X164242836Y-121151211D01*
X164197776Y-121169875D01*
X164163288Y-121204363D01*
X164144624Y-121249423D01*
X164142222Y-121273809D01*
X164142222Y-121624999D01*
X163886270Y-121624999D01*
X163861884Y-121627401D01*
X163816824Y-121646065D01*
X163782336Y-121680553D01*
X163763672Y-121725613D01*
X163638672Y-121725613D01*
X163638672Y-120380952D01*
X165133119Y-120380952D01*
X165133119Y-120678571D01*
X165135248Y-120700190D01*
X165135233Y-120701461D01*
X165135445Y-120702195D01*
X165135521Y-120702957D01*
X165136007Y-120704132D01*
X165142059Y-120724995D01*
X165189679Y-120844042D01*
X165193912Y-120852200D01*
X165194771Y-120855162D01*
X165198131Y-120860330D01*
X165200966Y-120865792D01*
X165203115Y-120867994D01*
X165208129Y-120875705D01*
X165255748Y-120935229D01*
X165272858Y-120952771D01*
X165315581Y-120976297D01*
X165364056Y-120981684D01*
X165410901Y-120968109D01*
X165448986Y-120937642D01*
X165472512Y-120894919D01*
X165477899Y-120846444D01*
X165464324Y-120799598D01*
X165450966Y-120779055D01*
X165414918Y-120733995D01*
X165383119Y-120654496D01*
X165383119Y-120405025D01*
X165414918Y-120325527D01*
X165437665Y-120297093D01*
X165484444Y-120267857D01*
X165518833Y-120267857D01*
X165609072Y-120305456D01*
X166160511Y-120994753D01*
X166177620Y-121012295D01*
X166183736Y-121015663D01*
X166188673Y-121020600D01*
X166204925Y-121027332D01*
X166220343Y-121035822D01*
X166227285Y-121036593D01*
X166233733Y-121039264D01*
X166251322Y-121039264D01*
X166268818Y-121041208D01*
X166275526Y-121039264D01*
X166282505Y-121039264D01*
X166298759Y-121032531D01*
X166315663Y-121027633D01*
X166321114Y-121023271D01*
X166327565Y-121020600D01*
X166340008Y-121008157D01*
X166353748Y-120997165D01*
X166357116Y-120991048D01*
X166362053Y-120986112D01*
X166368783Y-120969861D01*
X166377275Y-120954443D01*
X166378046Y-120947499D01*
X166380717Y-120941052D01*
X166383119Y-120916666D01*
X166383119Y-120142857D01*
X166380717Y-120118471D01*
X166362053Y-120073411D01*
X166327565Y-120038923D01*
X166282505Y-120020259D01*
X166233733Y-120020259D01*
X166188673Y-120038923D01*
X166154185Y-120073411D01*
X166135521Y-120118471D01*
X166133119Y-120142857D01*
X166133119Y-120560317D01*
X165784299Y-120124293D01*
X165767189Y-120106751D01*
X165761186Y-120103445D01*
X165756352Y-120098591D01*
X165734766Y-120086995D01*
X165591909Y-120027472D01*
X165568475Y-120020310D01*
X165568341Y-120020309D01*
X165568219Y-120020259D01*
X165543833Y-120017857D01*
X165448595Y-120017857D01*
X165424209Y-120020259D01*
X165414579Y-120024247D01*
X165404298Y-120025969D01*
X165382346Y-120036857D01*
X165287108Y-120096380D01*
X165275647Y-120105214D01*
X165272858Y-120106751D01*
X165270442Y-120109227D01*
X165267701Y-120111341D01*
X165265851Y-120113934D01*
X165255748Y-120124293D01*
X165208129Y-120183817D01*
X165203116Y-120191524D01*
X165200965Y-120193730D01*
X165198128Y-120199197D01*
X165194771Y-120204360D01*
X165193913Y-120207319D01*
X165189679Y-120215480D01*
X165142059Y-120334528D01*
X165136007Y-120355390D01*
X165135521Y-120356566D01*
X165135445Y-120357327D01*
X165135233Y-120358062D01*
X165135248Y-120359332D01*
X165133119Y-120380952D01*
X163638672Y-120380952D01*
X163638672Y-118773809D01*
X164142222Y-118773809D01*
X164142222Y-119726189D01*
X164144624Y-119750575D01*
X164163288Y-119795635D01*
X164197776Y-119830123D01*
X164242836Y-119848787D01*
X164291608Y-119848787D01*
X164336668Y-119830123D01*
X164371156Y-119795635D01*
X164389820Y-119750575D01*
X164392222Y-119726189D01*
X164392222Y-118773809D01*
X164389820Y-118749423D01*
X164371156Y-118704363D01*
X164336668Y-118669875D01*
X164291608Y-118651211D01*
X164242836Y-118651211D01*
X164197776Y-118669875D01*
X164163288Y-118704363D01*
X164144624Y-118749423D01*
X164142222Y-118773809D01*
X163638672Y-118773809D01*
X163638672Y-118526211D01*
X166508119Y-118526211D01*
X166508119Y-122473787D01*
G37*
G36*
X166514619Y-107473787D02*
G01*
X163645172Y-107473787D01*
X163645172Y-106725613D01*
X163770172Y-106725613D01*
X163770172Y-106774385D01*
X163788836Y-106819445D01*
X163823324Y-106853933D01*
X163868384Y-106872597D01*
X163892770Y-106874999D01*
X164148722Y-106874999D01*
X164148722Y-107226189D01*
X164151124Y-107250575D01*
X164169788Y-107295635D01*
X164204276Y-107330123D01*
X164249336Y-107348787D01*
X164298108Y-107348787D01*
X164343168Y-107330123D01*
X164377656Y-107295635D01*
X164396320Y-107250575D01*
X164398722Y-107226189D01*
X164398722Y-106874999D01*
X164654675Y-106874999D01*
X164679061Y-106872597D01*
X164724121Y-106853933D01*
X164758609Y-106819445D01*
X164777273Y-106774385D01*
X164777273Y-106725613D01*
X164758609Y-106680553D01*
X164724121Y-106646065D01*
X164679061Y-106627401D01*
X164654675Y-106624999D01*
X164398722Y-106624999D01*
X164398722Y-106273809D01*
X164396320Y-106249423D01*
X164377656Y-106204363D01*
X164343168Y-106169875D01*
X164298108Y-106151211D01*
X164249336Y-106151211D01*
X164204276Y-106169875D01*
X164169788Y-106204363D01*
X164151124Y-106249423D01*
X164148722Y-106273809D01*
X164148722Y-106624999D01*
X163892770Y-106624999D01*
X163868384Y-106627401D01*
X163823324Y-106646065D01*
X163788836Y-106680553D01*
X163770172Y-106725613D01*
X163645172Y-106725613D01*
X163645172Y-105202380D01*
X165139619Y-105202380D01*
X165139619Y-105797618D01*
X165140257Y-105804096D01*
X165139943Y-105806609D01*
X165140818Y-105809791D01*
X165142021Y-105822004D01*
X165148432Y-105837482D01*
X165152874Y-105853636D01*
X165157685Y-105859822D01*
X165160685Y-105867064D01*
X165172532Y-105878911D01*
X165182818Y-105892136D01*
X165189631Y-105896010D01*
X165195173Y-105901552D01*
X165210649Y-105907962D01*
X165225215Y-105916245D01*
X165237185Y-105918953D01*
X165240233Y-105920216D01*
X165242764Y-105920216D01*
X165249115Y-105921653D01*
X165725305Y-105981177D01*
X165749800Y-105981818D01*
X165750638Y-105981587D01*
X165751508Y-105981684D01*
X165774162Y-105975118D01*
X165796827Y-105968887D01*
X165797515Y-105968351D01*
X165798353Y-105968109D01*
X165816764Y-105953380D01*
X165835327Y-105938943D01*
X165835757Y-105938186D01*
X165836438Y-105937642D01*
X165847802Y-105917003D01*
X165859436Y-105896546D01*
X165859544Y-105895681D01*
X165859964Y-105894919D01*
X165862566Y-105871501D01*
X165865485Y-105848151D01*
X165865254Y-105847312D01*
X165865351Y-105846444D01*
X165858788Y-105823798D01*
X165852554Y-105801124D01*
X165852018Y-105800435D01*
X165851776Y-105799598D01*
X165838418Y-105779055D01*
X165802370Y-105733995D01*
X165770571Y-105654496D01*
X165770571Y-105405025D01*
X165802370Y-105325527D01*
X165825117Y-105297093D01*
X165871896Y-105267857D01*
X166038293Y-105267857D01*
X166085073Y-105297094D01*
X166107819Y-105325525D01*
X166139619Y-105405023D01*
X166139619Y-105654498D01*
X166107819Y-105733996D01*
X166071772Y-105779054D01*
X166058414Y-105799597D01*
X166044839Y-105846442D01*
X166050224Y-105894917D01*
X166073751Y-105937640D01*
X166111835Y-105968108D01*
X166158680Y-105981683D01*
X166207155Y-105976298D01*
X166249878Y-105952771D01*
X166266988Y-105935230D01*
X166314608Y-105875706D01*
X166319619Y-105867998D01*
X166321773Y-105865792D01*
X166324612Y-105860320D01*
X166327966Y-105855163D01*
X166328822Y-105852207D01*
X166333060Y-105844042D01*
X166380679Y-105724995D01*
X166386730Y-105704132D01*
X166387217Y-105702957D01*
X166387292Y-105702195D01*
X166387505Y-105701461D01*
X166387489Y-105700190D01*
X166389619Y-105678571D01*
X166389619Y-105380952D01*
X166387489Y-105359332D01*
X166387505Y-105358063D01*
X166387292Y-105357329D01*
X166387217Y-105356566D01*
X166386729Y-105355388D01*
X166380679Y-105334529D01*
X166333060Y-105215480D01*
X166328822Y-105207314D01*
X166327966Y-105204359D01*
X166324610Y-105199198D01*
X166321773Y-105193731D01*
X166319621Y-105191526D01*
X166314608Y-105183816D01*
X166266988Y-105124292D01*
X166256887Y-105113936D01*
X166255036Y-105111341D01*
X166252291Y-105109225D01*
X166249878Y-105106751D01*
X166247091Y-105105216D01*
X166235629Y-105096380D01*
X166140391Y-105036857D01*
X166118439Y-105025969D01*
X166108157Y-105024247D01*
X166098528Y-105020259D01*
X166074142Y-105017857D01*
X165836047Y-105017857D01*
X165811661Y-105020259D01*
X165802031Y-105024247D01*
X165791750Y-105025969D01*
X165769798Y-105036857D01*
X165674560Y-105096380D01*
X165663099Y-105105214D01*
X165660310Y-105106751D01*
X165657894Y-105109227D01*
X165655153Y-105111341D01*
X165653303Y-105113934D01*
X165643200Y-105124293D01*
X165595581Y-105183817D01*
X165590568Y-105191524D01*
X165588417Y-105193730D01*
X165585580Y-105199197D01*
X165582223Y-105204360D01*
X165581365Y-105207319D01*
X165577131Y-105215480D01*
X165529511Y-105334528D01*
X165523459Y-105355390D01*
X165522973Y-105356566D01*
X165522897Y-105357327D01*
X165522685Y-105358062D01*
X165522700Y-105359332D01*
X165520571Y-105380952D01*
X165520571Y-105678571D01*
X165522700Y-105700190D01*
X165522685Y-105701461D01*
X165522897Y-105702195D01*
X165522973Y-105702957D01*
X165523402Y-105703992D01*
X165389619Y-105687270D01*
X165389619Y-105202380D01*
X165387217Y-105177994D01*
X165368553Y-105132934D01*
X165334065Y-105098446D01*
X165289005Y-105079782D01*
X165240233Y-105079782D01*
X165195173Y-105098446D01*
X165160685Y-105132934D01*
X165142021Y-105177994D01*
X165139619Y-105202380D01*
X163645172Y-105202380D01*
X163645172Y-103773809D01*
X164148722Y-103773809D01*
X164148722Y-104726189D01*
X164151124Y-104750575D01*
X164169788Y-104795635D01*
X164204276Y-104830123D01*
X164249336Y-104848787D01*
X164298108Y-104848787D01*
X164343168Y-104830123D01*
X164377656Y-104795635D01*
X164396320Y-104750575D01*
X164398722Y-104726189D01*
X164398722Y-103773809D01*
X164396320Y-103749423D01*
X164377656Y-103704363D01*
X164343168Y-103669875D01*
X164298108Y-103651211D01*
X164249336Y-103651211D01*
X164204276Y-103669875D01*
X164169788Y-103704363D01*
X164151124Y-103749423D01*
X164148722Y-103773809D01*
X163645172Y-103773809D01*
X163645172Y-103526211D01*
X166514619Y-103526211D01*
X166514619Y-107473787D01*
G37*
X144157143Y-60764619D02*
X144728571Y-60764619D01*
X144442857Y-61764619D02*
X144442857Y-60764619D01*
X145014286Y-61717000D02*
X145157143Y-61764619D01*
X145157143Y-61764619D02*
X145395238Y-61764619D01*
X145395238Y-61764619D02*
X145490476Y-61717000D01*
X145490476Y-61717000D02*
X145538095Y-61669380D01*
X145538095Y-61669380D02*
X145585714Y-61574142D01*
X145585714Y-61574142D02*
X145585714Y-61478904D01*
X145585714Y-61478904D02*
X145538095Y-61383666D01*
X145538095Y-61383666D02*
X145490476Y-61336047D01*
X145490476Y-61336047D02*
X145395238Y-61288428D01*
X145395238Y-61288428D02*
X145204762Y-61240809D01*
X145204762Y-61240809D02*
X145109524Y-61193190D01*
X145109524Y-61193190D02*
X145061905Y-61145571D01*
X145061905Y-61145571D02*
X145014286Y-61050333D01*
X145014286Y-61050333D02*
X145014286Y-60955095D01*
X145014286Y-60955095D02*
X145061905Y-60859857D01*
X145061905Y-60859857D02*
X145109524Y-60812238D01*
X145109524Y-60812238D02*
X145204762Y-60764619D01*
X145204762Y-60764619D02*
X145442857Y-60764619D01*
X145442857Y-60764619D02*
X145585714Y-60812238D01*
X145871429Y-60764619D02*
X146442857Y-60764619D01*
X146157143Y-61764619D02*
X146157143Y-60764619D01*
X136461905Y-60764619D02*
X137080952Y-60764619D01*
X137080952Y-60764619D02*
X136747619Y-61145571D01*
X136747619Y-61145571D02*
X136890476Y-61145571D01*
X136890476Y-61145571D02*
X136985714Y-61193190D01*
X136985714Y-61193190D02*
X137033333Y-61240809D01*
X137033333Y-61240809D02*
X137080952Y-61336047D01*
X137080952Y-61336047D02*
X137080952Y-61574142D01*
X137080952Y-61574142D02*
X137033333Y-61669380D01*
X137033333Y-61669380D02*
X136985714Y-61717000D01*
X136985714Y-61717000D02*
X136890476Y-61764619D01*
X136890476Y-61764619D02*
X136604762Y-61764619D01*
X136604762Y-61764619D02*
X136509524Y-61717000D01*
X136509524Y-61717000D02*
X136461905Y-61669380D01*
X137366667Y-60764619D02*
X137700000Y-61764619D01*
X137700000Y-61764619D02*
X138033333Y-60764619D01*
X138271429Y-60764619D02*
X138890476Y-60764619D01*
X138890476Y-60764619D02*
X138557143Y-61145571D01*
X138557143Y-61145571D02*
X138700000Y-61145571D01*
X138700000Y-61145571D02*
X138795238Y-61193190D01*
X138795238Y-61193190D02*
X138842857Y-61240809D01*
X138842857Y-61240809D02*
X138890476Y-61336047D01*
X138890476Y-61336047D02*
X138890476Y-61574142D01*
X138890476Y-61574142D02*
X138842857Y-61669380D01*
X138842857Y-61669380D02*
X138795238Y-61717000D01*
X138795238Y-61717000D02*
X138700000Y-61764619D01*
X138700000Y-61764619D02*
X138414286Y-61764619D01*
X138414286Y-61764619D02*
X138319048Y-61717000D01*
X138319048Y-61717000D02*
X138271429Y-61669380D01*
G36*
X166514029Y-97523787D02*
G01*
X163645172Y-97523787D01*
X163645172Y-96775613D01*
X163770172Y-96775613D01*
X163770172Y-96824385D01*
X163788836Y-96869445D01*
X163823324Y-96903933D01*
X163868384Y-96922597D01*
X163892770Y-96924999D01*
X164148722Y-96924999D01*
X164148722Y-97276189D01*
X164151124Y-97300575D01*
X164169788Y-97345635D01*
X164204276Y-97380123D01*
X164249336Y-97398787D01*
X164298108Y-97398787D01*
X164343168Y-97380123D01*
X164377656Y-97345635D01*
X164396320Y-97300575D01*
X164398722Y-97276189D01*
X164398722Y-96924999D01*
X164654675Y-96924999D01*
X164679061Y-96922597D01*
X164724121Y-96903933D01*
X164758609Y-96869445D01*
X164777273Y-96824385D01*
X164777273Y-96775613D01*
X164758609Y-96730553D01*
X164724121Y-96696065D01*
X164679061Y-96677401D01*
X164654675Y-96674999D01*
X164398722Y-96674999D01*
X164398722Y-96323809D01*
X164396320Y-96299423D01*
X164377656Y-96254363D01*
X164343168Y-96219875D01*
X164298108Y-96201211D01*
X164249336Y-96201211D01*
X164204276Y-96219875D01*
X164169788Y-96254363D01*
X164151124Y-96299423D01*
X164148722Y-96323809D01*
X164148722Y-96674999D01*
X163892770Y-96674999D01*
X163868384Y-96677401D01*
X163823324Y-96696065D01*
X163788836Y-96730553D01*
X163770172Y-96775613D01*
X163645172Y-96775613D01*
X163645172Y-95133333D01*
X165139619Y-95133333D01*
X165139619Y-95966666D01*
X165142021Y-95991052D01*
X165160685Y-96036112D01*
X165195173Y-96070600D01*
X165240233Y-96089264D01*
X165289005Y-96089264D01*
X165334065Y-96070600D01*
X165368553Y-96036112D01*
X165387217Y-95991052D01*
X165389619Y-95966666D01*
X165389619Y-95342104D01*
X166205592Y-95779232D01*
X166228222Y-95788630D01*
X166276755Y-95793457D01*
X166323441Y-95779342D01*
X166361171Y-95748436D01*
X166384203Y-95705445D01*
X166389029Y-95656912D01*
X166374914Y-95610225D01*
X166344009Y-95572495D01*
X166323647Y-95558862D01*
X165323647Y-95023148D01*
X165301017Y-95013750D01*
X165294788Y-95013130D01*
X165289005Y-95010735D01*
X165270703Y-95010735D01*
X165252484Y-95008923D01*
X165246491Y-95010735D01*
X165240233Y-95010735D01*
X165223321Y-95017739D01*
X165205797Y-95023038D01*
X165200955Y-95027003D01*
X165195173Y-95029399D01*
X165182226Y-95042345D01*
X165168067Y-95053944D01*
X165165111Y-95059460D01*
X165160685Y-95063887D01*
X165153678Y-95080801D01*
X165145036Y-95096935D01*
X165144416Y-95103163D01*
X165142021Y-95108947D01*
X165139619Y-95133333D01*
X163645172Y-95133333D01*
X163645172Y-93823809D01*
X164148722Y-93823809D01*
X164148722Y-94776189D01*
X164151124Y-94800575D01*
X164169788Y-94845635D01*
X164204276Y-94880123D01*
X164249336Y-94898787D01*
X164298108Y-94898787D01*
X164343168Y-94880123D01*
X164377656Y-94845635D01*
X164396320Y-94800575D01*
X164398722Y-94776189D01*
X164398722Y-93823809D01*
X164396320Y-93799423D01*
X164377656Y-93754363D01*
X164343168Y-93719875D01*
X164298108Y-93701211D01*
X164249336Y-93701211D01*
X164204276Y-93719875D01*
X164169788Y-93754363D01*
X164151124Y-93799423D01*
X164148722Y-93823809D01*
X163645172Y-93823809D01*
X163645172Y-93576211D01*
X166514029Y-93576211D01*
X166514029Y-97523787D01*
G37*
D13*
X132154819Y-66066666D02*
X131678628Y-66399999D01*
X132154819Y-66638094D02*
X131154819Y-66638094D01*
X131154819Y-66638094D02*
X131154819Y-66257142D01*
X131154819Y-66257142D02*
X131202438Y-66161904D01*
X131202438Y-66161904D02*
X131250057Y-66114285D01*
X131250057Y-66114285D02*
X131345295Y-66066666D01*
X131345295Y-66066666D02*
X131488152Y-66066666D01*
X131488152Y-66066666D02*
X131583390Y-66114285D01*
X131583390Y-66114285D02*
X131631009Y-66161904D01*
X131631009Y-66161904D02*
X131678628Y-66257142D01*
X131678628Y-66257142D02*
X131678628Y-66638094D01*
X131154819Y-65209523D02*
X131154819Y-65399999D01*
X131154819Y-65399999D02*
X131202438Y-65495237D01*
X131202438Y-65495237D02*
X131250057Y-65542856D01*
X131250057Y-65542856D02*
X131392914Y-65638094D01*
X131392914Y-65638094D02*
X131583390Y-65685713D01*
X131583390Y-65685713D02*
X131964342Y-65685713D01*
X131964342Y-65685713D02*
X132059580Y-65638094D01*
X132059580Y-65638094D02*
X132107200Y-65590475D01*
X132107200Y-65590475D02*
X132154819Y-65495237D01*
X132154819Y-65495237D02*
X132154819Y-65304761D01*
X132154819Y-65304761D02*
X132107200Y-65209523D01*
X132107200Y-65209523D02*
X132059580Y-65161904D01*
X132059580Y-65161904D02*
X131964342Y-65114285D01*
X131964342Y-65114285D02*
X131726247Y-65114285D01*
X131726247Y-65114285D02*
X131631009Y-65161904D01*
X131631009Y-65161904D02*
X131583390Y-65209523D01*
X131583390Y-65209523D02*
X131535771Y-65304761D01*
X131535771Y-65304761D02*
X131535771Y-65495237D01*
X131535771Y-65495237D02*
X131583390Y-65590475D01*
X131583390Y-65590475D02*
X131631009Y-65638094D01*
X131631009Y-65638094D02*
X131726247Y-65685713D01*
X132359580Y-84216666D02*
X132407200Y-84264285D01*
X132407200Y-84264285D02*
X132454819Y-84407142D01*
X132454819Y-84407142D02*
X132454819Y-84502380D01*
X132454819Y-84502380D02*
X132407200Y-84645237D01*
X132407200Y-84645237D02*
X132311961Y-84740475D01*
X132311961Y-84740475D02*
X132216723Y-84788094D01*
X132216723Y-84788094D02*
X132026247Y-84835713D01*
X132026247Y-84835713D02*
X131883390Y-84835713D01*
X131883390Y-84835713D02*
X131692914Y-84788094D01*
X131692914Y-84788094D02*
X131597676Y-84740475D01*
X131597676Y-84740475D02*
X131502438Y-84645237D01*
X131502438Y-84645237D02*
X131454819Y-84502380D01*
X131454819Y-84502380D02*
X131454819Y-84407142D01*
X131454819Y-84407142D02*
X131502438Y-84264285D01*
X131502438Y-84264285D02*
X131550057Y-84216666D01*
X132454819Y-83264285D02*
X132454819Y-83835713D01*
X132454819Y-83549999D02*
X131454819Y-83549999D01*
X131454819Y-83549999D02*
X131597676Y-83645237D01*
X131597676Y-83645237D02*
X131692914Y-83740475D01*
X131692914Y-83740475D02*
X131740533Y-83835713D01*
X161557142Y-80859580D02*
X161509523Y-80907200D01*
X161509523Y-80907200D02*
X161366666Y-80954819D01*
X161366666Y-80954819D02*
X161271428Y-80954819D01*
X161271428Y-80954819D02*
X161128571Y-80907200D01*
X161128571Y-80907200D02*
X161033333Y-80811961D01*
X161033333Y-80811961D02*
X160985714Y-80716723D01*
X160985714Y-80716723D02*
X160938095Y-80526247D01*
X160938095Y-80526247D02*
X160938095Y-80383390D01*
X160938095Y-80383390D02*
X160985714Y-80192914D01*
X160985714Y-80192914D02*
X161033333Y-80097676D01*
X161033333Y-80097676D02*
X161128571Y-80002438D01*
X161128571Y-80002438D02*
X161271428Y-79954819D01*
X161271428Y-79954819D02*
X161366666Y-79954819D01*
X161366666Y-79954819D02*
X161509523Y-80002438D01*
X161509523Y-80002438D02*
X161557142Y-80050057D01*
X162509523Y-80954819D02*
X161938095Y-80954819D01*
X162223809Y-80954819D02*
X162223809Y-79954819D01*
X162223809Y-79954819D02*
X162128571Y-80097676D01*
X162128571Y-80097676D02*
X162033333Y-80192914D01*
X162033333Y-80192914D02*
X161938095Y-80240533D01*
X163128571Y-79954819D02*
X163223809Y-79954819D01*
X163223809Y-79954819D02*
X163319047Y-80002438D01*
X163319047Y-80002438D02*
X163366666Y-80050057D01*
X163366666Y-80050057D02*
X163414285Y-80145295D01*
X163414285Y-80145295D02*
X163461904Y-80335771D01*
X163461904Y-80335771D02*
X163461904Y-80573866D01*
X163461904Y-80573866D02*
X163414285Y-80764342D01*
X163414285Y-80764342D02*
X163366666Y-80859580D01*
X163366666Y-80859580D02*
X163319047Y-80907200D01*
X163319047Y-80907200D02*
X163223809Y-80954819D01*
X163223809Y-80954819D02*
X163128571Y-80954819D01*
X163128571Y-80954819D02*
X163033333Y-80907200D01*
X163033333Y-80907200D02*
X162985714Y-80859580D01*
X162985714Y-80859580D02*
X162938095Y-80764342D01*
X162938095Y-80764342D02*
X162890476Y-80573866D01*
X162890476Y-80573866D02*
X162890476Y-80335771D01*
X162890476Y-80335771D02*
X162938095Y-80145295D01*
X162938095Y-80145295D02*
X162985714Y-80050057D01*
X162985714Y-80050057D02*
X163033333Y-80002438D01*
X163033333Y-80002438D02*
X163128571Y-79954819D01*
X145109580Y-68942857D02*
X145157200Y-68990476D01*
X145157200Y-68990476D02*
X145204819Y-69133333D01*
X145204819Y-69133333D02*
X145204819Y-69228571D01*
X145204819Y-69228571D02*
X145157200Y-69371428D01*
X145157200Y-69371428D02*
X145061961Y-69466666D01*
X145061961Y-69466666D02*
X144966723Y-69514285D01*
X144966723Y-69514285D02*
X144776247Y-69561904D01*
X144776247Y-69561904D02*
X144633390Y-69561904D01*
X144633390Y-69561904D02*
X144442914Y-69514285D01*
X144442914Y-69514285D02*
X144347676Y-69466666D01*
X144347676Y-69466666D02*
X144252438Y-69371428D01*
X144252438Y-69371428D02*
X144204819Y-69228571D01*
X144204819Y-69228571D02*
X144204819Y-69133333D01*
X144204819Y-69133333D02*
X144252438Y-68990476D01*
X144252438Y-68990476D02*
X144300057Y-68942857D01*
X145204819Y-67990476D02*
X145204819Y-68561904D01*
X145204819Y-68276190D02*
X144204819Y-68276190D01*
X144204819Y-68276190D02*
X144347676Y-68371428D01*
X144347676Y-68371428D02*
X144442914Y-68466666D01*
X144442914Y-68466666D02*
X144490533Y-68561904D01*
X144538152Y-67133333D02*
X145204819Y-67133333D01*
X144157200Y-67371428D02*
X144871485Y-67609523D01*
X144871485Y-67609523D02*
X144871485Y-66990476D01*
X133354819Y-66066666D02*
X132878628Y-66399999D01*
X133354819Y-66638094D02*
X132354819Y-66638094D01*
X132354819Y-66638094D02*
X132354819Y-66257142D01*
X132354819Y-66257142D02*
X132402438Y-66161904D01*
X132402438Y-66161904D02*
X132450057Y-66114285D01*
X132450057Y-66114285D02*
X132545295Y-66066666D01*
X132545295Y-66066666D02*
X132688152Y-66066666D01*
X132688152Y-66066666D02*
X132783390Y-66114285D01*
X132783390Y-66114285D02*
X132831009Y-66161904D01*
X132831009Y-66161904D02*
X132878628Y-66257142D01*
X132878628Y-66257142D02*
X132878628Y-66638094D01*
X132354819Y-65161904D02*
X132354819Y-65638094D01*
X132354819Y-65638094D02*
X132831009Y-65685713D01*
X132831009Y-65685713D02*
X132783390Y-65638094D01*
X132783390Y-65638094D02*
X132735771Y-65542856D01*
X132735771Y-65542856D02*
X132735771Y-65304761D01*
X132735771Y-65304761D02*
X132783390Y-65209523D01*
X132783390Y-65209523D02*
X132831009Y-65161904D01*
X132831009Y-65161904D02*
X132926247Y-65114285D01*
X132926247Y-65114285D02*
X133164342Y-65114285D01*
X133164342Y-65114285D02*
X133259580Y-65161904D01*
X133259580Y-65161904D02*
X133307200Y-65209523D01*
X133307200Y-65209523D02*
X133354819Y-65304761D01*
X133354819Y-65304761D02*
X133354819Y-65542856D01*
X133354819Y-65542856D02*
X133307200Y-65638094D01*
X133307200Y-65638094D02*
X133259580Y-65685713D01*
X133857142Y-83154819D02*
X133523809Y-82678628D01*
X133285714Y-83154819D02*
X133285714Y-82154819D01*
X133285714Y-82154819D02*
X133666666Y-82154819D01*
X133666666Y-82154819D02*
X133761904Y-82202438D01*
X133761904Y-82202438D02*
X133809523Y-82250057D01*
X133809523Y-82250057D02*
X133857142Y-82345295D01*
X133857142Y-82345295D02*
X133857142Y-82488152D01*
X133857142Y-82488152D02*
X133809523Y-82583390D01*
X133809523Y-82583390D02*
X133761904Y-82631009D01*
X133761904Y-82631009D02*
X133666666Y-82678628D01*
X133666666Y-82678628D02*
X133285714Y-82678628D01*
X134809523Y-83154819D02*
X134238095Y-83154819D01*
X134523809Y-83154819D02*
X134523809Y-82154819D01*
X134523809Y-82154819D02*
X134428571Y-82297676D01*
X134428571Y-82297676D02*
X134333333Y-82392914D01*
X134333333Y-82392914D02*
X134238095Y-82440533D01*
X135190476Y-82250057D02*
X135238095Y-82202438D01*
X135238095Y-82202438D02*
X135333333Y-82154819D01*
X135333333Y-82154819D02*
X135571428Y-82154819D01*
X135571428Y-82154819D02*
X135666666Y-82202438D01*
X135666666Y-82202438D02*
X135714285Y-82250057D01*
X135714285Y-82250057D02*
X135761904Y-82345295D01*
X135761904Y-82345295D02*
X135761904Y-82440533D01*
X135761904Y-82440533D02*
X135714285Y-82583390D01*
X135714285Y-82583390D02*
X135142857Y-83154819D01*
X135142857Y-83154819D02*
X135761904Y-83154819D01*
X149077142Y-80504819D02*
X148743809Y-80028628D01*
X148505714Y-80504819D02*
X148505714Y-79504819D01*
X148505714Y-79504819D02*
X148886666Y-79504819D01*
X148886666Y-79504819D02*
X148981904Y-79552438D01*
X148981904Y-79552438D02*
X149029523Y-79600057D01*
X149029523Y-79600057D02*
X149077142Y-79695295D01*
X149077142Y-79695295D02*
X149077142Y-79838152D01*
X149077142Y-79838152D02*
X149029523Y-79933390D01*
X149029523Y-79933390D02*
X148981904Y-79981009D01*
X148981904Y-79981009D02*
X148886666Y-80028628D01*
X148886666Y-80028628D02*
X148505714Y-80028628D01*
X150029523Y-80504819D02*
X149458095Y-80504819D01*
X149743809Y-80504819D02*
X149743809Y-79504819D01*
X149743809Y-79504819D02*
X149648571Y-79647676D01*
X149648571Y-79647676D02*
X149553333Y-79742914D01*
X149553333Y-79742914D02*
X149458095Y-79790533D01*
X150886666Y-79504819D02*
X150696190Y-79504819D01*
X150696190Y-79504819D02*
X150600952Y-79552438D01*
X150600952Y-79552438D02*
X150553333Y-79600057D01*
X150553333Y-79600057D02*
X150458095Y-79742914D01*
X150458095Y-79742914D02*
X150410476Y-79933390D01*
X150410476Y-79933390D02*
X150410476Y-80314342D01*
X150410476Y-80314342D02*
X150458095Y-80409580D01*
X150458095Y-80409580D02*
X150505714Y-80457200D01*
X150505714Y-80457200D02*
X150600952Y-80504819D01*
X150600952Y-80504819D02*
X150791428Y-80504819D01*
X150791428Y-80504819D02*
X150886666Y-80457200D01*
X150886666Y-80457200D02*
X150934285Y-80409580D01*
X150934285Y-80409580D02*
X150981904Y-80314342D01*
X150981904Y-80314342D02*
X150981904Y-80076247D01*
X150981904Y-80076247D02*
X150934285Y-79981009D01*
X150934285Y-79981009D02*
X150886666Y-79933390D01*
X150886666Y-79933390D02*
X150791428Y-79885771D01*
X150791428Y-79885771D02*
X150600952Y-79885771D01*
X150600952Y-79885771D02*
X150505714Y-79933390D01*
X150505714Y-79933390D02*
X150458095Y-79981009D01*
X150458095Y-79981009D02*
X150410476Y-80076247D01*
X144604819Y-65792857D02*
X144128628Y-66126190D01*
X144604819Y-66364285D02*
X143604819Y-66364285D01*
X143604819Y-66364285D02*
X143604819Y-65983333D01*
X143604819Y-65983333D02*
X143652438Y-65888095D01*
X143652438Y-65888095D02*
X143700057Y-65840476D01*
X143700057Y-65840476D02*
X143795295Y-65792857D01*
X143795295Y-65792857D02*
X143938152Y-65792857D01*
X143938152Y-65792857D02*
X144033390Y-65840476D01*
X144033390Y-65840476D02*
X144081009Y-65888095D01*
X144081009Y-65888095D02*
X144128628Y-65983333D01*
X144128628Y-65983333D02*
X144128628Y-66364285D01*
X143700057Y-65411904D02*
X143652438Y-65364285D01*
X143652438Y-65364285D02*
X143604819Y-65269047D01*
X143604819Y-65269047D02*
X143604819Y-65030952D01*
X143604819Y-65030952D02*
X143652438Y-64935714D01*
X143652438Y-64935714D02*
X143700057Y-64888095D01*
X143700057Y-64888095D02*
X143795295Y-64840476D01*
X143795295Y-64840476D02*
X143890533Y-64840476D01*
X143890533Y-64840476D02*
X144033390Y-64888095D01*
X144033390Y-64888095D02*
X144604819Y-65459523D01*
X144604819Y-65459523D02*
X144604819Y-64840476D01*
X143604819Y-63935714D02*
X143604819Y-64411904D01*
X143604819Y-64411904D02*
X144081009Y-64459523D01*
X144081009Y-64459523D02*
X144033390Y-64411904D01*
X144033390Y-64411904D02*
X143985771Y-64316666D01*
X143985771Y-64316666D02*
X143985771Y-64078571D01*
X143985771Y-64078571D02*
X144033390Y-63983333D01*
X144033390Y-63983333D02*
X144081009Y-63935714D01*
X144081009Y-63935714D02*
X144176247Y-63888095D01*
X144176247Y-63888095D02*
X144414342Y-63888095D01*
X144414342Y-63888095D02*
X144509580Y-63935714D01*
X144509580Y-63935714D02*
X144557200Y-63983333D01*
X144557200Y-63983333D02*
X144604819Y-64078571D01*
X144604819Y-64078571D02*
X144604819Y-64316666D01*
X144604819Y-64316666D02*
X144557200Y-64411904D01*
X144557200Y-64411904D02*
X144509580Y-64459523D01*
X149107142Y-79254819D02*
X148773809Y-78778628D01*
X148535714Y-79254819D02*
X148535714Y-78254819D01*
X148535714Y-78254819D02*
X148916666Y-78254819D01*
X148916666Y-78254819D02*
X149011904Y-78302438D01*
X149011904Y-78302438D02*
X149059523Y-78350057D01*
X149059523Y-78350057D02*
X149107142Y-78445295D01*
X149107142Y-78445295D02*
X149107142Y-78588152D01*
X149107142Y-78588152D02*
X149059523Y-78683390D01*
X149059523Y-78683390D02*
X149011904Y-78731009D01*
X149011904Y-78731009D02*
X148916666Y-78778628D01*
X148916666Y-78778628D02*
X148535714Y-78778628D01*
X150059523Y-79254819D02*
X149488095Y-79254819D01*
X149773809Y-79254819D02*
X149773809Y-78254819D01*
X149773809Y-78254819D02*
X149678571Y-78397676D01*
X149678571Y-78397676D02*
X149583333Y-78492914D01*
X149583333Y-78492914D02*
X149488095Y-78540533D01*
X150964285Y-78254819D02*
X150488095Y-78254819D01*
X150488095Y-78254819D02*
X150440476Y-78731009D01*
X150440476Y-78731009D02*
X150488095Y-78683390D01*
X150488095Y-78683390D02*
X150583333Y-78635771D01*
X150583333Y-78635771D02*
X150821428Y-78635771D01*
X150821428Y-78635771D02*
X150916666Y-78683390D01*
X150916666Y-78683390D02*
X150964285Y-78731009D01*
X150964285Y-78731009D02*
X151011904Y-78826247D01*
X151011904Y-78826247D02*
X151011904Y-79064342D01*
X151011904Y-79064342D02*
X150964285Y-79159580D01*
X150964285Y-79159580D02*
X150916666Y-79207200D01*
X150916666Y-79207200D02*
X150821428Y-79254819D01*
X150821428Y-79254819D02*
X150583333Y-79254819D01*
X150583333Y-79254819D02*
X150488095Y-79207200D01*
X150488095Y-79207200D02*
X150440476Y-79159580D01*
D14*
X141254318Y-108973332D02*
X142161461Y-108973332D01*
X142161461Y-108973332D02*
X142342889Y-109033809D01*
X142342889Y-109033809D02*
X142463842Y-109154761D01*
X142463842Y-109154761D02*
X142524318Y-109336190D01*
X142524318Y-109336190D02*
X142524318Y-109457142D01*
X141677651Y-107824285D02*
X142524318Y-107824285D01*
X141193842Y-108126666D02*
X142100984Y-108429047D01*
X142100984Y-108429047D02*
X142100984Y-107642856D01*
D13*
X119583333Y-80504819D02*
X119250000Y-80028628D01*
X119011905Y-80504819D02*
X119011905Y-79504819D01*
X119011905Y-79504819D02*
X119392857Y-79504819D01*
X119392857Y-79504819D02*
X119488095Y-79552438D01*
X119488095Y-79552438D02*
X119535714Y-79600057D01*
X119535714Y-79600057D02*
X119583333Y-79695295D01*
X119583333Y-79695295D02*
X119583333Y-79838152D01*
X119583333Y-79838152D02*
X119535714Y-79933390D01*
X119535714Y-79933390D02*
X119488095Y-79981009D01*
X119488095Y-79981009D02*
X119392857Y-80028628D01*
X119392857Y-80028628D02*
X119011905Y-80028628D01*
X119964286Y-79600057D02*
X120011905Y-79552438D01*
X120011905Y-79552438D02*
X120107143Y-79504819D01*
X120107143Y-79504819D02*
X120345238Y-79504819D01*
X120345238Y-79504819D02*
X120440476Y-79552438D01*
X120440476Y-79552438D02*
X120488095Y-79600057D01*
X120488095Y-79600057D02*
X120535714Y-79695295D01*
X120535714Y-79695295D02*
X120535714Y-79790533D01*
X120535714Y-79790533D02*
X120488095Y-79933390D01*
X120488095Y-79933390D02*
X119916667Y-80504819D01*
X119916667Y-80504819D02*
X120535714Y-80504819D01*
X138254819Y-65952857D02*
X137778628Y-66286190D01*
X138254819Y-66524285D02*
X137254819Y-66524285D01*
X137254819Y-66524285D02*
X137254819Y-66143333D01*
X137254819Y-66143333D02*
X137302438Y-66048095D01*
X137302438Y-66048095D02*
X137350057Y-66000476D01*
X137350057Y-66000476D02*
X137445295Y-65952857D01*
X137445295Y-65952857D02*
X137588152Y-65952857D01*
X137588152Y-65952857D02*
X137683390Y-66000476D01*
X137683390Y-66000476D02*
X137731009Y-66048095D01*
X137731009Y-66048095D02*
X137778628Y-66143333D01*
X137778628Y-66143333D02*
X137778628Y-66524285D01*
X138254819Y-65000476D02*
X138254819Y-65571904D01*
X138254819Y-65286190D02*
X137254819Y-65286190D01*
X137254819Y-65286190D02*
X137397676Y-65381428D01*
X137397676Y-65381428D02*
X137492914Y-65476666D01*
X137492914Y-65476666D02*
X137540533Y-65571904D01*
X137254819Y-64667142D02*
X137254819Y-64048095D01*
X137254819Y-64048095D02*
X137635771Y-64381428D01*
X137635771Y-64381428D02*
X137635771Y-64238571D01*
X137635771Y-64238571D02*
X137683390Y-64143333D01*
X137683390Y-64143333D02*
X137731009Y-64095714D01*
X137731009Y-64095714D02*
X137826247Y-64048095D01*
X137826247Y-64048095D02*
X138064342Y-64048095D01*
X138064342Y-64048095D02*
X138159580Y-64095714D01*
X138159580Y-64095714D02*
X138207200Y-64143333D01*
X138207200Y-64143333D02*
X138254819Y-64238571D01*
X138254819Y-64238571D02*
X138254819Y-64524285D01*
X138254819Y-64524285D02*
X138207200Y-64619523D01*
X138207200Y-64619523D02*
X138159580Y-64667142D01*
X154654819Y-76814285D02*
X153654819Y-76814285D01*
X153654819Y-76814285D02*
X153654819Y-76576190D01*
X153654819Y-76576190D02*
X153702438Y-76433333D01*
X153702438Y-76433333D02*
X153797676Y-76338095D01*
X153797676Y-76338095D02*
X153892914Y-76290476D01*
X153892914Y-76290476D02*
X154083390Y-76242857D01*
X154083390Y-76242857D02*
X154226247Y-76242857D01*
X154226247Y-76242857D02*
X154416723Y-76290476D01*
X154416723Y-76290476D02*
X154511961Y-76338095D01*
X154511961Y-76338095D02*
X154607200Y-76433333D01*
X154607200Y-76433333D02*
X154654819Y-76576190D01*
X154654819Y-76576190D02*
X154654819Y-76814285D01*
X154654819Y-75290476D02*
X154654819Y-75861904D01*
X154654819Y-75576190D02*
X153654819Y-75576190D01*
X153654819Y-75576190D02*
X153797676Y-75671428D01*
X153797676Y-75671428D02*
X153892914Y-75766666D01*
X153892914Y-75766666D02*
X153940533Y-75861904D01*
X154654819Y-74338095D02*
X154654819Y-74909523D01*
X154654819Y-74623809D02*
X153654819Y-74623809D01*
X153654819Y-74623809D02*
X153797676Y-74719047D01*
X153797676Y-74719047D02*
X153892914Y-74814285D01*
X153892914Y-74814285D02*
X153940533Y-74909523D01*
X138607142Y-68334819D02*
X138273809Y-67858628D01*
X138035714Y-68334819D02*
X138035714Y-67334819D01*
X138035714Y-67334819D02*
X138416666Y-67334819D01*
X138416666Y-67334819D02*
X138511904Y-67382438D01*
X138511904Y-67382438D02*
X138559523Y-67430057D01*
X138559523Y-67430057D02*
X138607142Y-67525295D01*
X138607142Y-67525295D02*
X138607142Y-67668152D01*
X138607142Y-67668152D02*
X138559523Y-67763390D01*
X138559523Y-67763390D02*
X138511904Y-67811009D01*
X138511904Y-67811009D02*
X138416666Y-67858628D01*
X138416666Y-67858628D02*
X138035714Y-67858628D01*
X138988095Y-67430057D02*
X139035714Y-67382438D01*
X139035714Y-67382438D02*
X139130952Y-67334819D01*
X139130952Y-67334819D02*
X139369047Y-67334819D01*
X139369047Y-67334819D02*
X139464285Y-67382438D01*
X139464285Y-67382438D02*
X139511904Y-67430057D01*
X139511904Y-67430057D02*
X139559523Y-67525295D01*
X139559523Y-67525295D02*
X139559523Y-67620533D01*
X139559523Y-67620533D02*
X139511904Y-67763390D01*
X139511904Y-67763390D02*
X138940476Y-68334819D01*
X138940476Y-68334819D02*
X139559523Y-68334819D01*
X139892857Y-67334819D02*
X140511904Y-67334819D01*
X140511904Y-67334819D02*
X140178571Y-67715771D01*
X140178571Y-67715771D02*
X140321428Y-67715771D01*
X140321428Y-67715771D02*
X140416666Y-67763390D01*
X140416666Y-67763390D02*
X140464285Y-67811009D01*
X140464285Y-67811009D02*
X140511904Y-67906247D01*
X140511904Y-67906247D02*
X140511904Y-68144342D01*
X140511904Y-68144342D02*
X140464285Y-68239580D01*
X140464285Y-68239580D02*
X140416666Y-68287200D01*
X140416666Y-68287200D02*
X140321428Y-68334819D01*
X140321428Y-68334819D02*
X140035714Y-68334819D01*
X140035714Y-68334819D02*
X139940476Y-68287200D01*
X139940476Y-68287200D02*
X139892857Y-68239580D01*
X159333333Y-76759580D02*
X159285714Y-76807200D01*
X159285714Y-76807200D02*
X159142857Y-76854819D01*
X159142857Y-76854819D02*
X159047619Y-76854819D01*
X159047619Y-76854819D02*
X158904762Y-76807200D01*
X158904762Y-76807200D02*
X158809524Y-76711961D01*
X158809524Y-76711961D02*
X158761905Y-76616723D01*
X158761905Y-76616723D02*
X158714286Y-76426247D01*
X158714286Y-76426247D02*
X158714286Y-76283390D01*
X158714286Y-76283390D02*
X158761905Y-76092914D01*
X158761905Y-76092914D02*
X158809524Y-75997676D01*
X158809524Y-75997676D02*
X158904762Y-75902438D01*
X158904762Y-75902438D02*
X159047619Y-75854819D01*
X159047619Y-75854819D02*
X159142857Y-75854819D01*
X159142857Y-75854819D02*
X159285714Y-75902438D01*
X159285714Y-75902438D02*
X159333333Y-75950057D01*
X160238095Y-75854819D02*
X159761905Y-75854819D01*
X159761905Y-75854819D02*
X159714286Y-76331009D01*
X159714286Y-76331009D02*
X159761905Y-76283390D01*
X159761905Y-76283390D02*
X159857143Y-76235771D01*
X159857143Y-76235771D02*
X160095238Y-76235771D01*
X160095238Y-76235771D02*
X160190476Y-76283390D01*
X160190476Y-76283390D02*
X160238095Y-76331009D01*
X160238095Y-76331009D02*
X160285714Y-76426247D01*
X160285714Y-76426247D02*
X160285714Y-76664342D01*
X160285714Y-76664342D02*
X160238095Y-76759580D01*
X160238095Y-76759580D02*
X160190476Y-76807200D01*
X160190476Y-76807200D02*
X160095238Y-76854819D01*
X160095238Y-76854819D02*
X159857143Y-76854819D01*
X159857143Y-76854819D02*
X159761905Y-76807200D01*
X159761905Y-76807200D02*
X159714286Y-76759580D01*
X142204819Y-64876666D02*
X141728628Y-65209999D01*
X142204819Y-65448094D02*
X141204819Y-65448094D01*
X141204819Y-65448094D02*
X141204819Y-65067142D01*
X141204819Y-65067142D02*
X141252438Y-64971904D01*
X141252438Y-64971904D02*
X141300057Y-64924285D01*
X141300057Y-64924285D02*
X141395295Y-64876666D01*
X141395295Y-64876666D02*
X141538152Y-64876666D01*
X141538152Y-64876666D02*
X141633390Y-64924285D01*
X141633390Y-64924285D02*
X141681009Y-64971904D01*
X141681009Y-64971904D02*
X141728628Y-65067142D01*
X141728628Y-65067142D02*
X141728628Y-65448094D01*
X141204819Y-64543332D02*
X141204819Y-63876666D01*
X141204819Y-63876666D02*
X142204819Y-64305237D01*
X127238095Y-75092319D02*
X127238095Y-75901842D01*
X127238095Y-75901842D02*
X127285714Y-75997080D01*
X127285714Y-75997080D02*
X127333333Y-76044700D01*
X127333333Y-76044700D02*
X127428571Y-76092319D01*
X127428571Y-76092319D02*
X127619047Y-76092319D01*
X127619047Y-76092319D02*
X127714285Y-76044700D01*
X127714285Y-76044700D02*
X127761904Y-75997080D01*
X127761904Y-75997080D02*
X127809523Y-75901842D01*
X127809523Y-75901842D02*
X127809523Y-75092319D01*
X128190476Y-75092319D02*
X128809523Y-75092319D01*
X128809523Y-75092319D02*
X128476190Y-75473271D01*
X128476190Y-75473271D02*
X128619047Y-75473271D01*
X128619047Y-75473271D02*
X128714285Y-75520890D01*
X128714285Y-75520890D02*
X128761904Y-75568509D01*
X128761904Y-75568509D02*
X128809523Y-75663747D01*
X128809523Y-75663747D02*
X128809523Y-75901842D01*
X128809523Y-75901842D02*
X128761904Y-75997080D01*
X128761904Y-75997080D02*
X128714285Y-76044700D01*
X128714285Y-76044700D02*
X128619047Y-76092319D01*
X128619047Y-76092319D02*
X128333333Y-76092319D01*
X128333333Y-76092319D02*
X128238095Y-76044700D01*
X128238095Y-76044700D02*
X128190476Y-75997080D01*
X126380750Y-73354819D02*
X126380750Y-73592914D01*
X126142655Y-73497676D02*
X126380750Y-73592914D01*
X126380750Y-73592914D02*
X126618845Y-73497676D01*
X126237893Y-73783390D02*
X126380750Y-73592914D01*
X126380750Y-73592914D02*
X126523607Y-73783390D01*
X141699580Y-69192857D02*
X141747200Y-69240476D01*
X141747200Y-69240476D02*
X141794819Y-69383333D01*
X141794819Y-69383333D02*
X141794819Y-69478571D01*
X141794819Y-69478571D02*
X141747200Y-69621428D01*
X141747200Y-69621428D02*
X141651961Y-69716666D01*
X141651961Y-69716666D02*
X141556723Y-69764285D01*
X141556723Y-69764285D02*
X141366247Y-69811904D01*
X141366247Y-69811904D02*
X141223390Y-69811904D01*
X141223390Y-69811904D02*
X141032914Y-69764285D01*
X141032914Y-69764285D02*
X140937676Y-69716666D01*
X140937676Y-69716666D02*
X140842438Y-69621428D01*
X140842438Y-69621428D02*
X140794819Y-69478571D01*
X140794819Y-69478571D02*
X140794819Y-69383333D01*
X140794819Y-69383333D02*
X140842438Y-69240476D01*
X140842438Y-69240476D02*
X140890057Y-69192857D01*
X141794819Y-68240476D02*
X141794819Y-68811904D01*
X141794819Y-68526190D02*
X140794819Y-68526190D01*
X140794819Y-68526190D02*
X140937676Y-68621428D01*
X140937676Y-68621428D02*
X141032914Y-68716666D01*
X141032914Y-68716666D02*
X141080533Y-68811904D01*
X140794819Y-67907142D02*
X140794819Y-67288095D01*
X140794819Y-67288095D02*
X141175771Y-67621428D01*
X141175771Y-67621428D02*
X141175771Y-67478571D01*
X141175771Y-67478571D02*
X141223390Y-67383333D01*
X141223390Y-67383333D02*
X141271009Y-67335714D01*
X141271009Y-67335714D02*
X141366247Y-67288095D01*
X141366247Y-67288095D02*
X141604342Y-67288095D01*
X141604342Y-67288095D02*
X141699580Y-67335714D01*
X141699580Y-67335714D02*
X141747200Y-67383333D01*
X141747200Y-67383333D02*
X141794819Y-67478571D01*
X141794819Y-67478571D02*
X141794819Y-67764285D01*
X141794819Y-67764285D02*
X141747200Y-67859523D01*
X141747200Y-67859523D02*
X141699580Y-67907142D01*
D14*
X126254318Y-108973332D02*
X127161461Y-108973332D01*
X127161461Y-108973332D02*
X127342889Y-109033809D01*
X127342889Y-109033809D02*
X127463842Y-109154761D01*
X127463842Y-109154761D02*
X127524318Y-109336190D01*
X127524318Y-109336190D02*
X127524318Y-109457142D01*
X126254318Y-108489523D02*
X126254318Y-107703332D01*
X126254318Y-107703332D02*
X126738127Y-108126666D01*
X126738127Y-108126666D02*
X126738127Y-107945237D01*
X126738127Y-107945237D02*
X126798603Y-107824285D01*
X126798603Y-107824285D02*
X126859080Y-107763809D01*
X126859080Y-107763809D02*
X126980032Y-107703332D01*
X126980032Y-107703332D02*
X127282413Y-107703332D01*
X127282413Y-107703332D02*
X127403365Y-107763809D01*
X127403365Y-107763809D02*
X127463842Y-107824285D01*
X127463842Y-107824285D02*
X127524318Y-107945237D01*
X127524318Y-107945237D02*
X127524318Y-108308094D01*
X127524318Y-108308094D02*
X127463842Y-108429047D01*
X127463842Y-108429047D02*
X127403365Y-108489523D01*
D13*
X156527287Y-70994612D02*
X156527287Y-71709173D01*
X156527287Y-71709173D02*
X156479650Y-71852086D01*
X156479650Y-71852086D02*
X156384375Y-71947361D01*
X156384375Y-71947361D02*
X156241463Y-71994998D01*
X156241463Y-71994998D02*
X156146188Y-71994998D01*
X156956024Y-71089887D02*
X157003662Y-71042249D01*
X157003662Y-71042249D02*
X157098937Y-70994612D01*
X157098937Y-70994612D02*
X157337124Y-70994612D01*
X157337124Y-70994612D02*
X157432399Y-71042249D01*
X157432399Y-71042249D02*
X157480036Y-71089887D01*
X157480036Y-71089887D02*
X157527673Y-71185162D01*
X157527673Y-71185162D02*
X157527673Y-71280437D01*
X157527673Y-71280437D02*
X157480036Y-71423349D01*
X157480036Y-71423349D02*
X156908387Y-71994998D01*
X156908387Y-71994998D02*
X157527673Y-71994998D01*
X133833333Y-79404819D02*
X133500000Y-78928628D01*
X133261905Y-79404819D02*
X133261905Y-78404819D01*
X133261905Y-78404819D02*
X133642857Y-78404819D01*
X133642857Y-78404819D02*
X133738095Y-78452438D01*
X133738095Y-78452438D02*
X133785714Y-78500057D01*
X133785714Y-78500057D02*
X133833333Y-78595295D01*
X133833333Y-78595295D02*
X133833333Y-78738152D01*
X133833333Y-78738152D02*
X133785714Y-78833390D01*
X133785714Y-78833390D02*
X133738095Y-78881009D01*
X133738095Y-78881009D02*
X133642857Y-78928628D01*
X133642857Y-78928628D02*
X133261905Y-78928628D01*
X134309524Y-79404819D02*
X134500000Y-79404819D01*
X134500000Y-79404819D02*
X134595238Y-79357200D01*
X134595238Y-79357200D02*
X134642857Y-79309580D01*
X134642857Y-79309580D02*
X134738095Y-79166723D01*
X134738095Y-79166723D02*
X134785714Y-78976247D01*
X134785714Y-78976247D02*
X134785714Y-78595295D01*
X134785714Y-78595295D02*
X134738095Y-78500057D01*
X134738095Y-78500057D02*
X134690476Y-78452438D01*
X134690476Y-78452438D02*
X134595238Y-78404819D01*
X134595238Y-78404819D02*
X134404762Y-78404819D01*
X134404762Y-78404819D02*
X134309524Y-78452438D01*
X134309524Y-78452438D02*
X134261905Y-78500057D01*
X134261905Y-78500057D02*
X134214286Y-78595295D01*
X134214286Y-78595295D02*
X134214286Y-78833390D01*
X134214286Y-78833390D02*
X134261905Y-78928628D01*
X134261905Y-78928628D02*
X134309524Y-78976247D01*
X134309524Y-78976247D02*
X134404762Y-79023866D01*
X134404762Y-79023866D02*
X134595238Y-79023866D01*
X134595238Y-79023866D02*
X134690476Y-78976247D01*
X134690476Y-78976247D02*
X134738095Y-78928628D01*
X134738095Y-78928628D02*
X134785714Y-78833390D01*
X133857142Y-81904819D02*
X133523809Y-81428628D01*
X133285714Y-81904819D02*
X133285714Y-80904819D01*
X133285714Y-80904819D02*
X133666666Y-80904819D01*
X133666666Y-80904819D02*
X133761904Y-80952438D01*
X133761904Y-80952438D02*
X133809523Y-81000057D01*
X133809523Y-81000057D02*
X133857142Y-81095295D01*
X133857142Y-81095295D02*
X133857142Y-81238152D01*
X133857142Y-81238152D02*
X133809523Y-81333390D01*
X133809523Y-81333390D02*
X133761904Y-81381009D01*
X133761904Y-81381009D02*
X133666666Y-81428628D01*
X133666666Y-81428628D02*
X133285714Y-81428628D01*
X134809523Y-81904819D02*
X134238095Y-81904819D01*
X134523809Y-81904819D02*
X134523809Y-80904819D01*
X134523809Y-80904819D02*
X134428571Y-81047676D01*
X134428571Y-81047676D02*
X134333333Y-81142914D01*
X134333333Y-81142914D02*
X134238095Y-81190533D01*
X135761904Y-81904819D02*
X135190476Y-81904819D01*
X135476190Y-81904819D02*
X135476190Y-80904819D01*
X135476190Y-80904819D02*
X135380952Y-81047676D01*
X135380952Y-81047676D02*
X135285714Y-81142914D01*
X135285714Y-81142914D02*
X135190476Y-81190533D01*
X148823809Y-74878628D02*
X148823809Y-75354819D01*
X148490476Y-74354819D02*
X148823809Y-74878628D01*
X148823809Y-74878628D02*
X149157142Y-74354819D01*
X150014285Y-75354819D02*
X149442857Y-75354819D01*
X149728571Y-75354819D02*
X149728571Y-74354819D01*
X149728571Y-74354819D02*
X149633333Y-74497676D01*
X149633333Y-74497676D02*
X149538095Y-74592914D01*
X149538095Y-74592914D02*
X149442857Y-74640533D01*
X136588095Y-69004819D02*
X136588095Y-69814342D01*
X136588095Y-69814342D02*
X136635714Y-69909580D01*
X136635714Y-69909580D02*
X136683333Y-69957200D01*
X136683333Y-69957200D02*
X136778571Y-70004819D01*
X136778571Y-70004819D02*
X136969047Y-70004819D01*
X136969047Y-70004819D02*
X137064285Y-69957200D01*
X137064285Y-69957200D02*
X137111904Y-69909580D01*
X137111904Y-69909580D02*
X137159523Y-69814342D01*
X137159523Y-69814342D02*
X137159523Y-69004819D01*
X138111904Y-69004819D02*
X137635714Y-69004819D01*
X137635714Y-69004819D02*
X137588095Y-69481009D01*
X137588095Y-69481009D02*
X137635714Y-69433390D01*
X137635714Y-69433390D02*
X137730952Y-69385771D01*
X137730952Y-69385771D02*
X137969047Y-69385771D01*
X137969047Y-69385771D02*
X138064285Y-69433390D01*
X138064285Y-69433390D02*
X138111904Y-69481009D01*
X138111904Y-69481009D02*
X138159523Y-69576247D01*
X138159523Y-69576247D02*
X138159523Y-69814342D01*
X138159523Y-69814342D02*
X138111904Y-69909580D01*
X138111904Y-69909580D02*
X138064285Y-69957200D01*
X138064285Y-69957200D02*
X137969047Y-70004819D01*
X137969047Y-70004819D02*
X137730952Y-70004819D01*
X137730952Y-70004819D02*
X137635714Y-69957200D01*
X137635714Y-69957200D02*
X137588095Y-69909580D01*
X149077142Y-83004819D02*
X148743809Y-82528628D01*
X148505714Y-83004819D02*
X148505714Y-82004819D01*
X148505714Y-82004819D02*
X148886666Y-82004819D01*
X148886666Y-82004819D02*
X148981904Y-82052438D01*
X148981904Y-82052438D02*
X149029523Y-82100057D01*
X149029523Y-82100057D02*
X149077142Y-82195295D01*
X149077142Y-82195295D02*
X149077142Y-82338152D01*
X149077142Y-82338152D02*
X149029523Y-82433390D01*
X149029523Y-82433390D02*
X148981904Y-82481009D01*
X148981904Y-82481009D02*
X148886666Y-82528628D01*
X148886666Y-82528628D02*
X148505714Y-82528628D01*
X150029523Y-83004819D02*
X149458095Y-83004819D01*
X149743809Y-83004819D02*
X149743809Y-82004819D01*
X149743809Y-82004819D02*
X149648571Y-82147676D01*
X149648571Y-82147676D02*
X149553333Y-82242914D01*
X149553333Y-82242914D02*
X149458095Y-82290533D01*
X150600952Y-82433390D02*
X150505714Y-82385771D01*
X150505714Y-82385771D02*
X150458095Y-82338152D01*
X150458095Y-82338152D02*
X150410476Y-82242914D01*
X150410476Y-82242914D02*
X150410476Y-82195295D01*
X150410476Y-82195295D02*
X150458095Y-82100057D01*
X150458095Y-82100057D02*
X150505714Y-82052438D01*
X150505714Y-82052438D02*
X150600952Y-82004819D01*
X150600952Y-82004819D02*
X150791428Y-82004819D01*
X150791428Y-82004819D02*
X150886666Y-82052438D01*
X150886666Y-82052438D02*
X150934285Y-82100057D01*
X150934285Y-82100057D02*
X150981904Y-82195295D01*
X150981904Y-82195295D02*
X150981904Y-82242914D01*
X150981904Y-82242914D02*
X150934285Y-82338152D01*
X150934285Y-82338152D02*
X150886666Y-82385771D01*
X150886666Y-82385771D02*
X150791428Y-82433390D01*
X150791428Y-82433390D02*
X150600952Y-82433390D01*
X150600952Y-82433390D02*
X150505714Y-82481009D01*
X150505714Y-82481009D02*
X150458095Y-82528628D01*
X150458095Y-82528628D02*
X150410476Y-82623866D01*
X150410476Y-82623866D02*
X150410476Y-82814342D01*
X150410476Y-82814342D02*
X150458095Y-82909580D01*
X150458095Y-82909580D02*
X150505714Y-82957200D01*
X150505714Y-82957200D02*
X150600952Y-83004819D01*
X150600952Y-83004819D02*
X150791428Y-83004819D01*
X150791428Y-83004819D02*
X150886666Y-82957200D01*
X150886666Y-82957200D02*
X150934285Y-82909580D01*
X150934285Y-82909580D02*
X150981904Y-82814342D01*
X150981904Y-82814342D02*
X150981904Y-82623866D01*
X150981904Y-82623866D02*
X150934285Y-82528628D01*
X150934285Y-82528628D02*
X150886666Y-82481009D01*
X150886666Y-82481009D02*
X150791428Y-82433390D01*
X161233333Y-76854819D02*
X160757143Y-76854819D01*
X160757143Y-76854819D02*
X160757143Y-75854819D01*
X162090476Y-76854819D02*
X161519048Y-76854819D01*
X161804762Y-76854819D02*
X161804762Y-75854819D01*
X161804762Y-75854819D02*
X161709524Y-75997676D01*
X161709524Y-75997676D02*
X161614286Y-76092914D01*
X161614286Y-76092914D02*
X161519048Y-76140533D01*
X149077142Y-81754819D02*
X148743809Y-81278628D01*
X148505714Y-81754819D02*
X148505714Y-80754819D01*
X148505714Y-80754819D02*
X148886666Y-80754819D01*
X148886666Y-80754819D02*
X148981904Y-80802438D01*
X148981904Y-80802438D02*
X149029523Y-80850057D01*
X149029523Y-80850057D02*
X149077142Y-80945295D01*
X149077142Y-80945295D02*
X149077142Y-81088152D01*
X149077142Y-81088152D02*
X149029523Y-81183390D01*
X149029523Y-81183390D02*
X148981904Y-81231009D01*
X148981904Y-81231009D02*
X148886666Y-81278628D01*
X148886666Y-81278628D02*
X148505714Y-81278628D01*
X150029523Y-81754819D02*
X149458095Y-81754819D01*
X149743809Y-81754819D02*
X149743809Y-80754819D01*
X149743809Y-80754819D02*
X149648571Y-80897676D01*
X149648571Y-80897676D02*
X149553333Y-80992914D01*
X149553333Y-80992914D02*
X149458095Y-81040533D01*
X150362857Y-80754819D02*
X151029523Y-80754819D01*
X151029523Y-80754819D02*
X150600952Y-81754819D01*
X125988095Y-82504819D02*
X125988095Y-83314342D01*
X125988095Y-83314342D02*
X126035714Y-83409580D01*
X126035714Y-83409580D02*
X126083333Y-83457200D01*
X126083333Y-83457200D02*
X126178571Y-83504819D01*
X126178571Y-83504819D02*
X126369047Y-83504819D01*
X126369047Y-83504819D02*
X126464285Y-83457200D01*
X126464285Y-83457200D02*
X126511904Y-83409580D01*
X126511904Y-83409580D02*
X126559523Y-83314342D01*
X126559523Y-83314342D02*
X126559523Y-82504819D01*
X127559523Y-83504819D02*
X126988095Y-83504819D01*
X127273809Y-83504819D02*
X127273809Y-82504819D01*
X127273809Y-82504819D02*
X127178571Y-82647676D01*
X127178571Y-82647676D02*
X127083333Y-82742914D01*
X127083333Y-82742914D02*
X126988095Y-82790533D01*
X123254819Y-78699999D02*
X123492914Y-78699999D01*
X123397676Y-78938094D02*
X123492914Y-78699999D01*
X123492914Y-78699999D02*
X123397676Y-78461904D01*
X123683390Y-78842856D02*
X123492914Y-78699999D01*
X123492914Y-78699999D02*
X123683390Y-78557142D01*
X119583333Y-79254819D02*
X119250000Y-78778628D01*
X119011905Y-79254819D02*
X119011905Y-78254819D01*
X119011905Y-78254819D02*
X119392857Y-78254819D01*
X119392857Y-78254819D02*
X119488095Y-78302438D01*
X119488095Y-78302438D02*
X119535714Y-78350057D01*
X119535714Y-78350057D02*
X119583333Y-78445295D01*
X119583333Y-78445295D02*
X119583333Y-78588152D01*
X119583333Y-78588152D02*
X119535714Y-78683390D01*
X119535714Y-78683390D02*
X119488095Y-78731009D01*
X119488095Y-78731009D02*
X119392857Y-78778628D01*
X119392857Y-78778628D02*
X119011905Y-78778628D01*
X120535714Y-79254819D02*
X119964286Y-79254819D01*
X120250000Y-79254819D02*
X120250000Y-78254819D01*
X120250000Y-78254819D02*
X120154762Y-78397676D01*
X120154762Y-78397676D02*
X120059524Y-78492914D01*
X120059524Y-78492914D02*
X119964286Y-78540533D01*
X133857142Y-80654819D02*
X133523809Y-80178628D01*
X133285714Y-80654819D02*
X133285714Y-79654819D01*
X133285714Y-79654819D02*
X133666666Y-79654819D01*
X133666666Y-79654819D02*
X133761904Y-79702438D01*
X133761904Y-79702438D02*
X133809523Y-79750057D01*
X133809523Y-79750057D02*
X133857142Y-79845295D01*
X133857142Y-79845295D02*
X133857142Y-79988152D01*
X133857142Y-79988152D02*
X133809523Y-80083390D01*
X133809523Y-80083390D02*
X133761904Y-80131009D01*
X133761904Y-80131009D02*
X133666666Y-80178628D01*
X133666666Y-80178628D02*
X133285714Y-80178628D01*
X134809523Y-80654819D02*
X134238095Y-80654819D01*
X134523809Y-80654819D02*
X134523809Y-79654819D01*
X134523809Y-79654819D02*
X134428571Y-79797676D01*
X134428571Y-79797676D02*
X134333333Y-79892914D01*
X134333333Y-79892914D02*
X134238095Y-79940533D01*
X135428571Y-79654819D02*
X135523809Y-79654819D01*
X135523809Y-79654819D02*
X135619047Y-79702438D01*
X135619047Y-79702438D02*
X135666666Y-79750057D01*
X135666666Y-79750057D02*
X135714285Y-79845295D01*
X135714285Y-79845295D02*
X135761904Y-80035771D01*
X135761904Y-80035771D02*
X135761904Y-80273866D01*
X135761904Y-80273866D02*
X135714285Y-80464342D01*
X135714285Y-80464342D02*
X135666666Y-80559580D01*
X135666666Y-80559580D02*
X135619047Y-80607200D01*
X135619047Y-80607200D02*
X135523809Y-80654819D01*
X135523809Y-80654819D02*
X135428571Y-80654819D01*
X135428571Y-80654819D02*
X135333333Y-80607200D01*
X135333333Y-80607200D02*
X135285714Y-80559580D01*
X135285714Y-80559580D02*
X135238095Y-80464342D01*
X135238095Y-80464342D02*
X135190476Y-80273866D01*
X135190476Y-80273866D02*
X135190476Y-80035771D01*
X135190476Y-80035771D02*
X135238095Y-79845295D01*
X135238095Y-79845295D02*
X135285714Y-79750057D01*
X135285714Y-79750057D02*
X135333333Y-79702438D01*
X135333333Y-79702438D02*
X135428571Y-79654819D01*
X134357142Y-75159580D02*
X134309523Y-75207200D01*
X134309523Y-75207200D02*
X134166666Y-75254819D01*
X134166666Y-75254819D02*
X134071428Y-75254819D01*
X134071428Y-75254819D02*
X133928571Y-75207200D01*
X133928571Y-75207200D02*
X133833333Y-75111961D01*
X133833333Y-75111961D02*
X133785714Y-75016723D01*
X133785714Y-75016723D02*
X133738095Y-74826247D01*
X133738095Y-74826247D02*
X133738095Y-74683390D01*
X133738095Y-74683390D02*
X133785714Y-74492914D01*
X133785714Y-74492914D02*
X133833333Y-74397676D01*
X133833333Y-74397676D02*
X133928571Y-74302438D01*
X133928571Y-74302438D02*
X134071428Y-74254819D01*
X134071428Y-74254819D02*
X134166666Y-74254819D01*
X134166666Y-74254819D02*
X134309523Y-74302438D01*
X134309523Y-74302438D02*
X134357142Y-74350057D01*
X135309523Y-75254819D02*
X134738095Y-75254819D01*
X135023809Y-75254819D02*
X135023809Y-74254819D01*
X135023809Y-74254819D02*
X134928571Y-74397676D01*
X134928571Y-74397676D02*
X134833333Y-74492914D01*
X134833333Y-74492914D02*
X134738095Y-74540533D01*
X135690476Y-74350057D02*
X135738095Y-74302438D01*
X135738095Y-74302438D02*
X135833333Y-74254819D01*
X135833333Y-74254819D02*
X136071428Y-74254819D01*
X136071428Y-74254819D02*
X136166666Y-74302438D01*
X136166666Y-74302438D02*
X136214285Y-74350057D01*
X136214285Y-74350057D02*
X136261904Y-74445295D01*
X136261904Y-74445295D02*
X136261904Y-74540533D01*
X136261904Y-74540533D02*
X136214285Y-74683390D01*
X136214285Y-74683390D02*
X135642857Y-75254819D01*
X135642857Y-75254819D02*
X136261904Y-75254819D01*
X119583333Y-83004819D02*
X119250000Y-82528628D01*
X119011905Y-83004819D02*
X119011905Y-82004819D01*
X119011905Y-82004819D02*
X119392857Y-82004819D01*
X119392857Y-82004819D02*
X119488095Y-82052438D01*
X119488095Y-82052438D02*
X119535714Y-82100057D01*
X119535714Y-82100057D02*
X119583333Y-82195295D01*
X119583333Y-82195295D02*
X119583333Y-82338152D01*
X119583333Y-82338152D02*
X119535714Y-82433390D01*
X119535714Y-82433390D02*
X119488095Y-82481009D01*
X119488095Y-82481009D02*
X119392857Y-82528628D01*
X119392857Y-82528628D02*
X119011905Y-82528628D01*
X120440476Y-82338152D02*
X120440476Y-83004819D01*
X120202381Y-81957200D02*
X119964286Y-82671485D01*
X119964286Y-82671485D02*
X120583333Y-82671485D01*
X145357142Y-72004819D02*
X145023809Y-71528628D01*
X144785714Y-72004819D02*
X144785714Y-71004819D01*
X144785714Y-71004819D02*
X145166666Y-71004819D01*
X145166666Y-71004819D02*
X145261904Y-71052438D01*
X145261904Y-71052438D02*
X145309523Y-71100057D01*
X145309523Y-71100057D02*
X145357142Y-71195295D01*
X145357142Y-71195295D02*
X145357142Y-71338152D01*
X145357142Y-71338152D02*
X145309523Y-71433390D01*
X145309523Y-71433390D02*
X145261904Y-71481009D01*
X145261904Y-71481009D02*
X145166666Y-71528628D01*
X145166666Y-71528628D02*
X144785714Y-71528628D01*
X145738095Y-71100057D02*
X145785714Y-71052438D01*
X145785714Y-71052438D02*
X145880952Y-71004819D01*
X145880952Y-71004819D02*
X146119047Y-71004819D01*
X146119047Y-71004819D02*
X146214285Y-71052438D01*
X146214285Y-71052438D02*
X146261904Y-71100057D01*
X146261904Y-71100057D02*
X146309523Y-71195295D01*
X146309523Y-71195295D02*
X146309523Y-71290533D01*
X146309523Y-71290533D02*
X146261904Y-71433390D01*
X146261904Y-71433390D02*
X145690476Y-72004819D01*
X145690476Y-72004819D02*
X146309523Y-72004819D01*
X146690476Y-71100057D02*
X146738095Y-71052438D01*
X146738095Y-71052438D02*
X146833333Y-71004819D01*
X146833333Y-71004819D02*
X147071428Y-71004819D01*
X147071428Y-71004819D02*
X147166666Y-71052438D01*
X147166666Y-71052438D02*
X147214285Y-71100057D01*
X147214285Y-71100057D02*
X147261904Y-71195295D01*
X147261904Y-71195295D02*
X147261904Y-71290533D01*
X147261904Y-71290533D02*
X147214285Y-71433390D01*
X147214285Y-71433390D02*
X146642857Y-72004819D01*
X146642857Y-72004819D02*
X147261904Y-72004819D01*
X145804819Y-65792857D02*
X145328628Y-66126190D01*
X145804819Y-66364285D02*
X144804819Y-66364285D01*
X144804819Y-66364285D02*
X144804819Y-65983333D01*
X144804819Y-65983333D02*
X144852438Y-65888095D01*
X144852438Y-65888095D02*
X144900057Y-65840476D01*
X144900057Y-65840476D02*
X144995295Y-65792857D01*
X144995295Y-65792857D02*
X145138152Y-65792857D01*
X145138152Y-65792857D02*
X145233390Y-65840476D01*
X145233390Y-65840476D02*
X145281009Y-65888095D01*
X145281009Y-65888095D02*
X145328628Y-65983333D01*
X145328628Y-65983333D02*
X145328628Y-66364285D01*
X144900057Y-65411904D02*
X144852438Y-65364285D01*
X144852438Y-65364285D02*
X144804819Y-65269047D01*
X144804819Y-65269047D02*
X144804819Y-65030952D01*
X144804819Y-65030952D02*
X144852438Y-64935714D01*
X144852438Y-64935714D02*
X144900057Y-64888095D01*
X144900057Y-64888095D02*
X144995295Y-64840476D01*
X144995295Y-64840476D02*
X145090533Y-64840476D01*
X145090533Y-64840476D02*
X145233390Y-64888095D01*
X145233390Y-64888095D02*
X145804819Y-65459523D01*
X145804819Y-65459523D02*
X145804819Y-64840476D01*
X145138152Y-63983333D02*
X145804819Y-63983333D01*
X144757200Y-64221428D02*
X145471485Y-64459523D01*
X145471485Y-64459523D02*
X145471485Y-63840476D01*
X146357142Y-83719580D02*
X146309523Y-83767200D01*
X146309523Y-83767200D02*
X146166666Y-83814819D01*
X146166666Y-83814819D02*
X146071428Y-83814819D01*
X146071428Y-83814819D02*
X145928571Y-83767200D01*
X145928571Y-83767200D02*
X145833333Y-83671961D01*
X145833333Y-83671961D02*
X145785714Y-83576723D01*
X145785714Y-83576723D02*
X145738095Y-83386247D01*
X145738095Y-83386247D02*
X145738095Y-83243390D01*
X145738095Y-83243390D02*
X145785714Y-83052914D01*
X145785714Y-83052914D02*
X145833333Y-82957676D01*
X145833333Y-82957676D02*
X145928571Y-82862438D01*
X145928571Y-82862438D02*
X146071428Y-82814819D01*
X146071428Y-82814819D02*
X146166666Y-82814819D01*
X146166666Y-82814819D02*
X146309523Y-82862438D01*
X146309523Y-82862438D02*
X146357142Y-82910057D01*
X147309523Y-83814819D02*
X146738095Y-83814819D01*
X147023809Y-83814819D02*
X147023809Y-82814819D01*
X147023809Y-82814819D02*
X146928571Y-82957676D01*
X146928571Y-82957676D02*
X146833333Y-83052914D01*
X146833333Y-83052914D02*
X146738095Y-83100533D01*
X148214285Y-82814819D02*
X147738095Y-82814819D01*
X147738095Y-82814819D02*
X147690476Y-83291009D01*
X147690476Y-83291009D02*
X147738095Y-83243390D01*
X147738095Y-83243390D02*
X147833333Y-83195771D01*
X147833333Y-83195771D02*
X148071428Y-83195771D01*
X148071428Y-83195771D02*
X148166666Y-83243390D01*
X148166666Y-83243390D02*
X148214285Y-83291009D01*
X148214285Y-83291009D02*
X148261904Y-83386247D01*
X148261904Y-83386247D02*
X148261904Y-83624342D01*
X148261904Y-83624342D02*
X148214285Y-83719580D01*
X148214285Y-83719580D02*
X148166666Y-83767200D01*
X148166666Y-83767200D02*
X148071428Y-83814819D01*
X148071428Y-83814819D02*
X147833333Y-83814819D01*
X147833333Y-83814819D02*
X147738095Y-83767200D01*
X147738095Y-83767200D02*
X147690476Y-83719580D01*
X119583333Y-81754819D02*
X119250000Y-81278628D01*
X119011905Y-81754819D02*
X119011905Y-80754819D01*
X119011905Y-80754819D02*
X119392857Y-80754819D01*
X119392857Y-80754819D02*
X119488095Y-80802438D01*
X119488095Y-80802438D02*
X119535714Y-80850057D01*
X119535714Y-80850057D02*
X119583333Y-80945295D01*
X119583333Y-80945295D02*
X119583333Y-81088152D01*
X119583333Y-81088152D02*
X119535714Y-81183390D01*
X119535714Y-81183390D02*
X119488095Y-81231009D01*
X119488095Y-81231009D02*
X119392857Y-81278628D01*
X119392857Y-81278628D02*
X119011905Y-81278628D01*
X119916667Y-80754819D02*
X120535714Y-80754819D01*
X120535714Y-80754819D02*
X120202381Y-81135771D01*
X120202381Y-81135771D02*
X120345238Y-81135771D01*
X120345238Y-81135771D02*
X120440476Y-81183390D01*
X120440476Y-81183390D02*
X120488095Y-81231009D01*
X120488095Y-81231009D02*
X120535714Y-81326247D01*
X120535714Y-81326247D02*
X120535714Y-81564342D01*
X120535714Y-81564342D02*
X120488095Y-81659580D01*
X120488095Y-81659580D02*
X120440476Y-81707200D01*
X120440476Y-81707200D02*
X120345238Y-81754819D01*
X120345238Y-81754819D02*
X120059524Y-81754819D01*
X120059524Y-81754819D02*
X119964286Y-81707200D01*
X119964286Y-81707200D02*
X119916667Y-81659580D01*
D14*
X156504318Y-108973332D02*
X157411461Y-108973332D01*
X157411461Y-108973332D02*
X157592889Y-109033809D01*
X157592889Y-109033809D02*
X157713842Y-109154761D01*
X157713842Y-109154761D02*
X157774318Y-109336190D01*
X157774318Y-109336190D02*
X157774318Y-109457142D01*
X156504318Y-107763809D02*
X156504318Y-108368571D01*
X156504318Y-108368571D02*
X157109080Y-108429047D01*
X157109080Y-108429047D02*
X157048603Y-108368571D01*
X157048603Y-108368571D02*
X156988127Y-108247618D01*
X156988127Y-108247618D02*
X156988127Y-107945237D01*
X156988127Y-107945237D02*
X157048603Y-107824285D01*
X157048603Y-107824285D02*
X157109080Y-107763809D01*
X157109080Y-107763809D02*
X157230032Y-107703332D01*
X157230032Y-107703332D02*
X157532413Y-107703332D01*
X157532413Y-107703332D02*
X157653365Y-107763809D01*
X157653365Y-107763809D02*
X157713842Y-107824285D01*
X157713842Y-107824285D02*
X157774318Y-107945237D01*
X157774318Y-107945237D02*
X157774318Y-108247618D01*
X157774318Y-108247618D02*
X157713842Y-108368571D01*
X157713842Y-108368571D02*
X157653365Y-108429047D01*
D13*
X153454819Y-76814285D02*
X152454819Y-76814285D01*
X152454819Y-76814285D02*
X152454819Y-76576190D01*
X152454819Y-76576190D02*
X152502438Y-76433333D01*
X152502438Y-76433333D02*
X152597676Y-76338095D01*
X152597676Y-76338095D02*
X152692914Y-76290476D01*
X152692914Y-76290476D02*
X152883390Y-76242857D01*
X152883390Y-76242857D02*
X153026247Y-76242857D01*
X153026247Y-76242857D02*
X153216723Y-76290476D01*
X153216723Y-76290476D02*
X153311961Y-76338095D01*
X153311961Y-76338095D02*
X153407200Y-76433333D01*
X153407200Y-76433333D02*
X153454819Y-76576190D01*
X153454819Y-76576190D02*
X153454819Y-76814285D01*
X153454819Y-75290476D02*
X153454819Y-75861904D01*
X153454819Y-75576190D02*
X152454819Y-75576190D01*
X152454819Y-75576190D02*
X152597676Y-75671428D01*
X152597676Y-75671428D02*
X152692914Y-75766666D01*
X152692914Y-75766666D02*
X152740533Y-75861904D01*
X152454819Y-74671428D02*
X152454819Y-74576190D01*
X152454819Y-74576190D02*
X152502438Y-74480952D01*
X152502438Y-74480952D02*
X152550057Y-74433333D01*
X152550057Y-74433333D02*
X152645295Y-74385714D01*
X152645295Y-74385714D02*
X152835771Y-74338095D01*
X152835771Y-74338095D02*
X153073866Y-74338095D01*
X153073866Y-74338095D02*
X153264342Y-74385714D01*
X153264342Y-74385714D02*
X153359580Y-74433333D01*
X153359580Y-74433333D02*
X153407200Y-74480952D01*
X153407200Y-74480952D02*
X153454819Y-74576190D01*
X153454819Y-74576190D02*
X153454819Y-74671428D01*
X153454819Y-74671428D02*
X153407200Y-74766666D01*
X153407200Y-74766666D02*
X153359580Y-74814285D01*
X153359580Y-74814285D02*
X153264342Y-74861904D01*
X153264342Y-74861904D02*
X153073866Y-74909523D01*
X153073866Y-74909523D02*
X152835771Y-74909523D01*
X152835771Y-74909523D02*
X152645295Y-74861904D01*
X152645295Y-74861904D02*
X152550057Y-74814285D01*
X152550057Y-74814285D02*
X152502438Y-74766666D01*
X152502438Y-74766666D02*
X152454819Y-74671428D01*
X140988095Y-82654819D02*
X140988095Y-83464342D01*
X140988095Y-83464342D02*
X141035714Y-83559580D01*
X141035714Y-83559580D02*
X141083333Y-83607200D01*
X141083333Y-83607200D02*
X141178571Y-83654819D01*
X141178571Y-83654819D02*
X141369047Y-83654819D01*
X141369047Y-83654819D02*
X141464285Y-83607200D01*
X141464285Y-83607200D02*
X141511904Y-83559580D01*
X141511904Y-83559580D02*
X141559523Y-83464342D01*
X141559523Y-83464342D02*
X141559523Y-82654819D01*
X141988095Y-82750057D02*
X142035714Y-82702438D01*
X142035714Y-82702438D02*
X142130952Y-82654819D01*
X142130952Y-82654819D02*
X142369047Y-82654819D01*
X142369047Y-82654819D02*
X142464285Y-82702438D01*
X142464285Y-82702438D02*
X142511904Y-82750057D01*
X142511904Y-82750057D02*
X142559523Y-82845295D01*
X142559523Y-82845295D02*
X142559523Y-82940533D01*
X142559523Y-82940533D02*
X142511904Y-83083390D01*
X142511904Y-83083390D02*
X141940476Y-83654819D01*
X141940476Y-83654819D02*
X142559523Y-83654819D01*
X138200000Y-78754819D02*
X138200000Y-78992914D01*
X137961905Y-78897676D02*
X138200000Y-78992914D01*
X138200000Y-78992914D02*
X138438095Y-78897676D01*
X138057143Y-79183390D02*
X138200000Y-78992914D01*
X138200000Y-78992914D02*
X138342857Y-79183390D01*
X134357142Y-72754819D02*
X134023809Y-72278628D01*
X133785714Y-72754819D02*
X133785714Y-71754819D01*
X133785714Y-71754819D02*
X134166666Y-71754819D01*
X134166666Y-71754819D02*
X134261904Y-71802438D01*
X134261904Y-71802438D02*
X134309523Y-71850057D01*
X134309523Y-71850057D02*
X134357142Y-71945295D01*
X134357142Y-71945295D02*
X134357142Y-72088152D01*
X134357142Y-72088152D02*
X134309523Y-72183390D01*
X134309523Y-72183390D02*
X134261904Y-72231009D01*
X134261904Y-72231009D02*
X134166666Y-72278628D01*
X134166666Y-72278628D02*
X133785714Y-72278628D01*
X134738095Y-71850057D02*
X134785714Y-71802438D01*
X134785714Y-71802438D02*
X134880952Y-71754819D01*
X134880952Y-71754819D02*
X135119047Y-71754819D01*
X135119047Y-71754819D02*
X135214285Y-71802438D01*
X135214285Y-71802438D02*
X135261904Y-71850057D01*
X135261904Y-71850057D02*
X135309523Y-71945295D01*
X135309523Y-71945295D02*
X135309523Y-72040533D01*
X135309523Y-72040533D02*
X135261904Y-72183390D01*
X135261904Y-72183390D02*
X134690476Y-72754819D01*
X134690476Y-72754819D02*
X135309523Y-72754819D01*
X136261904Y-72754819D02*
X135690476Y-72754819D01*
X135976190Y-72754819D02*
X135976190Y-71754819D01*
X135976190Y-71754819D02*
X135880952Y-71897676D01*
X135880952Y-71897676D02*
X135785714Y-71992914D01*
X135785714Y-71992914D02*
X135690476Y-72040533D01*
X118559580Y-76766666D02*
X118607200Y-76814285D01*
X118607200Y-76814285D02*
X118654819Y-76957142D01*
X118654819Y-76957142D02*
X118654819Y-77052380D01*
X118654819Y-77052380D02*
X118607200Y-77195237D01*
X118607200Y-77195237D02*
X118511961Y-77290475D01*
X118511961Y-77290475D02*
X118416723Y-77338094D01*
X118416723Y-77338094D02*
X118226247Y-77385713D01*
X118226247Y-77385713D02*
X118083390Y-77385713D01*
X118083390Y-77385713D02*
X117892914Y-77338094D01*
X117892914Y-77338094D02*
X117797676Y-77290475D01*
X117797676Y-77290475D02*
X117702438Y-77195237D01*
X117702438Y-77195237D02*
X117654819Y-77052380D01*
X117654819Y-77052380D02*
X117654819Y-76957142D01*
X117654819Y-76957142D02*
X117702438Y-76814285D01*
X117702438Y-76814285D02*
X117750057Y-76766666D01*
X117654819Y-76433332D02*
X117654819Y-75814285D01*
X117654819Y-75814285D02*
X118035771Y-76147618D01*
X118035771Y-76147618D02*
X118035771Y-76004761D01*
X118035771Y-76004761D02*
X118083390Y-75909523D01*
X118083390Y-75909523D02*
X118131009Y-75861904D01*
X118131009Y-75861904D02*
X118226247Y-75814285D01*
X118226247Y-75814285D02*
X118464342Y-75814285D01*
X118464342Y-75814285D02*
X118559580Y-75861904D01*
X118559580Y-75861904D02*
X118607200Y-75909523D01*
X118607200Y-75909523D02*
X118654819Y-76004761D01*
X118654819Y-76004761D02*
X118654819Y-76290475D01*
X118654819Y-76290475D02*
X118607200Y-76385713D01*
X118607200Y-76385713D02*
X118559580Y-76433332D01*
X146357142Y-81059580D02*
X146309523Y-81107200D01*
X146309523Y-81107200D02*
X146166666Y-81154819D01*
X146166666Y-81154819D02*
X146071428Y-81154819D01*
X146071428Y-81154819D02*
X145928571Y-81107200D01*
X145928571Y-81107200D02*
X145833333Y-81011961D01*
X145833333Y-81011961D02*
X145785714Y-80916723D01*
X145785714Y-80916723D02*
X145738095Y-80726247D01*
X145738095Y-80726247D02*
X145738095Y-80583390D01*
X145738095Y-80583390D02*
X145785714Y-80392914D01*
X145785714Y-80392914D02*
X145833333Y-80297676D01*
X145833333Y-80297676D02*
X145928571Y-80202438D01*
X145928571Y-80202438D02*
X146071428Y-80154819D01*
X146071428Y-80154819D02*
X146166666Y-80154819D01*
X146166666Y-80154819D02*
X146309523Y-80202438D01*
X146309523Y-80202438D02*
X146357142Y-80250057D01*
X147309523Y-81154819D02*
X146738095Y-81154819D01*
X147023809Y-81154819D02*
X147023809Y-80154819D01*
X147023809Y-80154819D02*
X146928571Y-80297676D01*
X146928571Y-80297676D02*
X146833333Y-80392914D01*
X146833333Y-80392914D02*
X146738095Y-80440533D01*
X148166666Y-80154819D02*
X147976190Y-80154819D01*
X147976190Y-80154819D02*
X147880952Y-80202438D01*
X147880952Y-80202438D02*
X147833333Y-80250057D01*
X147833333Y-80250057D02*
X147738095Y-80392914D01*
X147738095Y-80392914D02*
X147690476Y-80583390D01*
X147690476Y-80583390D02*
X147690476Y-80964342D01*
X147690476Y-80964342D02*
X147738095Y-81059580D01*
X147738095Y-81059580D02*
X147785714Y-81107200D01*
X147785714Y-81107200D02*
X147880952Y-81154819D01*
X147880952Y-81154819D02*
X148071428Y-81154819D01*
X148071428Y-81154819D02*
X148166666Y-81107200D01*
X148166666Y-81107200D02*
X148214285Y-81059580D01*
X148214285Y-81059580D02*
X148261904Y-80964342D01*
X148261904Y-80964342D02*
X148261904Y-80726247D01*
X148261904Y-80726247D02*
X148214285Y-80631009D01*
X148214285Y-80631009D02*
X148166666Y-80583390D01*
X148166666Y-80583390D02*
X148071428Y-80535771D01*
X148071428Y-80535771D02*
X147880952Y-80535771D01*
X147880952Y-80535771D02*
X147785714Y-80583390D01*
X147785714Y-80583390D02*
X147738095Y-80631009D01*
X147738095Y-80631009D02*
X147690476Y-80726247D01*
X136854819Y-65952857D02*
X136378628Y-66286190D01*
X136854819Y-66524285D02*
X135854819Y-66524285D01*
X135854819Y-66524285D02*
X135854819Y-66143333D01*
X135854819Y-66143333D02*
X135902438Y-66048095D01*
X135902438Y-66048095D02*
X135950057Y-66000476D01*
X135950057Y-66000476D02*
X136045295Y-65952857D01*
X136045295Y-65952857D02*
X136188152Y-65952857D01*
X136188152Y-65952857D02*
X136283390Y-66000476D01*
X136283390Y-66000476D02*
X136331009Y-66048095D01*
X136331009Y-66048095D02*
X136378628Y-66143333D01*
X136378628Y-66143333D02*
X136378628Y-66524285D01*
X136854819Y-65000476D02*
X136854819Y-65571904D01*
X136854819Y-65286190D02*
X135854819Y-65286190D01*
X135854819Y-65286190D02*
X135997676Y-65381428D01*
X135997676Y-65381428D02*
X136092914Y-65476666D01*
X136092914Y-65476666D02*
X136140533Y-65571904D01*
X136188152Y-64143333D02*
X136854819Y-64143333D01*
X135807200Y-64381428D02*
X136521485Y-64619523D01*
X136521485Y-64619523D02*
X136521485Y-64000476D01*
X134347142Y-71254819D02*
X134013809Y-70778628D01*
X133775714Y-71254819D02*
X133775714Y-70254819D01*
X133775714Y-70254819D02*
X134156666Y-70254819D01*
X134156666Y-70254819D02*
X134251904Y-70302438D01*
X134251904Y-70302438D02*
X134299523Y-70350057D01*
X134299523Y-70350057D02*
X134347142Y-70445295D01*
X134347142Y-70445295D02*
X134347142Y-70588152D01*
X134347142Y-70588152D02*
X134299523Y-70683390D01*
X134299523Y-70683390D02*
X134251904Y-70731009D01*
X134251904Y-70731009D02*
X134156666Y-70778628D01*
X134156666Y-70778628D02*
X133775714Y-70778628D01*
X135299523Y-71254819D02*
X134728095Y-71254819D01*
X135013809Y-71254819D02*
X135013809Y-70254819D01*
X135013809Y-70254819D02*
X134918571Y-70397676D01*
X134918571Y-70397676D02*
X134823333Y-70492914D01*
X134823333Y-70492914D02*
X134728095Y-70540533D01*
X135775714Y-71254819D02*
X135966190Y-71254819D01*
X135966190Y-71254819D02*
X136061428Y-71207200D01*
X136061428Y-71207200D02*
X136109047Y-71159580D01*
X136109047Y-71159580D02*
X136204285Y-71016723D01*
X136204285Y-71016723D02*
X136251904Y-70826247D01*
X136251904Y-70826247D02*
X136251904Y-70445295D01*
X136251904Y-70445295D02*
X136204285Y-70350057D01*
X136204285Y-70350057D02*
X136156666Y-70302438D01*
X136156666Y-70302438D02*
X136061428Y-70254819D01*
X136061428Y-70254819D02*
X135870952Y-70254819D01*
X135870952Y-70254819D02*
X135775714Y-70302438D01*
X135775714Y-70302438D02*
X135728095Y-70350057D01*
X135728095Y-70350057D02*
X135680476Y-70445295D01*
X135680476Y-70445295D02*
X135680476Y-70683390D01*
X135680476Y-70683390D02*
X135728095Y-70778628D01*
X135728095Y-70778628D02*
X135775714Y-70826247D01*
X135775714Y-70826247D02*
X135870952Y-70873866D01*
X135870952Y-70873866D02*
X136061428Y-70873866D01*
X136061428Y-70873866D02*
X136156666Y-70826247D01*
X136156666Y-70826247D02*
X136204285Y-70778628D01*
X136204285Y-70778628D02*
X136251904Y-70683390D01*
X156238095Y-82504819D02*
X156238095Y-83314342D01*
X156238095Y-83314342D02*
X156285714Y-83409580D01*
X156285714Y-83409580D02*
X156333333Y-83457200D01*
X156333333Y-83457200D02*
X156428571Y-83504819D01*
X156428571Y-83504819D02*
X156619047Y-83504819D01*
X156619047Y-83504819D02*
X156714285Y-83457200D01*
X156714285Y-83457200D02*
X156761904Y-83409580D01*
X156761904Y-83409580D02*
X156809523Y-83314342D01*
X156809523Y-83314342D02*
X156809523Y-82504819D01*
X157714285Y-82838152D02*
X157714285Y-83504819D01*
X157476190Y-82457200D02*
X157238095Y-83171485D01*
X157238095Y-83171485D02*
X157857142Y-83171485D01*
X153200000Y-78554819D02*
X153200000Y-78792914D01*
X152961905Y-78697676D02*
X153200000Y-78792914D01*
X153200000Y-78792914D02*
X153438095Y-78697676D01*
X153057143Y-78983390D02*
X153200000Y-78792914D01*
X153200000Y-78792914D02*
X153342857Y-78983390D01*
X140954819Y-64866666D02*
X140478628Y-65199999D01*
X140954819Y-65438094D02*
X139954819Y-65438094D01*
X139954819Y-65438094D02*
X139954819Y-65057142D01*
X139954819Y-65057142D02*
X140002438Y-64961904D01*
X140002438Y-64961904D02*
X140050057Y-64914285D01*
X140050057Y-64914285D02*
X140145295Y-64866666D01*
X140145295Y-64866666D02*
X140288152Y-64866666D01*
X140288152Y-64866666D02*
X140383390Y-64914285D01*
X140383390Y-64914285D02*
X140431009Y-64961904D01*
X140431009Y-64961904D02*
X140478628Y-65057142D01*
X140478628Y-65057142D02*
X140478628Y-65438094D01*
X140383390Y-64295237D02*
X140335771Y-64390475D01*
X140335771Y-64390475D02*
X140288152Y-64438094D01*
X140288152Y-64438094D02*
X140192914Y-64485713D01*
X140192914Y-64485713D02*
X140145295Y-64485713D01*
X140145295Y-64485713D02*
X140050057Y-64438094D01*
X140050057Y-64438094D02*
X140002438Y-64390475D01*
X140002438Y-64390475D02*
X139954819Y-64295237D01*
X139954819Y-64295237D02*
X139954819Y-64104761D01*
X139954819Y-64104761D02*
X140002438Y-64009523D01*
X140002438Y-64009523D02*
X140050057Y-63961904D01*
X140050057Y-63961904D02*
X140145295Y-63914285D01*
X140145295Y-63914285D02*
X140192914Y-63914285D01*
X140192914Y-63914285D02*
X140288152Y-63961904D01*
X140288152Y-63961904D02*
X140335771Y-64009523D01*
X140335771Y-64009523D02*
X140383390Y-64104761D01*
X140383390Y-64104761D02*
X140383390Y-64295237D01*
X140383390Y-64295237D02*
X140431009Y-64390475D01*
X140431009Y-64390475D02*
X140478628Y-64438094D01*
X140478628Y-64438094D02*
X140573866Y-64485713D01*
X140573866Y-64485713D02*
X140764342Y-64485713D01*
X140764342Y-64485713D02*
X140859580Y-64438094D01*
X140859580Y-64438094D02*
X140907200Y-64390475D01*
X140907200Y-64390475D02*
X140954819Y-64295237D01*
X140954819Y-64295237D02*
X140954819Y-64104761D01*
X140954819Y-64104761D02*
X140907200Y-64009523D01*
X140907200Y-64009523D02*
X140859580Y-63961904D01*
X140859580Y-63961904D02*
X140764342Y-63914285D01*
X140764342Y-63914285D02*
X140573866Y-63914285D01*
X140573866Y-63914285D02*
X140478628Y-63961904D01*
X140478628Y-63961904D02*
X140431009Y-64009523D01*
X140431009Y-64009523D02*
X140383390Y-64104761D01*
X162083333Y-83659580D02*
X162035714Y-83707200D01*
X162035714Y-83707200D02*
X161892857Y-83754819D01*
X161892857Y-83754819D02*
X161797619Y-83754819D01*
X161797619Y-83754819D02*
X161654762Y-83707200D01*
X161654762Y-83707200D02*
X161559524Y-83611961D01*
X161559524Y-83611961D02*
X161511905Y-83516723D01*
X161511905Y-83516723D02*
X161464286Y-83326247D01*
X161464286Y-83326247D02*
X161464286Y-83183390D01*
X161464286Y-83183390D02*
X161511905Y-82992914D01*
X161511905Y-82992914D02*
X161559524Y-82897676D01*
X161559524Y-82897676D02*
X161654762Y-82802438D01*
X161654762Y-82802438D02*
X161797619Y-82754819D01*
X161797619Y-82754819D02*
X161892857Y-82754819D01*
X161892857Y-82754819D02*
X162035714Y-82802438D01*
X162035714Y-82802438D02*
X162083333Y-82850057D01*
X162559524Y-83754819D02*
X162750000Y-83754819D01*
X162750000Y-83754819D02*
X162845238Y-83707200D01*
X162845238Y-83707200D02*
X162892857Y-83659580D01*
X162892857Y-83659580D02*
X162988095Y-83516723D01*
X162988095Y-83516723D02*
X163035714Y-83326247D01*
X163035714Y-83326247D02*
X163035714Y-82945295D01*
X163035714Y-82945295D02*
X162988095Y-82850057D01*
X162988095Y-82850057D02*
X162940476Y-82802438D01*
X162940476Y-82802438D02*
X162845238Y-82754819D01*
X162845238Y-82754819D02*
X162654762Y-82754819D01*
X162654762Y-82754819D02*
X162559524Y-82802438D01*
X162559524Y-82802438D02*
X162511905Y-82850057D01*
X162511905Y-82850057D02*
X162464286Y-82945295D01*
X162464286Y-82945295D02*
X162464286Y-83183390D01*
X162464286Y-83183390D02*
X162511905Y-83278628D01*
X162511905Y-83278628D02*
X162559524Y-83326247D01*
X162559524Y-83326247D02*
X162654762Y-83373866D01*
X162654762Y-83373866D02*
X162845238Y-83373866D01*
X162845238Y-83373866D02*
X162940476Y-83326247D01*
X162940476Y-83326247D02*
X162988095Y-83278628D01*
X162988095Y-83278628D02*
X163035714Y-83183390D01*
X134554819Y-66042857D02*
X134078628Y-66376190D01*
X134554819Y-66614285D02*
X133554819Y-66614285D01*
X133554819Y-66614285D02*
X133554819Y-66233333D01*
X133554819Y-66233333D02*
X133602438Y-66138095D01*
X133602438Y-66138095D02*
X133650057Y-66090476D01*
X133650057Y-66090476D02*
X133745295Y-66042857D01*
X133745295Y-66042857D02*
X133888152Y-66042857D01*
X133888152Y-66042857D02*
X133983390Y-66090476D01*
X133983390Y-66090476D02*
X134031009Y-66138095D01*
X134031009Y-66138095D02*
X134078628Y-66233333D01*
X134078628Y-66233333D02*
X134078628Y-66614285D01*
X133650057Y-65661904D02*
X133602438Y-65614285D01*
X133602438Y-65614285D02*
X133554819Y-65519047D01*
X133554819Y-65519047D02*
X133554819Y-65280952D01*
X133554819Y-65280952D02*
X133602438Y-65185714D01*
X133602438Y-65185714D02*
X133650057Y-65138095D01*
X133650057Y-65138095D02*
X133745295Y-65090476D01*
X133745295Y-65090476D02*
X133840533Y-65090476D01*
X133840533Y-65090476D02*
X133983390Y-65138095D01*
X133983390Y-65138095D02*
X134554819Y-65709523D01*
X134554819Y-65709523D02*
X134554819Y-65090476D01*
X133554819Y-64233333D02*
X133554819Y-64423809D01*
X133554819Y-64423809D02*
X133602438Y-64519047D01*
X133602438Y-64519047D02*
X133650057Y-64566666D01*
X133650057Y-64566666D02*
X133792914Y-64661904D01*
X133792914Y-64661904D02*
X133983390Y-64709523D01*
X133983390Y-64709523D02*
X134364342Y-64709523D01*
X134364342Y-64709523D02*
X134459580Y-64661904D01*
X134459580Y-64661904D02*
X134507200Y-64614285D01*
X134507200Y-64614285D02*
X134554819Y-64519047D01*
X134554819Y-64519047D02*
X134554819Y-64328571D01*
X134554819Y-64328571D02*
X134507200Y-64233333D01*
X134507200Y-64233333D02*
X134459580Y-64185714D01*
X134459580Y-64185714D02*
X134364342Y-64138095D01*
X134364342Y-64138095D02*
X134126247Y-64138095D01*
X134126247Y-64138095D02*
X134031009Y-64185714D01*
X134031009Y-64185714D02*
X133983390Y-64233333D01*
X133983390Y-64233333D02*
X133935771Y-64328571D01*
X133935771Y-64328571D02*
X133935771Y-64519047D01*
X133935771Y-64519047D02*
X133983390Y-64614285D01*
X133983390Y-64614285D02*
X134031009Y-64661904D01*
X134031009Y-64661904D02*
X134126247Y-64709523D01*
X131833333Y-80859580D02*
X131785714Y-80907200D01*
X131785714Y-80907200D02*
X131642857Y-80954819D01*
X131642857Y-80954819D02*
X131547619Y-80954819D01*
X131547619Y-80954819D02*
X131404762Y-80907200D01*
X131404762Y-80907200D02*
X131309524Y-80811961D01*
X131309524Y-80811961D02*
X131261905Y-80716723D01*
X131261905Y-80716723D02*
X131214286Y-80526247D01*
X131214286Y-80526247D02*
X131214286Y-80383390D01*
X131214286Y-80383390D02*
X131261905Y-80192914D01*
X131261905Y-80192914D02*
X131309524Y-80097676D01*
X131309524Y-80097676D02*
X131404762Y-80002438D01*
X131404762Y-80002438D02*
X131547619Y-79954819D01*
X131547619Y-79954819D02*
X131642857Y-79954819D01*
X131642857Y-79954819D02*
X131785714Y-80002438D01*
X131785714Y-80002438D02*
X131833333Y-80050057D01*
X132690476Y-80288152D02*
X132690476Y-80954819D01*
X132452381Y-79907200D02*
X132214286Y-80621485D01*
X132214286Y-80621485D02*
X132833333Y-80621485D01*
X134357142Y-74004819D02*
X134023809Y-73528628D01*
X133785714Y-74004819D02*
X133785714Y-73004819D01*
X133785714Y-73004819D02*
X134166666Y-73004819D01*
X134166666Y-73004819D02*
X134261904Y-73052438D01*
X134261904Y-73052438D02*
X134309523Y-73100057D01*
X134309523Y-73100057D02*
X134357142Y-73195295D01*
X134357142Y-73195295D02*
X134357142Y-73338152D01*
X134357142Y-73338152D02*
X134309523Y-73433390D01*
X134309523Y-73433390D02*
X134261904Y-73481009D01*
X134261904Y-73481009D02*
X134166666Y-73528628D01*
X134166666Y-73528628D02*
X133785714Y-73528628D01*
X134738095Y-73100057D02*
X134785714Y-73052438D01*
X134785714Y-73052438D02*
X134880952Y-73004819D01*
X134880952Y-73004819D02*
X135119047Y-73004819D01*
X135119047Y-73004819D02*
X135214285Y-73052438D01*
X135214285Y-73052438D02*
X135261904Y-73100057D01*
X135261904Y-73100057D02*
X135309523Y-73195295D01*
X135309523Y-73195295D02*
X135309523Y-73290533D01*
X135309523Y-73290533D02*
X135261904Y-73433390D01*
X135261904Y-73433390D02*
X134690476Y-74004819D01*
X134690476Y-74004819D02*
X135309523Y-74004819D01*
X135928571Y-73004819D02*
X136023809Y-73004819D01*
X136023809Y-73004819D02*
X136119047Y-73052438D01*
X136119047Y-73052438D02*
X136166666Y-73100057D01*
X136166666Y-73100057D02*
X136214285Y-73195295D01*
X136214285Y-73195295D02*
X136261904Y-73385771D01*
X136261904Y-73385771D02*
X136261904Y-73623866D01*
X136261904Y-73623866D02*
X136214285Y-73814342D01*
X136214285Y-73814342D02*
X136166666Y-73909580D01*
X136166666Y-73909580D02*
X136119047Y-73957200D01*
X136119047Y-73957200D02*
X136023809Y-74004819D01*
X136023809Y-74004819D02*
X135928571Y-74004819D01*
X135928571Y-74004819D02*
X135833333Y-73957200D01*
X135833333Y-73957200D02*
X135785714Y-73909580D01*
X135785714Y-73909580D02*
X135738095Y-73814342D01*
X135738095Y-73814342D02*
X135690476Y-73623866D01*
X135690476Y-73623866D02*
X135690476Y-73385771D01*
X135690476Y-73385771D02*
X135738095Y-73195295D01*
X135738095Y-73195295D02*
X135785714Y-73100057D01*
X135785714Y-73100057D02*
X135833333Y-73052438D01*
X135833333Y-73052438D02*
X135928571Y-73004819D01*
X126666666Y-76054819D02*
X126666666Y-76769104D01*
X126666666Y-76769104D02*
X126619047Y-76911961D01*
X126619047Y-76911961D02*
X126523809Y-77007200D01*
X126523809Y-77007200D02*
X126380952Y-77054819D01*
X126380952Y-77054819D02*
X126285714Y-77054819D01*
X127666666Y-77054819D02*
X127095238Y-77054819D01*
X127380952Y-77054819D02*
X127380952Y-76054819D01*
X127380952Y-76054819D02*
X127285714Y-76197676D01*
X127285714Y-76197676D02*
X127190476Y-76292914D01*
X127190476Y-76292914D02*
X127095238Y-76340533D01*
X146859580Y-68866666D02*
X146907200Y-68914285D01*
X146907200Y-68914285D02*
X146954819Y-69057142D01*
X146954819Y-69057142D02*
X146954819Y-69152380D01*
X146954819Y-69152380D02*
X146907200Y-69295237D01*
X146907200Y-69295237D02*
X146811961Y-69390475D01*
X146811961Y-69390475D02*
X146716723Y-69438094D01*
X146716723Y-69438094D02*
X146526247Y-69485713D01*
X146526247Y-69485713D02*
X146383390Y-69485713D01*
X146383390Y-69485713D02*
X146192914Y-69438094D01*
X146192914Y-69438094D02*
X146097676Y-69390475D01*
X146097676Y-69390475D02*
X146002438Y-69295237D01*
X146002438Y-69295237D02*
X145954819Y-69152380D01*
X145954819Y-69152380D02*
X145954819Y-69057142D01*
X145954819Y-69057142D02*
X146002438Y-68914285D01*
X146002438Y-68914285D02*
X146050057Y-68866666D01*
X145954819Y-68533332D02*
X145954819Y-67866666D01*
X145954819Y-67866666D02*
X146954819Y-68295237D01*
D15*
%TO.C,R6*%
X131520000Y-62856359D02*
X131520000Y-63163641D01*
X132280000Y-62856359D02*
X132280000Y-63163641D01*
%TO.C,C1*%
X132107836Y-81690000D02*
X131892164Y-81690000D01*
X132107836Y-82410000D02*
X131892164Y-82410000D01*
%TO.C,C10*%
X162142164Y-79190000D02*
X162357836Y-79190000D01*
X162142164Y-79910000D02*
X162357836Y-79910000D01*
%TO.C,D16*%
X133500000Y-118060000D02*
X133500000Y-114050000D01*
X133500000Y-118060000D02*
X135500000Y-118060000D01*
X135500000Y-118060000D02*
X135500000Y-114050000D01*
%TO.C,C14*%
X143160000Y-68677836D02*
X143160000Y-68462164D01*
X143880000Y-68677836D02*
X143880000Y-68462164D01*
D10*
%TO.C,D30*%
X146350000Y-63990000D02*
G75*
G02*
X146250000Y-63990000I-50000J0D01*
G01*
X146250000Y-63990000D02*
G75*
G02*
X146350000Y-63990000I50000J0D01*
G01*
D15*
%TO.C,D26*%
X148750000Y-108060000D02*
X148750000Y-104050000D01*
X148750000Y-108060000D02*
X150750000Y-108060000D01*
X150750000Y-108060000D02*
X150750000Y-104050000D01*
%TO.C,R5*%
X132520000Y-62856359D02*
X132520000Y-63163641D01*
X133280000Y-62856359D02*
X133280000Y-63163641D01*
%TO.C,TP5*%
X139800000Y-76850000D02*
X141200000Y-76850000D01*
X139800000Y-78250000D02*
X139800000Y-76850000D01*
X141200000Y-76850000D02*
X141200000Y-78250000D01*
X141200000Y-78250000D02*
X139800000Y-78250000D01*
%TO.C,R12*%
X136606359Y-81820000D02*
X136913641Y-81820000D01*
X136606359Y-82580000D02*
X136913641Y-82580000D01*
%TO.C,R16*%
X151846359Y-79670000D02*
X152153641Y-79670000D01*
X151846359Y-80430000D02*
X152153641Y-80430000D01*
%TO.C,R25*%
X143920000Y-62756359D02*
X143920000Y-63063641D01*
X144680000Y-62756359D02*
X144680000Y-63063641D01*
%TO.C,TP8*%
X143800000Y-76850000D02*
X145200000Y-76850000D01*
X143800000Y-78250000D02*
X143800000Y-76850000D01*
X145200000Y-76850000D02*
X145200000Y-78250000D01*
X145200000Y-78250000D02*
X143800000Y-78250000D01*
%TO.C,R15*%
X151816359Y-78670000D02*
X152123641Y-78670000D01*
X151816359Y-79430000D02*
X152123641Y-79430000D01*
D16*
%TO.C,J4*%
X136000000Y-87800000D02*
X147950000Y-87800000D01*
X136000000Y-129300000D02*
X136000000Y-87800000D01*
X147950000Y-87800000D02*
X147950000Y-129300000D01*
X147950000Y-129300000D02*
X136000000Y-129300000D01*
D10*
%TO.C,D1*%
X134950000Y-64090000D02*
G75*
G02*
X134850000Y-64090000I-50000J0D01*
G01*
X134850000Y-64090000D02*
G75*
G02*
X134950000Y-64090000I50000J0D01*
G01*
D15*
%TO.C,R2*%
X121596359Y-79670000D02*
X121903641Y-79670000D01*
X121596359Y-80430000D02*
X121903641Y-80430000D01*
%TO.C,R13*%
X137320000Y-62756359D02*
X137320000Y-63063641D01*
X138080000Y-62756359D02*
X138080000Y-63063641D01*
%TO.C,D11*%
X155783250Y-77440000D02*
X155783250Y-78640000D01*
X157743250Y-77440000D02*
X155783250Y-77440000D01*
X157743250Y-78640000D02*
X155783250Y-78640000D01*
%TO.C,R23*%
X139096359Y-68670000D02*
X139403641Y-68670000D01*
X139096359Y-69430000D02*
X139403641Y-69430000D01*
D10*
%TO.C,D12*%
X142550000Y-63990000D02*
G75*
G02*
X142450000Y-63990000I-50000J0D01*
G01*
X142450000Y-63990000D02*
G75*
G02*
X142550000Y-63990000I50000J0D01*
G01*
D15*
%TO.C,D24*%
X148750000Y-118060000D02*
X148750000Y-114050000D01*
X148750000Y-118060000D02*
X150750000Y-118060000D01*
X150750000Y-118060000D02*
X150750000Y-114050000D01*
%TO.C,C5*%
X159451086Y-77430000D02*
X159235414Y-77430000D01*
X159451086Y-78150000D02*
X159235414Y-78150000D01*
%TO.C,R7*%
X141120000Y-62756359D02*
X141120000Y-63063641D01*
X141880000Y-62756359D02*
X141880000Y-63063641D01*
D17*
%TO.C,U3*%
X126996700Y-77288500D02*
X129003300Y-77288500D01*
X129003300Y-73986500D02*
X126996700Y-73986500D01*
X129003300Y-76000761D02*
X129003300Y-75274239D01*
D15*
%TO.C,TP6*%
X137800000Y-76850000D02*
X139200000Y-76850000D01*
X137800000Y-78250000D02*
X137800000Y-76850000D01*
X139200000Y-76850000D02*
X139200000Y-78250000D01*
X139200000Y-78250000D02*
X137800000Y-78250000D01*
%TO.C,D22*%
X148750000Y-128060000D02*
X148750000Y-124050000D01*
X148750000Y-128060000D02*
X150750000Y-128060000D01*
X150750000Y-128060000D02*
X150750000Y-124050000D01*
%TO.C,C13*%
X142140000Y-68657836D02*
X142140000Y-68442164D01*
X142860000Y-68657836D02*
X142860000Y-68442164D01*
%TO.C,D29*%
X148750000Y-93060000D02*
X148750000Y-89050000D01*
X148750000Y-93060000D02*
X150750000Y-93060000D01*
X150750000Y-93060000D02*
X150750000Y-89050000D01*
D16*
%TO.C,J3*%
X121000000Y-87800000D02*
X132950000Y-87800000D01*
X121000000Y-129300000D02*
X121000000Y-87800000D01*
X132950000Y-87800000D02*
X132950000Y-129300000D01*
X132950000Y-129300000D02*
X121000000Y-129300000D01*
D18*
%TO.C,J2*%
X150820000Y-77040000D02*
X150820000Y-72670000D01*
D10*
X152670000Y-66410000D02*
X161670000Y-66410000D01*
D18*
X163020000Y-72670000D02*
X163020000Y-77040000D01*
X163020000Y-77040000D02*
X150820000Y-77040000D01*
X150498937Y-75410000D02*
G75*
G02*
X149841063Y-75410000I-328937J0D01*
G01*
X149841063Y-75410000D02*
G75*
G02*
X150498937Y-75410000I328937J0D01*
G01*
D15*
%TO.C,C2*%
X119090000Y-73540000D02*
X119090000Y-77750000D01*
X122110000Y-73540000D02*
X119090000Y-73540000D01*
X122110000Y-77750000D02*
X122110000Y-73540000D01*
%TO.C,D21*%
X133500000Y-93060000D02*
X133500000Y-89050000D01*
X133500000Y-93060000D02*
X135500000Y-93060000D01*
X135500000Y-93060000D02*
X135500000Y-89050000D01*
%TO.C,R9*%
X136606359Y-78820000D02*
X136913641Y-78820000D01*
X136606359Y-79580000D02*
X136913641Y-79580000D01*
%TO.C,D14*%
X133500000Y-128060000D02*
X133500000Y-124050000D01*
X133500000Y-128060000D02*
X135500000Y-128060000D01*
X135500000Y-128060000D02*
X135500000Y-124050000D01*
%TO.C,C8*%
X122590000Y-73540000D02*
X122590000Y-77750000D01*
X125610000Y-73540000D02*
X122590000Y-73540000D01*
X125610000Y-77750000D02*
X125610000Y-73540000D01*
%TO.C,R11*%
X136606359Y-80820000D02*
X136913641Y-80820000D01*
X136606359Y-81580000D02*
X136913641Y-81580000D01*
%TO.C,Y1*%
X145650000Y-76400000D02*
X148250000Y-76400000D01*
X148250000Y-76400000D02*
X148250000Y-73200000D01*
%TO.C,U5*%
X138890000Y-70665000D02*
X138890000Y-70430000D01*
X138890000Y-75410000D02*
X138890000Y-74935000D01*
X139365000Y-70190000D02*
X139190000Y-70190000D01*
X139365000Y-75410000D02*
X138890000Y-75410000D01*
X143635000Y-70190000D02*
X144110000Y-70190000D01*
X143635000Y-75410000D02*
X144110000Y-75410000D01*
X144110000Y-70190000D02*
X144110000Y-70665000D01*
X144110000Y-75410000D02*
X144110000Y-74935000D01*
X138890000Y-70190000D02*
X138650000Y-69860000D01*
X139130000Y-69860000D01*
X138890000Y-70190000D01*
G36*
X138890000Y-70190000D02*
G01*
X138650000Y-69860000D01*
X139130000Y-69860000D01*
X138890000Y-70190000D01*
G37*
%TO.C,R18*%
X151846359Y-81670000D02*
X152153641Y-81670000D01*
X151846359Y-82430000D02*
X152153641Y-82430000D01*
%TO.C,R17*%
X151846359Y-80670000D02*
X152153641Y-80670000D01*
X151846359Y-81430000D02*
X152153641Y-81430000D01*
%TO.C,D4*%
X118500000Y-118060000D02*
X118500000Y-114050000D01*
X118500000Y-118060000D02*
X120500000Y-118060000D01*
X120500000Y-118060000D02*
X120500000Y-114050000D01*
%TO.C,TP9*%
X145800000Y-76850000D02*
X147200000Y-76850000D01*
X145800000Y-78250000D02*
X145800000Y-76850000D01*
X147200000Y-76850000D02*
X147200000Y-78250000D01*
X147200000Y-78250000D02*
X145800000Y-78250000D01*
%TO.C,D6*%
X118500000Y-108060000D02*
X118500000Y-104050000D01*
X118500000Y-108060000D02*
X120500000Y-108060000D01*
X120500000Y-108060000D02*
X120500000Y-104050000D01*
%TO.C,D25*%
X148750000Y-113060000D02*
X148750000Y-109050000D01*
X148750000Y-113060000D02*
X150750000Y-113060000D01*
X150750000Y-113060000D02*
X150750000Y-109050000D01*
D17*
%TO.C,U1*%
X124578555Y-87126700D02*
X128921445Y-87126700D01*
X128921445Y-78973300D02*
X124578555Y-78973300D01*
D19*
G36*
X122838400Y-85515540D02*
G01*
X122584400Y-85515540D01*
X122584400Y-85134540D01*
X122838400Y-85134540D01*
X122838400Y-85515540D01*
G37*
G36*
X130915600Y-82265483D02*
G01*
X130661600Y-82265483D01*
X130661600Y-81884483D01*
X130915600Y-81884483D01*
X130915600Y-82265483D01*
G37*
D15*
%TO.C,D5*%
X118500000Y-113060000D02*
X118500000Y-109050000D01*
X118500000Y-113060000D02*
X120500000Y-113060000D01*
X120500000Y-113060000D02*
X120500000Y-109050000D01*
D10*
%TO.C,D13*%
X138750000Y-63990000D02*
G75*
G02*
X138650000Y-63990000I-50000J0D01*
G01*
X138650000Y-63990000D02*
G75*
G02*
X138750000Y-63990000I50000J0D01*
G01*
D15*
%TO.C,TP1*%
X138300000Y-65600000D02*
X139700000Y-65600000D01*
X138300000Y-67000000D02*
X138300000Y-65600000D01*
X139700000Y-65600000D02*
X139700000Y-67000000D01*
X139700000Y-67000000D02*
X138300000Y-67000000D01*
%TO.C,TP3*%
X140800000Y-65600000D02*
X142200000Y-65600000D01*
X140800000Y-67000000D02*
X140800000Y-65600000D01*
X142200000Y-65600000D02*
X142200000Y-67000000D01*
X142200000Y-67000000D02*
X140800000Y-67000000D01*
%TO.C,R1*%
X121596359Y-78670000D02*
X121903641Y-78670000D01*
X121596359Y-79430000D02*
X121903641Y-79430000D01*
%TO.C,R10*%
X136606359Y-79820000D02*
X136913641Y-79820000D01*
X136606359Y-80580000D02*
X136913641Y-80580000D01*
%TO.C,D28*%
X148750000Y-98060000D02*
X148750000Y-94050000D01*
X148750000Y-98060000D02*
X150750000Y-98060000D01*
X150750000Y-98060000D02*
X150750000Y-94050000D01*
%TO.C,C12*%
X137357836Y-74190000D02*
X137142164Y-74190000D01*
X137357836Y-74910000D02*
X137142164Y-74910000D01*
%TO.C,D2*%
X118500000Y-128060000D02*
X118500000Y-124050000D01*
X118500000Y-128060000D02*
X120500000Y-128060000D01*
X120500000Y-128060000D02*
X120500000Y-124050000D01*
%TO.C,R4*%
X121596359Y-81670000D02*
X121903641Y-81670000D01*
X121596359Y-82430000D02*
X121903641Y-82430000D01*
%TO.C,R22*%
X145913641Y-72170000D02*
X145606359Y-72170000D01*
X145913641Y-72930000D02*
X145606359Y-72930000D01*
%TO.C,R24*%
X144920000Y-62756359D02*
X144920000Y-63063641D01*
X145680000Y-62756359D02*
X145680000Y-63063641D01*
%TO.C,C15*%
X147107836Y-81840000D02*
X146892164Y-81840000D01*
X147107836Y-82560000D02*
X146892164Y-82560000D01*
%TO.C,R3*%
X121596359Y-80670000D02*
X121903641Y-80670000D01*
X121596359Y-81430000D02*
X121903641Y-81430000D01*
D16*
%TO.C,J5*%
X151250000Y-87800000D02*
X163200000Y-87800000D01*
X151250000Y-129300000D02*
X151250000Y-87800000D01*
X163200000Y-87800000D02*
X163200000Y-129300000D01*
X163200000Y-129300000D02*
X151250000Y-129300000D01*
D15*
%TO.C,D9*%
X118500000Y-93060000D02*
X118500000Y-89050000D01*
X118500000Y-93060000D02*
X120500000Y-93060000D01*
X120500000Y-93060000D02*
X120500000Y-89050000D01*
%TO.C,D10*%
X153593250Y-77440000D02*
X155553250Y-77440000D01*
X153593250Y-78640000D02*
X155553250Y-78640000D01*
X155553250Y-78640000D02*
X155553250Y-77440000D01*
D17*
%TO.C,U2*%
X139578555Y-87276700D02*
X143921445Y-87276700D01*
X143921445Y-79123300D02*
X139578555Y-79123300D01*
D19*
G36*
X137838400Y-85665540D02*
G01*
X137584400Y-85665540D01*
X137584400Y-85284540D01*
X137838400Y-85284540D01*
X137838400Y-85665540D01*
G37*
G36*
X145915600Y-82415483D02*
G01*
X145661600Y-82415483D01*
X145661600Y-82034483D01*
X145915600Y-82034483D01*
X145915600Y-82415483D01*
G37*
D15*
%TO.C,D17*%
X133500000Y-113060000D02*
X133500000Y-109050000D01*
X133500000Y-113060000D02*
X135500000Y-113060000D01*
X135500000Y-113060000D02*
X135500000Y-109050000D01*
%TO.C,D20*%
X133500000Y-98060000D02*
X133500000Y-94050000D01*
X133500000Y-98060000D02*
X135500000Y-98060000D01*
X135500000Y-98060000D02*
X135500000Y-94050000D01*
%TO.C,R21*%
X137413641Y-72170000D02*
X137106359Y-72170000D01*
X137413641Y-72930000D02*
X137106359Y-72930000D01*
%TO.C,TP7*%
X141800000Y-76850000D02*
X143200000Y-76850000D01*
X141800000Y-78250000D02*
X141800000Y-76850000D01*
X143200000Y-76850000D02*
X143200000Y-78250000D01*
X143200000Y-78250000D02*
X141800000Y-78250000D01*
%TO.C,C3*%
X118040000Y-74607836D02*
X118040000Y-74392164D01*
X118760000Y-74607836D02*
X118760000Y-74392164D01*
%TO.C,C16*%
X146892164Y-79340000D02*
X147107836Y-79340000D01*
X146892164Y-80060000D02*
X147107836Y-80060000D01*
%TO.C,TP4*%
X135800000Y-76850000D02*
X137200000Y-76850000D01*
X135800000Y-78250000D02*
X135800000Y-76850000D01*
X137200000Y-76850000D02*
X137200000Y-78250000D01*
X137200000Y-78250000D02*
X135800000Y-78250000D01*
%TO.C,C6*%
X147290000Y-64250000D02*
X147290000Y-68460000D01*
X147290000Y-68460000D02*
X150310000Y-68460000D01*
X150310000Y-68460000D02*
X150310000Y-64250000D01*
%TO.C,R14*%
X136320000Y-62756359D02*
X136320000Y-63063641D01*
X137080000Y-62756359D02*
X137080000Y-63063641D01*
%TO.C,D8*%
X118500000Y-98060000D02*
X118500000Y-94050000D01*
X118500000Y-98060000D02*
X120500000Y-98060000D01*
X120500000Y-98060000D02*
X120500000Y-94050000D01*
%TO.C,R19*%
X137403641Y-70420000D02*
X137096359Y-70420000D01*
X137403641Y-71180000D02*
X137096359Y-71180000D01*
D17*
%TO.C,U4*%
X154828555Y-87126700D02*
X159171445Y-87126700D01*
X159171445Y-78973300D02*
X154828555Y-78973300D01*
D19*
G36*
X153088400Y-85515540D02*
G01*
X152834400Y-85515540D01*
X152834400Y-85134540D01*
X153088400Y-85134540D01*
X153088400Y-85515540D01*
G37*
G36*
X161165600Y-82265483D02*
G01*
X160911600Y-82265483D01*
X160911600Y-81884483D01*
X161165600Y-81884483D01*
X161165600Y-82265483D01*
G37*
D15*
%TO.C,D19*%
X133500000Y-103060000D02*
X133500000Y-99050000D01*
X133500000Y-103060000D02*
X135500000Y-103060000D01*
X135500000Y-103060000D02*
X135500000Y-99050000D01*
%TO.C,R8*%
X140120000Y-62756359D02*
X140120000Y-63063641D01*
X140880000Y-62756359D02*
X140880000Y-63063641D01*
%TO.C,C11*%
X130490000Y-73177500D02*
X130490000Y-77387500D01*
X133510000Y-73177500D02*
X130490000Y-73177500D01*
X133510000Y-77387500D02*
X133510000Y-73177500D01*
%TO.C,D23*%
X148750000Y-123060000D02*
X148750000Y-119050000D01*
X148750000Y-123060000D02*
X150750000Y-123060000D01*
X150750000Y-123060000D02*
X150750000Y-119050000D01*
%TO.C,D18*%
X133500000Y-108060000D02*
X133500000Y-104050000D01*
X133500000Y-108060000D02*
X135500000Y-108060000D01*
X135500000Y-108060000D02*
X135500000Y-104050000D01*
%TO.C,TP2*%
X143300000Y-65600000D02*
X144700000Y-65600000D01*
X143300000Y-67000000D02*
X143300000Y-65600000D01*
X144700000Y-65600000D02*
X144700000Y-67000000D01*
X144700000Y-67000000D02*
X143300000Y-67000000D01*
%TO.C,D27*%
X148750000Y-103060000D02*
X148750000Y-99050000D01*
X148750000Y-103060000D02*
X150750000Y-103060000D01*
X150750000Y-103060000D02*
X150750000Y-99050000D01*
%TO.C,C9*%
X162357836Y-81690000D02*
X162142164Y-81690000D01*
X162357836Y-82410000D02*
X162142164Y-82410000D01*
%TO.C,D3*%
X118500000Y-123060000D02*
X118500000Y-119050000D01*
X118500000Y-123060000D02*
X120500000Y-123060000D01*
X120500000Y-123060000D02*
X120500000Y-119050000D01*
%TO.C,R26*%
X133520000Y-62856359D02*
X133520000Y-63163641D01*
X134280000Y-62856359D02*
X134280000Y-63163641D01*
%TO.C,C4*%
X131892164Y-79190000D02*
X132107836Y-79190000D01*
X131892164Y-79910000D02*
X132107836Y-79910000D01*
%TO.C,R20*%
X137403641Y-73170000D02*
X137096359Y-73170000D01*
X137403641Y-73930000D02*
X137096359Y-73930000D01*
D18*
%TO.C,J1*%
X118800000Y-60100000D02*
X118800000Y-63905000D01*
X118800000Y-68400000D02*
X118800000Y-67500000D01*
X118800000Y-73100000D02*
X118800000Y-71995000D01*
X118800000Y-73100000D02*
X122555000Y-73100000D01*
X124995000Y-73100000D02*
X128800000Y-73100000D01*
X128800000Y-60100000D02*
X118800000Y-60100000D01*
X128800000Y-60100000D02*
X128800000Y-63905000D01*
X128800000Y-68400000D02*
X128800000Y-67500000D01*
X128800000Y-73100000D02*
X128800000Y-71995000D01*
D16*
X123900000Y-73975000D02*
G75*
G02*
X123700000Y-73975000I-100000J0D01*
G01*
X123700000Y-73975000D02*
G75*
G02*
X123900000Y-73975000I100000J0D01*
G01*
D15*
%TO.C,D7*%
X118500000Y-103060000D02*
X118500000Y-99050000D01*
X118500000Y-103060000D02*
X120500000Y-103060000D01*
X120500000Y-103060000D02*
X120500000Y-99050000D01*
%TO.C,C7*%
X146140000Y-66807836D02*
X146140000Y-66592164D01*
X146860000Y-66807836D02*
X146860000Y-66592164D01*
%TO.C,D15*%
X133500000Y-123060000D02*
X133500000Y-119050000D01*
X133500000Y-123060000D02*
X135500000Y-123060000D01*
X135500000Y-123060000D02*
X135500000Y-119050000D01*
%TD*%
M02*
